<?xml version="1.0" encoding="UTF-8" standalone="no"?>
<!DOCTYPE svg  PUBLIC '-//W3C//DTD SVG 1.1//EN'  'http://www.w3.org/Graphics/SVG/1.1/DTD/svg11.dtd'>
<svg version="1.1" xmlns="http://www.w3.org/2000/svg">
<defs>
<font id="Lato-Bold" horiz-adv-x="1187">
<font-face underline-thickness="198" underline-position="-402" ascent="1649" font-weight="700" unicode-range="U+0020-04FE" units-per-em="2048" bbox="-78 -418 2725 1962" descent="-399" font-family="Lato" cap-height="1481" x-height="1051" panose-1="2 15 8 2 2 2 4 3 2 3"/>
<missing-glyph/>
<glyph unicode=" " glyph-name="space" horiz-adv-x="497"/>
<glyph d="M130 139q0 32 12 60.5t33 49t49.5 33t61.5 12.5q32 0 60.5 -12.5t49.5 -33t33 -49t12 -60.5q0 -33 -12 -61t-33 -48.5t-50 -32t-60 -11.5q-33 0 -61.5 11.5t-49.5 32t-33 48.5t-12 61zM170 895v586h238v-586q0 -93 -9.5 -182.5t-23.5 -190.5h-172q-14 100 -23.5 190 t-9.5 183z" unicode="!" glyph-name="exclam" horiz-adv-x="575"/>
<glyph d="M106 933zM106 1186v295h221v-295l-23 -160q-8 -45 -26.5 -69t-61.5 -24q-38 0 -58.5 24t-28.5 69zM483 1186v295h221v-295l-23 -160q-8 -45 -26.5 -69t-61.5 -24q-38 0 -58.5 24t-28.5 69z" unicode='&quot;' glyph-name="quotedbl" horiz-adv-x="809"/>
<glyph d="M40 519l13 81h194l53 283h-219l19 105q8 39 33 58t79 19h114l63 330q8 41 38 63.5t70 22.5h115l-78 -416h209l79 416h113q39 0 62.5 -25t17.5 -63l-64 -328h207l-18 -106q-8 -39 -33 -57.5t-79 -18.5h-102l-54 -283h146q39 0 56 -23t8 -79l-13 -80h-222l-78 -418h-117 q-17 0 -32.5 8t-25.5 22.5t-15 33.5t1 40l59 314h-210l-59 -326q-8 -49 -41 -70.5t-73 -21.5h-113l78 418h-118q-39 0 -55 23t-8 78zM455 600h210l53 283h-210z" unicode="#" glyph-name="numbersign"/>
<glyph d="M69 178l77 116q10 15 27 25t37 10q23 0 48.5 -16t58 -37.5t74.5 -43t99 -31.5l38 457q-73 22 -144 49t-127.5 72.5t-91.5 115.5t-35 175q0 78 30.5 152t90.5 132.5t147 96.5t200 43l11 129q2 25 20.5 44.5t48.5 19.5h93l-17 -201q110 -17 188.5 -62t135.5 -100l-61 -93 q-13 -20 -27.5 -30.5t-35.5 -10.5q-15 0 -36.5 9.5t-48 23.5t-60 28.5t-73.5 23.5l-36 -424q74 -23 147 -50t130.5 -70t93.5 -107t36 -160q0 -95 -32 -178.5t-93 -147.5t-150.5 -104.5t-203.5 -47.5l-13 -151q-1 -24 -19.5 -43.5t-47.5 -19.5h-93l18 219q-120 16 -225.5 65 t-178.5 122zM369 1095q0 -39 13 -69t37 -53t57.5 -41t72.5 -32l32 379q-57 -7 -97.5 -24t-66 -41.5t-37 -54.5t-11.5 -64zM646 198q109 14 164.5 73t55.5 154q0 39 -13.5 68t-39 51.5t-59 39t-73.5 29.5z" unicode="$" glyph-name="dollar"/>
<glyph d="M79 1122q0 86 25.5 156t71 118t108 74t136.5 26t137 -26t109 -74t71.5 -118t25.5 -156q0 -84 -28 -151.5t-75.5 -115t-110 -73t-129.5 -25.5q-74 0 -136.5 25.5t-108 73t-71 115t-25.5 151.5zM157 0l1098 1441q13 15 31.5 27.5t50.5 12.5h185l-1100 -1443 q-13 -16 -31.5 -27t-45.5 -11h-188zM275 1122q0 -57 11.5 -95.5t30.5 -62t45.5 -33.5t57.5 -10t58 10t47 33.5t31.5 62t11.5 95.5q0 59 -11.5 99.5t-31.5 65t-47 35t-58 10.5t-57.5 -10.5t-45.5 -35t-30.5 -64.5t-11.5 -100zM915 348q0 86 26 155.5t71.5 118t108 74.5 t135.5 26q74 0 137 -26t108.5 -74.5t71.5 -118t26 -155.5q0 -84 -28 -151.5t-75 -115t-109.5 -73.5t-130.5 -26q-74 0 -136 26t-107.5 73.5t-71.5 115t-26 151.5zM1112 348q0 -57 11 -96t30 -62.5t46 -34t57 -10.5q31 0 58 10.5t47 34t31.5 62.5t11.5 96q0 59 -11.5 99 t-31.5 65t-47 35.5t-58 10.5t-57.5 -10.5t-45.5 -35.5t-30 -64.5t-11 -99.5z" unicode="%" glyph-name="percent" horiz-adv-x="1678"/>
<glyph d="M75 408q0 70 22.5 131.5t62.5 114.5t95 96t121 73q-55 77 -80 150.5t-25 145.5q0 77 28.5 146t81.5 120.5t131 81.5t176 30q90 0 161.5 -27.5t122 -73.5t79.5 -105.5t34 -123.5l-160 -33q-45 -9 -66 38q-9 27 -24 51t-35.5 42t-48 29t-63.5 11q-43 0 -76.5 -15t-57 -40 t-35.5 -58.5t-12 -70.5q0 -31 6 -59.5t20.5 -57t37.5 -59t57 -64.5l393 -409q34 65 54.5 136.5t26.5 145.5q3 24 16.5 38t36.5 14h158q-1 -135 -39 -258t-109 -226l311 -322h-248q-39 0 -63 9t-51 39l-102 106q-97 -80 -218 -125t-262 -45q-85 0 -167 29t-146.5 84.5 t-104 133.5t-39.5 177zM333 428q0 -56 19.5 -101t52.5 -76.5t78 -48.5t95 -17q90 0 164.5 28.5t135.5 78.5l-389 400q-82 -53 -119 -120t-37 -144z" unicode="&amp;" glyph-name="ampersand" horiz-adv-x="1481"/>
<glyph d="M106 1186v295h221v-295l-23 -160q-8 -45 -26.5 -69t-61.5 -24q-38 0 -58.5 24t-28.5 69z" unicode="&apos;" glyph-name="quotesingle" horiz-adv-x="433"/>
<glyph d="M75 642q0 128 15.5 251.5t49.5 243t87.5 237t128.5 234.5l113 -68q10 -6 19 -14.5t13 -20.5t2.5 -28t-11.5 -37q-95 -178 -146.5 -382.5t-51.5 -415.5t51 -414.5t147 -383.5q10 -20 11.5 -36t-2.5 -27.5t-13 -20.5t-19 -15l-113 -69q-76 117 -129 235t-87 237.5 t-49.5 242.5t-15.5 251z" unicode="(" glyph-name="parenleft" horiz-adv-x="562"/>
<glyph d="M57.5 -192q1.5 16 13.5 36q95 179 145.5 383t50.5 415t-50.5 415.5t-145.5 382.5q-11 22 -13 37.5t2.5 27.5t13 20.5t19.5 14.5l113 68q76 -117 129 -234.5t87 -237t49 -243t15 -251.5t-15 -251t-49 -242.5t-87 -237.5t-129 -235l-113 69q-11 6 -19.5 15t-13 20.5 t-3 27.5z" unicode=")" glyph-name="parenright" horiz-adv-x="562"/>
<glyph d="M104 1081l163 95q18 11 36.5 18t37.5 10q-38 4 -74 30l-163 95l60 103l163 -97q17 -11 33 -23t27 -26q-7 17 -9.5 36.5t-2.5 40.5v189h121v-187q0 -22 -3 -41.5t-10 -37.5q11 14 26.5 26t34.5 23l162 95l60 -103l-163 -93q-18 -11 -36 -19t-38 -11q35 -6 74 -28l163 -96 l-59 -102l-163 95q-18 11 -33.5 22.5t-28.5 25.5q13 -33 14 -75v-189h-121v187q0 20 2.5 40t8.5 37q-11 -14 -26.5 -25.5t-32.5 -22.5l-162 -94z" unicode="*" glyph-name="asterisk" horiz-adv-x="870"/>
<glyph d="M95 594v187h395v420h206v-420h398v-187h-398v-422h-206v422h-395z" unicode="+" glyph-name="plus"/>
<glyph d="M88 156q0 29 11 53.5t30 43.5t47 30t61 11q39 0 68 -14t48 -38t28.5 -55t9.5 -66q0 -49 -15 -103.5t-43.5 -108.5t-71 -105.5t-96.5 -94.5l-44 40q-18 15 -19 38q0 8 6 18.5t14 18.5l27.5 30t33 41t30 50t19.5 58q-32 0 -58.5 12t-45 32.5t-29.5 48t-11 60.5z" unicode="," glyph-name="comma" horiz-adv-x="479"/>
<glyph d="M117 513v211h530v-211h-530z" unicode="-" glyph-name="hyphen" horiz-adv-x="763"/>
<glyph d="M88 139q0 32 12 60.5t32.5 49t49 33t61.5 12.5t61 -12.5t49 -33t33 -49t12 -60.5q0 -33 -12 -61t-33 -48.5t-49.5 -32t-60.5 -11.5q-33 0 -61.5 11.5t-49 32t-32.5 48.5t-12 61z" unicode="." glyph-name="period" horiz-adv-x="486"/>
<glyph d="M59 -97l598 1530q16 43 50 66t79 23h109l-594 -1525q-17 -47 -55.5 -70.5t-78.5 -23.5h-108z" unicode="/" glyph-name="slash" horiz-adv-x="954"/>
<glyph d="M51 740q0 195 41 337.5t114 235.5t171.5 138.5t214.5 45.5t215.5 -45.5t173 -138.5t115 -235.5t41.5 -337.5q0 -194 -41.5 -336.5t-115 -235.5t-173 -138.5t-215.5 -45.5t-214.5 45.5t-171.5 138.5t-114 236t-41 336zM312 740q0 -161 23 -266t62 -167.5t90 -87.5t105 -25 q55 0 106.5 25t90.5 87.5t63 167.5t24 266t-24 266.5t-63 168t-90.5 87.5t-106.5 25q-54 0 -105 -25t-90 -87.5t-62 -168t-23 -266.5z" unicode="0" glyph-name="zero"/>
<glyph d="M134 1099l452 384h208v-1294h266v-189h-819v189h300v864q0 50 3 105l-213 -178q-18 -14 -36.5 -18t-34 -0.5t-28 11t-18.5 16.5z" unicode="1" glyph-name="one"/>
<glyph d="M78 0v84q0 26 10.5 54t34.5 50l449 451q56 57 101 109.5t74.5 103.5t45.5 104t16 111q0 53 -15.5 93.5t-43.5 68t-67.5 41.5t-88.5 14q-45 0 -83.5 -13t-68 -36t-50 -53.5t-31.5 -67.5q-17 -47 -44.5 -62.5t-79.5 -7.5l-134 24q15 106 59.5 186.5t110.5 134.5t151.5 81 t183.5 27q102 0 187.5 -30t145.5 -85.5t94 -133.5t34 -173q0 -82 -24 -151.5t-64.5 -133t-95 -123t-113.5 -120.5l-335 -341q49 14 97 22t91 8h380q41 0 65 -23.5t24 -60.5v-152h-1016z" unicode="2" glyph-name="two"/>
<glyph d="M68 376l111 46q44 18 82.5 9.5t55.5 -41.5q18 -36 40.5 -70.5t53 -62t72 -44t99.5 -16.5q65 0 112.5 21t80 54.5t48.5 75t16 83.5q0 53 -11.5 96.5t-47.5 74.5t-103 48.5t-179 17.5v180q93 1 154.5 17.5t97.5 45.5t50.5 70t14.5 90q0 104 -58.5 158.5t-155.5 54.5 q-45 0 -83 -13t-68 -36t-50.5 -53.5t-30.5 -67.5q-17 -47 -45.5 -62.5t-79.5 -7.5l-133 24q15 106 59 186.5t110 134.5t151.5 81t183.5 27q102 0 185 -29t141 -81t89.5 -121.5t31.5 -150.5q0 -71 -16 -124.5t-46 -93.5t-73.5 -67.5t-99.5 -46.5q133 -42 199 -128t66 -216 q0 -111 -41 -195.5t-111 -142.5t-161.5 -87.5t-193.5 -29.5q-112 0 -195 25.5t-144.5 75.5t-104.5 123t-73 168z" unicode="3" glyph-name="three"/>
<glyph d="M8 545l702 937h239v-924h187v-146q0 -20 -13.5 -35.5t-38.5 -15.5h-135v-361h-220v361h-625q-26 0 -45 16t-24 40zM279 558h450v484q0 69 9 151z" unicode="4" glyph-name="four"/>
<glyph d="M89 158l78 107q25 35 64 35q26 0 52.5 -16.5t61 -36t81 -35.5t112.5 -16q70 0 123 22.5t88 63t53 96t18 121.5q0 121 -70 189t-207 68q-105 0 -216 -39l-158 45l123 719h731v-108q0 -54 -34 -88t-115 -34h-406l-53 -309q100 20 182 21q117 0 206 -35t149.5 -96.5t91 -144 t30.5 -177.5q0 -118 -41.5 -215t-115 -166.5t-174.5 -107t-220 -37.5q-70 0 -132 14t-117 38t-101.5 55.5t-83.5 66.5z" unicode="5" glyph-name="five"/>
<glyph d="M86 504q0 104 42.5 214t131.5 229l353 474q18 25 53.5 42.5t82.5 17.5h225l-439 -538q-14 -17 -27 -32.5t-26 -31.5q43 22 93 34t108 12q84 0 163.5 -28t140 -83.5t97 -138.5t36.5 -194q0 -103 -38 -193.5t-106.5 -158.5t-165 -106.5t-213.5 -38.5q-119 0 -213 37.5 t-160.5 106t-102 164t-35.5 212.5zM329 465q0 -61 16.5 -112t50 -87t82.5 -56t114 -20q60 0 111 20.5t87 57.5t56.5 86.5t20.5 108.5q0 63 -19.5 114t-55 86t-86 53.5t-110.5 18.5t-109.5 -20.5t-84 -56.5t-54 -86t-19.5 -107z" unicode="6" glyph-name="six"/>
<glyph d="M95 1310v171h1023v-110q0 -49 -10 -79t-21 -51l-561 -1155q-17 -36 -49 -61t-85 -25h-183l572 1132q18 35 37.5 64t42.5 55h-707q-24 0 -41.5 17.5t-17.5 41.5z" unicode="7" glyph-name="seven"/>
<glyph d="M80 416q0 131 64.5 221.5t200.5 134.5q-109 45 -162.5 128t-53.5 200q0 84 34.5 156.5t96 126.5t147 84t187.5 30t187.5 -30t147 -84t96 -126.5t34.5 -156.5q0 -117 -54.5 -200t-161.5 -128q136 -44 200.5 -134.5t64.5 -221.5q0 -98 -37.5 -178t-105 -136.5t-162 -87 t-209.5 -30.5t-209.5 30.5t-162 87t-105 136t-37.5 178.5zM340 420q0 -51 16.5 -95t48.5 -76t79.5 -50t109.5 -18t109.5 18t79.5 50t48.5 76t16.5 95q0 122 -67.5 184.5t-186.5 62.5t-186.5 -62.5t-67.5 -184.5zM376 1096q0 -44 10.5 -85.5t36.5 -74t68 -52t103 -19.5 t103 19.5t68 52t36.5 74t10.5 85.5q0 42 -13.5 79.5t-40 67t-67.5 47t-97 17.5t-97 -17.5t-68.5 -47t-40 -67t-12.5 -79.5z" unicode="8" glyph-name="eight"/>
<glyph d="M85 1017q0 99 37 186t103.5 152.5t159.5 103.5t206 38q114 0 204.5 -36t154.5 -100.5t98 -154.5t34 -197q0 -69 -11.5 -130.5t-33 -118.5t-52.5 -111t-69 -107l-338 -484q-17 -25 -52.5 -41.5t-79.5 -16.5h-232l460 574q17 22 32.5 42.5t29.5 40.5q-51 -33 -112.5 -49.5 t-128.5 -16.5q-77 0 -151 26.5t-131 80.5t-92.5 133t-35.5 186zM338 1036q0 -124 64 -189t182 -65q61 0 109 19.5t81 53.5t50 80t17 99q0 60 -18.5 108t-52.5 80.5t-80.5 50t-101.5 17.5q-57 0 -103.5 -19t-79 -52.5t-50 -80t-17.5 -102.5z" unicode="9" glyph-name="nine"/>
<glyph d="M108 139q0 32 12 60.5t32.5 49t49 33t61.5 12.5t61 -12.5t49 -33t33 -49t12 -60.5q0 -33 -12 -61t-33 -48.5t-49.5 -32t-60.5 -11.5q-33 0 -61.5 11.5t-49 32t-32.5 48.5t-12 61zM108 869q0 32 12 60.5t32.5 49t49 33t61.5 12.5t61 -12.5t49 -33t33 -49t12 -60.5 q0 -33 -12 -61t-33 -48.5t-49.5 -32t-60.5 -11.5q-33 0 -61.5 11.5t-49 32t-32.5 48.5t-12 61zM109 0z" unicode=":" glyph-name="colon" horiz-adv-x="527"/>
<glyph d="M120 0zM120 869q0 32 12 60.5t32.5 49t49 33t61.5 12.5t61 -12.5t49 -33t33 -49t12 -60.5q0 -33 -12 -61t-33 -48.5t-49.5 -32t-60.5 -11.5q-33 0 -61.5 11.5t-49 32t-32.5 48.5t-12 61zM127 156q0 29 11 53.5t30 43.5t47 30t61 11q39 0 68 -14t48 -38t28.5 -55t9.5 -66 q0 -49 -15 -103.5t-43.5 -108.5t-71 -105.5t-96.5 -94.5l-44 40q-18 15 -19 38q0 8 6 18.5t14 18.5l27.5 30t33 41t30 50t19.5 58q-32 0 -58.5 12t-45 32.5t-29.5 48t-11 60.5z" unicode=";" glyph-name="semicolon" horiz-adv-x="553"/>
<glyph d="M155 639v102l812 423v-180q0 -20 -10.5 -37t-33.5 -29l-372 -191q-24 -12 -50 -21t-56 -16q57 -13 106 -37l372 -191q24 -11 34 -28.5t10 -38.5v-180z" unicode="&lt;" glyph-name="less"/>
<glyph d="M140 414v188h908v-188h-908zM140 775v188h908v-188h-908z" unicode="=" glyph-name="equal"/>
<glyph d="M221 215v180q0 20 10.5 38t33.5 29l372 191q45 23 105 37q-30 7 -56 16t-49 21l-372 191q-24 12 -34 29t-10 37v180l812 -423v-102z" unicode="&gt;" glyph-name="greater"/>
<glyph d="M73 1347q35 31 76 58.5t89.5 48t104.5 32t122 11.5q89 0 162 -24.5t125.5 -70t81 -110t28.5 -144.5q0 -78 -22.5 -135t-56 -99t-74 -72.5t-76.5 -57.5t-62 -53t-31 -59l-24 -150h-173l-17 167q-6 48 13.5 84.5t53 66.5t74.5 58.5t77 61.5t60 74.5t24 99.5q0 37 -14 66 t-38.5 50t-59 32t-74.5 11q-58 0 -98.5 -12.5t-68.5 -28.5t-47.5 -29t-34.5 -13q-37 0 -54 31zM266 139q0 32 12 60.5t32.5 49t49 33t61.5 12.5t61 -12.5t49 -33t33.5 -49t12.5 -60.5q0 -33 -12.5 -61t-33.5 -48.5t-49 -32t-61 -11.5t-61.5 11.5t-49 32t-32.5 48.5t-12 61z " unicode="?" glyph-name="question" horiz-adv-x="942"/>
<glyph d="M93 597q0 110 28.5 213t80.5 194t125.5 166.5t164 130t195.5 84.5t219 30q145 0 279 -48.5t237 -139t164.5 -221t61.5 -294.5q0 -110 -32.5 -205.5t-90.5 -166.5t-136 -111.5t-170 -40.5q-71 0 -125.5 33t-75.5 106q-60 -74 -128 -106t-146 -32q-65 0 -112 22.5t-79.5 62 t-48.5 93.5t-16 117q0 58 15 118.5t45 116t74.5 104t104 85t135 57.5t165.5 21q80 0 136.5 -12t108.5 -35l-98 -380q-16 -66 -16 -107t12.5 -65.5t35 -33.5t50.5 -9q43 0 81.5 27t67.5 76.5t45.5 117t16.5 147.5q0 133 -41.5 234.5t-116 169.5t-177.5 102t-226 34 q-135 0 -249.5 -50.5t-199 -138.5t-132 -208t-47.5 -258q0 -168 52 -295.5t143 -213t214.5 -128.5t266.5 -43q79 0 147.5 8.5t126 23.5t104.5 34t84 41q27 15 47.5 9t29.5 -31l35 -91q-106 -70 -248.5 -114t-325.5 -44q-185 0 -342.5 58.5t-273 167.5t-180.5 265.5 t-65 352.5zM684 490q0 -66 28.5 -102t82.5 -36q27 0 54 8.5t51.5 29.5t45 55.5t33.5 86.5l75 289q-33 6 -68 6q-63 0 -118.5 -27.5t-96 -74.5t-64 -108t-23.5 -127z" unicode="@" glyph-name="at" horiz-adv-x="1727"/>
<glyph d="M-11 0l582 1481h281l582 -1481h-213q-36 0 -58.5 18t-34.5 44l-110 303h-614l-110 -303q-8 -24 -31.5 -43t-58.5 -19h-215zM475 559h472l-180 493q-13 33 -27.5 77.5t-28.5 96.5q-14 -52 -28 -97.5t-28 -78.5z" unicode="A" glyph-name="A" horiz-adv-x="1422"/>
<glyph d="M165 0v1481h510q145 0 248.5 -28t169.5 -79t97 -123.5t31 -164.5q0 -52 -15.5 -99.5t-48 -89t-82 -75.5t-118.5 -57q305 -69 306 -330q0 -94 -36 -174t-104.5 -137.5t-169 -90.5t-229.5 -33h-559zM440 215h279q77 0 129 18.5t83.5 49t45 71.5t13.5 87q0 48 -15.5 86.5 t-48 66t-84 41.5t-124.5 14h-278v-434zM440 840h219q141 0 213.5 51t72.5 163q0 116 -65.5 165t-204.5 49h-235v-428z" unicode="B" glyph-name="B" horiz-adv-x="1348"/>
<glyph d="M79 740q0 167 53 306t150 239t231 156t297 56q162 0 287.5 -53t213.5 -139l-92 -128q-8 -12 -21 -21.5t-36 -9.5q-15 0 -31.5 8.5t-36 21.5t-45 28.5t-59.5 28t-78.5 21.5t-102.5 9q-99 0 -181.5 -35.5t-142 -102.5t-92.5 -164t-33 -221q0 -125 35.5 -222t96 -163.5 t142.5 -102t176 -35.5q56 0 101.5 6t84 19.5t73 34.5t68.5 52q10 9 21.5 14.5t23.5 5.5q23 0 40 -17l108 -118q-90 -112 -221.5 -171t-315.5 -59q-165 0 -296.5 56t-225 156.5t-143 239.5t-49.5 304z" unicode="C" glyph-name="C" horiz-adv-x="1354"/>
<glyph d="M165 0v1481h564q169 0 307.5 -55t236.5 -152.5t152.5 -234t54.5 -299.5t-54.5 -299t-152.5 -234t-236.5 -152.5t-307.5 -54.5h-564zM441 219h288q109 0 195.5 36t147.5 103t93 163.5t32 218.5t-32 219t-93 164t-147.5 103t-195.5 36h-288v-1043z" unicode="D" glyph-name="D" horiz-adv-x="1557"/>
<glyph d="M165 0v1481h934v-219h-658v-411h518v-212h-518v-419h658v-220h-934z" unicode="E" glyph-name="E" horiz-adv-x="1177"/>
<glyph d="M165 0v1481h934v-219h-658v-439h555v-220h-555v-603h-276z" unicode="F" glyph-name="F" horiz-adv-x="1159"/>
<glyph d="M77 740q0 167 54 306.5t154 239.5t242.5 155.5t319.5 55.5q90 0 168.5 -14.5t145.5 -39.5t122 -60.5t101 -78.5l-78 -125q-18 -30 -48 -37q-7 -1 -14 -1q-24 0 -51 16q-34 19 -67.5 38.5t-75 34t-93.5 24t-119 9.5q-110 0 -198.5 -37t-151 -105.5t-96.5 -165t-34 -215.5 q0 -127 36.5 -226.5t102.5 -169t159.5 -105.5t207.5 -36q82 0 146.5 17t126.5 46v270h-187q-27 0 -41.5 14.5t-14.5 36.5v155h491v-599q-113 -83 -240 -121t-273 -38q-181 0 -328 56t-251 156.5t-160 239.5t-56 304z" unicode="G" glyph-name="G" horiz-adv-x="1486"/>
<glyph d="M165 0v1481h276v-637h696v637h276v-1481h-276v647h-696v-647h-276z" unicode="H" glyph-name="H" horiz-adv-x="1577"/>
<glyph d="M165 0v1481h276v-1481h-276z" unicode="I" glyph-name="I" horiz-adv-x="607"/>
<glyph d="M23 11q3 41 7 82t7 82q3 23 18 36.5t42 13.5q17 0 45.5 -7t71.5 -7q58 0 103 17t75.5 53.5t46 95.5t15.5 143v961h275v-955q0 -125 -30.5 -225t-91.5 -171t-152 -108.5t-212 -37.5q-55 0 -108.5 6.5t-111.5 20.5z" unicode="J" glyph-name="J" horiz-adv-x="879"/>
<glyph d="M165 0v1481h275v-621h65q39 0 64.5 11t43.5 34l409 517q26 33 54 46t71 13h237l-498 -616q-44 -56 -91 -80q34 -12 61 -34t51 -58l514 -693h-242q-49 0 -73.5 14t-40.5 40l-419 547q-19 28 -45 39t-74 11h-87v-651h-275z" unicode="K" glyph-name="K" horiz-adv-x="1403"/>
<glyph d="M165 0v1481h275v-1254h592v-227h-867z" unicode="L" glyph-name="L" horiz-adv-x="1063"/>
<glyph d="M165 0v1481h208q18 0 31.5 -1t24 -5.5t19.5 -13.5t17 -24l443 -823q17 -33 32 -68t30 -71q14 38 29.5 73.5t32.5 67.5l437 821q8 15 17.5 24t20.5 13.5t24 5.5t32 1h207v-1481h-242v956q0 27 1.5 59t4.5 64l-448 -839q-32 -60 -97 -61h-39q-66 0 -97 61l-453 842 q3 -34 5.5 -66t2.5 -60v-956h-243z" unicode="M" glyph-name="M" horiz-adv-x="1935"/>
<glyph d="M165 0v1481h144q17 0 30 -1.5t23 -6.5t19 -13.5t20 -22.5l777 -992q-3 36 -5.5 71t-2.5 65v900h243v-1481h-141q-33 0 -55 11t-42 36l-774 986q3 -33 5 -65t2 -59v-909h-243z" unicode="N" glyph-name="N" horiz-adv-x="1577"/>
<glyph d="M77 740q0 163 54 302t153 240t237 158t306 57q113 0 212.5 -26t182.5 -73.5t149 -116t112 -152t70 -182t24 -207.5q0 -163 -54 -301.5t-152 -240t-236.5 -158t-307.5 -56.5q-168 0 -306 56.5t-237 158t-153 240.5t-54 301zM358 740q0 -122 33 -218.5t94 -163.5 t147.5 -103t194.5 -36q109 0 195.5 36t147 103t93 163.5t32.5 218.5t-32.5 219t-93 164.5t-147 103.5t-195.5 36t-195 -36t-147 -103.5t-94 -164.5t-33 -219z" unicode="O" glyph-name="O" horiz-adv-x="1654"/>
<glyph d="M165 0v1481h481q148 0 257 -35t179.5 -97.5t105 -149.5t34.5 -190q0 -108 -36 -197.5t-107.5 -154t-179.5 -100.5t-253 -36h-206v-521h-275zM440 736h206q76 0 132.5 19t93.5 54.5t55.5 86t18.5 113.5q0 59 -18.5 107t-55 82t-93 52t-133.5 18h-206v-532z" unicode="P" glyph-name="P" horiz-adv-x="1267"/>
<glyph d="M78 740q0 163 54 302t153 240t237 158t306 57q113 0 212.5 -26t182.5 -73.5t149 -116t112 -152t70 -182t24 -207.5q0 -99 -20.5 -189.5t-59 -170t-93.5 -145.5t-126 -116l376 -409h-228q-49 0 -88.5 13.5t-71.5 49.5l-217 239q-52 -14 -107 -21t-115 -7q-168 0 -306 56.5 t-237 158t-153 240.5t-54 301zM359 740q0 -122 33 -218.5t94 -163.5t147.5 -103t194.5 -36q109 0 195.5 36t147 103t93 163.5t32.5 218.5t-32.5 219t-93 164.5t-147 103.5t-195.5 36t-195 -36t-147 -103.5t-94 -164.5t-33 -219z" unicode="Q" glyph-name="Q" horiz-adv-x="1654"/>
<glyph d="M165 0v1481h451q151 0 259 -31.5t177 -87.5t102 -134.5t33 -172.5q0 -75 -22 -141.5t-63.5 -121t-102.5 -95.5t-139 -65q52 -30 90 -85l371 -547h-249q-71 0 -102 55l-312 474q-17 27 -38 38.5t-62 11.5h-118v-579h-275zM440 776h172q78 0 136 19.5t95.5 54t56 81.5 t18.5 103q0 113 -74.5 173.5t-227.5 60.5h-176v-492z" unicode="R" glyph-name="R" horiz-adv-x="1316"/>
<glyph d="M47 178l81 132q10 14 26.5 24t34.5 10q26 0 55.5 -21t70.5 -46.5t96 -46.5t132 -21q118 0 182.5 56t64.5 160q0 58 -29.5 95t-77.5 62t-109.5 42.5t-125 38t-125 49t-109.5 75t-77 115.5t-29 170q0 81 32 158t93.5 136t151.5 95t207 36q131 0 241.5 -41t188.5 -115 l-69 -130q-12 -22 -26 -31.5t-34 -9.5q-22 0 -47 16t-59.5 35.5t-81.5 35.5t-110 16q-57 0 -100 -14t-72.5 -38.5t-43.5 -59t-14 -75.5q0 -52 29 -86.5t77 -59.5t109.5 -44t126 -41t126 -51.5t109.5 -74t77.5 -109t29.5 -156.5q0 -100 -34.5 -188t-100.5 -153t-161.5 -102 t-217.5 -37q-71 0 -139.5 13.5t-131.5 39t-118.5 61.5t-98.5 80z" unicode="S" glyph-name="S" horiz-adv-x="1123"/>
<glyph d="M31 1254v227h1168v-227h-446v-1254h-276v1254h-446z" unicode="T" glyph-name="T" horiz-adv-x="1228"/>
<glyph d="M146 594v887h276v-886q0 -85 23 -153.5t66.5 -117.5t106.5 -75.5t143 -26.5t143 26.5t106 75t66 117t23 153.5v887h275v-887q0 -132 -42.5 -244t-122 -193.5t-193 -127t-255.5 -45.5q-143 0 -257 45.5t-193.5 127t-122 193.5t-42.5 244z" unicode="U" glyph-name="U" horiz-adv-x="1520"/>
<glyph d="M-11 1481h221q36 0 58.5 -17.5t33.5 -45.5l349 -903q17 -44 33 -96.5t31 -110.5q11 57 26 110t32 97l347 903q8 24 32.5 43.5t58.5 19.5h223l-598 -1481h-249z" unicode="V" glyph-name="V" horiz-adv-x="1422"/>
<glyph d="M17 1481h231q36 0 60 -17t32 -46l252 -886q8 -33 15.5 -71t16.5 -81q8 43 17.5 81.5t21.5 70.5l290 886q8 24 32.5 43.5t58.5 19.5h81q36 0 58.5 -17.5t34.5 -45.5l289 -886q22 -63 39 -146q13 81 30 146l252 886q6 26 31 44.5t60 18.5h216l-460 -1481h-249l-323 1012 q-7 19 -13.5 41.5t-12.5 47.5q-5 -25 -11.5 -47.5t-12.5 -41.5l-327 -1012h-250z" unicode="W" glyph-name="W" horiz-adv-x="2152"/>
<glyph d="M3 0l492 762l-472 719h274q29 0 41.5 -8t23.5 -25l336 -543q5 12 11.5 25t14.5 26l309 487q11 19 24.5 28.5t34.5 9.5h263l-476 -708l489 -773h-274q-29 0 -46 14.5t-27 32.5l-343 567q-7 -23 -20 -43l-328 -524q-12 -17 -28 -32t-42 -15h-257z" unicode="X" glyph-name="X" horiz-adv-x="1373"/>
<glyph d="M-13 1481h242q36 0 57 -17.5t36 -44.5l270 -494q24 -45 41.5 -84t32.5 -77q13 39 30.5 78t39.5 83l270 494q11 23 33.5 42.5t57.5 19.5h243l-539 -908v-573h-275v573z" unicode="Y" glyph-name="Y" horiz-adv-x="1327"/>
<glyph d="M41 0v109q0 20 7 39t19 35l761 1079h-739v219h1096v-102q0 -47 -27 -86l-760 -1073h769v-220h-1126z" unicode="Z" glyph-name="Z" horiz-adv-x="1240"/>
<glyph d="M169 -315v1899h420v-99q0 -27 -18.5 -46t-48.5 -19h-142v-1572h142q30 0 48.5 -18.5t18.5 -45.5v-99h-420z" unicode="[" glyph-name="bracketleft" horiz-adv-x="642"/>
<glyph d="M59 1522h109q45 0 79 -23t50 -66l598 -1530h-108q-40 0 -78 23.5t-56 70.5z" unicode="\" glyph-name="backslash" horiz-adv-x="954"/>
<glyph d="M53 -216q0 27 18.5 45.5t48.5 18.5h142v1572h-142q-30 0 -48.5 19t-18.5 46v99h420v-1899h-420v99z" unicode="]" glyph-name="bracketright" horiz-adv-x="642"/>
<glyph d="M101 697l407 784h164l414 -784h-185q-24 0 -39 12.5t-24 30.5l-195 394q-16 33 -28.5 62t-21.5 58q-9 -30 -20.5 -59t-25.5 -61l-185 -394q-8 -18 -24 -30.5t-42 -12.5h-195z" unicode="^" glyph-name="asciicircum"/>
<glyph d="M74 -137h807v-164h-807v164z" unicode="_" glyph-name="underscore" horiz-adv-x="955"/>
<glyph d="M82 1497h236q42 0 62.5 -14t35.5 -40l146 -249h-144q-29 0 -47 7.5t-36 28.5z" unicode="`" glyph-name="grave" horiz-adv-x="819"/>
<glyph d="M50 268q0 59 31.5 117t104 105t193.5 77.5t301 34.5v62q0 105 -45 155.5t-130 50.5q-61 0 -102 -14t-71.5 -32t-55.5 -32.5t-56 -14.5q-27 0 -45 14t-30 32l-45 81q181 166 437 166q92 0 164.5 -30t122.5 -84t76.5 -128.5t26.5 -163.5v-664h-115q-36 0 -55.5 11t-30.5 43 l-23 75q-40 -36 -77.5 -63t-78.5 -45.5t-87.5 -27.5t-103.5 -9q-67 0 -123 17.5t-97 53.5t-63.5 89.5t-22.5 123.5zM292 282q0 -67 39.5 -95.5t102.5 -28.5q78 0 135 28t111 85v178q-111 -5 -185 -19t-119 -35.5t-64.5 -50.5t-19.5 -62z" unicode="a" glyph-name="a" horiz-adv-x="1039"/>
<glyph d="M125 0v1522h253v-601q63 68 140.5 107t176.5 39q91 0 164.5 -36t125 -103t79.5 -162t28 -214q0 -128 -32 -232.5t-91 -178.5t-142 -115t-184 -41q-49 0 -89.5 9.5t-74 27t-61.5 42.5t-53 56l-12 -71q-6 -27 -21 -38t-40 -11h-167zM378 272q43 -53 93.5 -74t107.5 -21 q58 0 104.5 21t79.5 65.5t50 113.5t17 166q0 173 -57 250t-165 77q-73 0 -127 -33t-103 -94v-471z" unicode="b" glyph-name="b" horiz-adv-x="1162"/>
<glyph d="M69 527q0 116 33 215t97.5 171t160 113t219.5 41q118 0 206 -38t159 -108l-66 -93q-11 -14 -22 -22t-32 -8q-19 0 -37.5 11.5t-44 26.5t-61 26.5t-87.5 11.5q-67 0 -117 -24t-83.5 -69t-49.5 -109t-16 -145q0 -84 18 -149.5t51.5 -110t81.5 -67.5t109 -23q60 0 97.5 15 t63 33t44.5 32.5t43 14.5q31 0 46 -23l72 -92q-42 -49 -91 -82.5t-101.5 -53.5t-108.5 -28t-111 -8q-97 0 -183.5 36t-151 106t-101.5 170.5t-37 229.5z" unicode="c" glyph-name="c" horiz-adv-x="987"/>
<glyph d="M71 522q0 117 31.5 217.5t91 174t142.5 115t186 41.5q88 0 150.5 -28t111.5 -75v555h253v-1522h-154q-50 0 -64 46l-21 101q-33 -37 -69 -66.5t-77.5 -51t-89 -33t-102.5 -11.5q-86 0 -158 35.5t-123.5 104t-79.5 168.5t-28 229zM332 522q0 -92 14.5 -156t42.5 -104.5 t68 -58.5t89 -18q79 0 134 33t104 93v471q-43 52 -93.5 74t-108.5 22q-57 0 -103.5 -21.5t-79 -65t-50 -111t-17.5 -158.5z" unicode="d" glyph-name="d" horiz-adv-x="1162"/>
<glyph d="M68 548q0 108 34.5 202.5t99.5 164.5t158.5 111t211.5 41q99 0 183.5 -31.5t145 -92.5t94.5 -149.5t34 -202.5q0 -57 -12 -77t-47 -20h-651q6 -81 29 -140t59.5 -97.5t87.5 -57.5t112 -19t106 14.5t78 32t58 31.5t49 14q32 0 47 -23l73 -92q-42 -49 -94.5 -82.5 t-109 -53.5t-115.5 -28t-114 -8q-110 0 -204 36t-164 107.5t-109.5 176.5t-39.5 243zM325 646h477q0 49 -14 92.5t-41.5 76.5t-70 52t-98.5 19q-111 0 -173.5 -62.5t-79.5 -177.5z" unicode="e" glyph-name="e" horiz-adv-x="1093"/>
<glyph d="M42 938v103h157v78q0 90 27 162t77.5 122t123.5 76.5t164 26.5q73 0 135 -19l-5 -127q-1 -14 -8 -23t-19 -13.5t-27.5 -6t-32.5 -1.5q-45 0 -80.5 -10t-60 -34t-37.5 -63.5t-13 -97.5v-70h274v-180h-265v-861h-253v860l-91 14q-30 6 -48 21t-18 43z" unicode="f" glyph-name="f" horiz-adv-x="734"/>
<glyph d="M50 -92q0 73 44.5 123t121.5 80q-41 22 -65.5 57.5t-24.5 93.5q0 24 8 49t25 49.5t43 46.5t61 39q-80 43 -125.5 115t-45.5 168q0 78 31.5 141t87 107.5t132 68t166.5 23.5q68 0 126.5 -14t108.5 -40h303v-94q0 -45 -55 -56l-94 -17q10 -27 16 -56.5t6 -62.5 q0 -78 -31.5 -141t-87 -107t-130.5 -68t-162 -24q-59 0 -116 11q-49 -30 -49 -66q0 -32 29 -47t77.5 -21t110 -7.5t126 -6.5t125.5 -18t109.5 -40.5t77.5 -75t29 -122.5q0 -70 -34.5 -135.5t-99.5 -116.5t-159.5 -82.5t-215.5 -31.5q-119 0 -207 23t-146 61.5t-87 89 t-29 104.5zM270 -59q0 -28 14 -52t44 -41.5t78.5 -27t117.5 -9.5q71 0 122 10.5t84.5 29.5t49 45t15.5 57t-18.5 50t-50.5 30t-74.5 16t-90 7.5t-98 4.5t-98.5 9q-42 -24 -68.5 -55.5t-26.5 -73.5zM323 723q0 -37 11.5 -68.5t34.5 -54.5t58.5 -36t81.5 -13q47 0 82 13 t58 35.5t34.5 54t11.5 69.5q0 78 -46.5 123.5t-139.5 45.5t-139.5 -45.5t-46.5 -123.5z" unicode="g" glyph-name="g" horiz-adv-x="1081"/>
<glyph d="M125 0v1522h253v-585q61 58 135 94t173 36q86 0 152.5 -29t111 -82t67.5 -126t23 -161v-669h-253v669q0 96 -44 148.5t-134 52.5q-66 0 -123 -29.5t-108 -80.5v-760h-253z" unicode="h" glyph-name="h" horiz-adv-x="1155"/>
<glyph d="M98 1357q0 34 13 63.5t34.5 51t50.5 34.5t62 13q34 0 63.5 -13t51.5 -34.5t35.5 -51t13.5 -63.5q0 -33 -13.5 -61.5t-35.5 -50t-51.5 -34.5t-63.5 -13q-33 0 -62 13t-50.5 34.5t-34.5 50t-13 61.5zM133 0v1051h254v-1051h-254z" unicode="i" glyph-name="i" horiz-adv-x="520"/>
<glyph d="M-78 -349l9 136q3 20 16.5 26t51.5 6t64 7.5t41.5 24.5t22 44.5t6.5 68.5v1087h254v-1087q0 -69 -18 -129t-57.5 -105.5t-103.5 -72t-156 -26.5q-36 0 -66.5 5t-63.5 15zM98 1357q0 34 13 63.5t34.5 51t50 34.5t61.5 13q34 0 64 -13t52 -34.5t35.5 -51t13.5 -63.5 q0 -33 -13.5 -61.5t-35.5 -50t-52 -34.5t-64 -13q-33 0 -61.5 13t-50 34.5t-34.5 50t-13 61.5z" unicode="j" glyph-name="j" horiz-adv-x="520"/>
<glyph d="M125 0v1522h253v-872h47q26 0 40.5 7t30.5 27l261 323q16 22 36 33t52 11h231l-326 -391q-35 -46 -76 -70q22 -15 38.5 -35.5t31.5 -44.5l351 -510h-229q-30 0 -51 9.5t-36 35.5l-268 398q-14 24 -29.5 31t-46.5 7h-57v-481h-253z" unicode="k" glyph-name="k" horiz-adv-x="1094"/>
<glyph d="M128 0v1522h253v-1522h-253z" unicode="l" glyph-name="l" horiz-adv-x="508"/>
<glyph d="M125 0v1051h155q49 0 64 -46l16 -78q28 31 58.5 56.5t64.5 44t73.5 29t86.5 10.5q99 0 163 -54t96 -143q25 52 61.5 89.5t81 61t94 35t99.5 11.5q87 0 154.5 -26.5t113.5 -78t70.5 -125t24.5 -168.5v-669h-253v669q0 100 -44 150.5t-129 50.5q-39 0 -72.5 -13t-58.5 -38 t-39.5 -63t-14.5 -87v-669h-254v669q0 105 -42.5 153t-124.5 48q-55 0 -102.5 -27t-88.5 -74v-769h-253z" unicode="m" glyph-name="m" horiz-adv-x="1715"/>
<glyph d="M125 0v1051h155q49 0 64 -46l17 -83q32 33 67.5 59.5t75 46t84.5 29.5t98 10q86 0 152.5 -29t111 -82t67.5 -126t23 -161v-669h-253v669q0 96 -44 148.5t-134 52.5q-66 0 -123 -29.5t-108 -80.5v-760h-253z" unicode="n" glyph-name="n" horiz-adv-x="1155"/>
<glyph d="M69 527q0 124 37 224.5t105.5 170t164.5 107.5t214 38q117 0 212.5 -38t163.5 -107.5t105 -170t37 -224.5q0 -125 -37 -225t-105 -171t-163.5 -108.5t-212.5 -37.5q-118 0 -214 37.5t-164.5 108.5t-105.5 171t-37 225zM329 525q0 -169 64 -257.5t197 -88.5q131 0 194 88 t63 258t-63 259t-194 89q-133 0 -197 -89.5t-64 -258.5z" unicode="o" glyph-name="o" horiz-adv-x="1176"/>
<glyph d="M125 -343v1394h155q49 0 64 -46l21 -98q63 73 145.5 118t192.5 45q86 0 157.5 -36t123 -104t80 -167.5t28.5 -228.5q0 -118 -32 -218.5t-91 -174t-142.5 -115t-186.5 -41.5q-89 0 -151 27t-111 75v-430h-253zM378 272q43 -53 93.5 -74t110.5 -21q57 0 103 21.5t78.5 65.5 t49.5 111t17 159t-14.5 156t-42.5 104t-67.5 58t-89.5 18q-79 0 -134.5 -33t-103.5 -94v-471z" unicode="p" glyph-name="p" horiz-adv-x="1163"/>
<glyph d="M71 522q0 117 31.5 217.5t91 174t142.5 115t186 41.5q49 0 89.5 -8.5t75 -25t63 -39.5t55.5 -52l14 60q13 46 64 46h154v-1394h-253v475q-32 -34 -67 -61t-75 -46t-85 -29.5t-97 -10.5q-86 0 -158 35.5t-123.5 104t-79.5 168.5t-28 229zM332 522q0 -92 14.5 -156 t42.5 -104.5t68 -58.5t89 -18q79 0 134 33t104 93v471q-43 52 -93.5 74t-108.5 22q-57 0 -103.5 -21.5t-79 -65t-50 -111t-17.5 -158.5z" unicode="q" glyph-name="q" horiz-adv-x="1162"/>
<glyph d="M125 0v1051h148q39 0 54.5 -14t20.5 -50l14 -119q50 94 118 148t160 54q73 0 117 -32l-17 -189q-5 -18 -14.5 -26t-26.5 -8q-15 0 -45 5t-59 5q-42 0 -75 -12t-59 -35t-46 -56t-37 -75v-647h-253z" unicode="r" glyph-name="r" horiz-adv-x="763"/>
<glyph d="M50 113l59 96q11 17 26.5 26.5t38.5 9.5q24 0 45 -13.5t48.5 -29t65 -28.5t94.5 -13q45 0 77.5 10.5t53.5 28t30.5 40.5t9.5 48q0 37 -22 60.5t-58.5 41t-83 31t-95 30t-95 38.5t-83 56t-58.5 83t-22 118q0 65 25.5 123.5t75 102t124 69.5t171.5 26q109 0 198 -36 t148 -94l-57 -91q-10 -16 -21.5 -23t-28.5 -7q-18 0 -39.5 10.5t-49 23t-63 23t-83.5 10.5q-75 0 -117 -32t-42 -83q0 -34 22 -57t58 -40.5t82 -31t94 -30t94 -37.5t82.5 -53.5t58.5 -77.5t22 -108q0 -76 -27.5 -140t-80.5 -110.5t-131.5 -72.5t-180.5 -26q-54 0 -106 9.5 t-99.5 27t-88 41t-71.5 51.5z" unicode="s" glyph-name="s" horiz-adv-x="900"/>
<glyph d="M35 914v101l169 27l53 287q5 20 19.5 31.5t36.5 11.5h131v-331h281v-180h-281v-569q0 -49 24.5 -77t66.5 -28q24 0 39.5 6t27 12t21 11.5t18.5 5.5q11 0 18.5 -5.5t15.5 -16.5l76 -123q-55 -46 -127 -69.5t-149 -23.5q-137 0 -210.5 77t-73.5 213v587h-107 q-20 0 -34.5 13.5t-14.5 39.5z" unicode="t" glyph-name="t" horiz-adv-x="761"/>
<glyph d="M115 383v668h253v-668q0 -96 44.5 -149t133.5 -53q66 0 123 29.5t108 80.5v760h253v-1051h-154q-50 0 -64 46l-17 84q-33 -33 -68 -60t-75 -46.5t-85 -29.5t-98 -10q-86 0 -152 29t-111 82t-68 126.5t-23 161.5z" unicode="u" glyph-name="u" horiz-adv-x="1155"/>
<glyph d="M9 1051h209q29 0 48 -13.5t25 -33.5l203 -562q16 -49 28 -96t22 -94q10 47 22.5 94t29.5 96l207 562q7 20 25.5 33.5t43.5 13.5h200l-417 -1051h-229z" unicode="v" glyph-name="v" horiz-adv-x="1081"/>
<glyph d="M18 1051h202q28 0 47.5 -13.5t25.5 -33.5l150 -562q11 -46 19.5 -90t15.5 -87q11 43 24 87t27 90l174 564q6 20 24 33.5t44 13.5h112q27 0 45.5 -13.5t24.5 -33.5l169 -564q13 -47 25 -91t22 -88q8 44 17.5 88t21.5 91l155 562q7 20 25.5 33.5t44.5 13.5h192l-334 -1051 h-202q-35 0 -49 45l-188 607q-19 62 -30 121q-12 -61 -30 -123l-192 -605q-12 -45 -54 -45h-195z" unicode="w" glyph-name="w" horiz-adv-x="1643"/>
<glyph d="M6 0l360 542l-346 509h244q28 0 41 -8t24 -25l220 -351q5 17 12.5 34.5t19.5 34.5l177 277q23 38 58 38h233l-347 -498l361 -553h-244q-28 0 -44.5 14.5t-28.5 32.5l-223 366q-9 -37 -25 -62l-197 -304q-11 -17 -27.5 -32t-41.5 -15h-226z" unicode="x" glyph-name="x" horiz-adv-x="1069"/>
<glyph d="M6 1051h222q30 0 47 -14.5t25 -32.5l223 -545q20 -56 34 -112q8 29 18 57t21 56l211 544q8 20 27 33.5t43 13.5h202l-572 -1340q-11 -27 -29 -40.5t-55 -13.5h-189l197 421z" unicode="y" glyph-name="y" horiz-adv-x="1080"/>
<glyph d="M53 0v105q0 17 8.5 41.5t24.5 46.5l504 664h-507v194h797v-105q0 -27 -9.5 -52.5t-24.5 -41.5l-500 -657h518v-195h-811z" unicode="z" glyph-name="z" horiz-adv-x="941"/>
<glyph d="M58 561v147q65 0 94 39t29 102q0 48 -6.5 95.5t-15 96t-15.5 97t-7 98.5q0 78 22.5 142t69 110t118 71t167.5 25h54v-113q0 -13 -5.5 -22.5t-14 -16t-18 -9.5t-16.5 -3h-9q-72 0 -110 -45t-38 -124q0 -56 6.5 -107.5t13 -100.5t12.5 -96t6 -95q0 -39 -10.5 -74t-31.5 -63 t-50.5 -49.5t-65.5 -31.5q37 -11 66 -32t50 -50t31.5 -63.5t10.5 -72.5q0 -48 -6 -95.5t-12.5 -96t-13 -100t-6.5 -108.5q0 -78 38 -123t110 -45h9q7 0 16.5 -3t18 -9t14 -16t5.5 -24v-111h-54q-96 0 -167.5 25t-118 70.5t-69 109.5t-22.5 142q0 50 7 98.5t15.5 96.5 t15 96.5t6.5 96.5q0 62 -29 101.5t-94 39.5z" unicode="{" glyph-name="braceleft" horiz-adv-x="626"/>
<glyph d="M169 -352v1936h197v-1936h-197z" unicode="|" glyph-name="bar" horiz-adv-x="534"/>
<glyph d="M58 -204q0 13 6 23.5t14.5 16.5t17.5 9t17 3h9q72 0 109 45.5t37 122.5q0 56 -5.5 108t-12.5 100.5t-13 96t-6 95.5q0 38 11 72.5t31.5 63.5t50 50t66.5 32q-37 10 -66.5 31.5t-50 49.5t-31.5 63t-11 74q0 48 6 95t13 96t12.5 100.5t5.5 107.5q0 79 -37 124t-109 45h-9 q-7 0 -16.5 3t-18 9.5t-14.5 16t-6 22.5v113h55q96 0 167 -25t117.5 -71t69 -110t22.5 -142q0 -50 -6.5 -98.5t-15 -97t-15.5 -96t-7 -95.5q0 -62 29.5 -101.5t93.5 -39.5v-147q-65 0 -94 -39.5t-29 -101.5q0 -48 7 -96.5t15.5 -96.5t15 -96.5t6.5 -98.5q0 -78 -22.5 -142 t-69 -109.5t-117.5 -70.5t-167 -25h-55v111z" unicode="}" glyph-name="braceright" horiz-adv-x="626"/>
<glyph d="M103 408q0 79 21 142.5t60.5 109.5t97 70.5t131.5 24.5q54 0 103.5 -14.5t94 -31.5t83.5 -31t72 -14q57 0 89 36.5t32 103.5h204q0 -79 -21 -143t-60.5 -109.5t-97 -70t-131.5 -24.5q-54 0 -103.5 14t-94 31t-83.5 31.5t-72 14.5q-57 0 -89 -37t-32 -103h-204z" unicode="~" glyph-name="asciitilde"/>
<glyph unicode=" " glyph-name="uni00A0" horiz-adv-x="497"/>
<glyph d="M121 525q0 112 34 208.5t100.5 168.5t162.5 115t221 48l14 161q3 24 21 43.5t48 19.5h93l-20 -234q81 -14 146.5 -48.5t120.5 -85.5l-65 -90q-10 -14 -20.5 -21t-30.5 -7q-14 0 -30 6.5t-35.5 17t-44.5 20.5t-58 18l-59 -689q54 5 90.5 20t62.5 30.5t45.5 27.5t40.5 12 q30 0 47 -21l69 -90q-73 -83 -169.5 -121.5t-202.5 -45.5l-12 -151q-2 -25 -20.5 -44.5t-46.5 -19.5h-94l19 219q-91 13 -169.5 55t-136 109.5t-89.5 160.5t-32 208zM371 525q0 -137 50 -221.5t143 -114.5l59 683q-128 -16 -190 -106t-62 -241z" unicode="¢" glyph-name="cent"/>
<glyph d="M38 614v81q0 35 21 60t64 25h109v242q0 96 29.5 182.5t88 151.5t146.5 103t206 38q81 0 146 -21t116 -57t88.5 -84.5t64.5 -104.5l-101 -65q-36 -18 -68.5 -16t-58.5 33q-19 23 -38.5 41.5t-41 32.5t-47.5 21t-60 7q-105 0 -157 -69t-52 -192v-243h418v-100 q0 -25 -20.5 -45.5t-50.5 -20.5h-347v-198q0 -68 -25.5 -120.5t-68.5 -97.5q37 8 74 12.5t76 4.5h600v-106q0 -18 -7.5 -38t-22 -36t-35 -25.5t-45.5 -9.5h-981v159q34 8 66 23t56 38t38 54t14 73v267h-194z" unicode="£" glyph-name="sterling"/>
<glyph d="M14 1481h211q36 0 59 -16.5t34 -45.5l224 -499q18 -46 31.5 -85t22.5 -77q8 39 20.5 77t30.5 85l222 499q11 24 34 43t58 19h213l-409 -833h283v-141h-327v-97h327v-141h-327v-269h-254v269h-327v141h327v97h-327v141h282z" unicode="¥" glyph-name="yen"/>
<glyph d="M61 1323q0 30 11.5 56t30.5 45.5t44 30.5t53 11q30 0 56 -11t46 -30.5t31 -45.5t11 -56q0 -29 -11 -54t-31 -43.5t-46.5 -29t-55.5 -10.5q-28 0 -53 10.5t-44 29t-30.5 43.5t-11.5 54zM475 1323q0 30 11.5 56t30.5 45.5t44.5 30.5t53.5 11q30 0 56 -11t45 -30.5 t30.5 -45.5t11.5 -56q0 -29 -11.5 -54t-30.5 -43.5t-45 -29t-56 -10.5q-29 0 -54 10.5t-44 29t-30.5 43.5t-11.5 54z" unicode="¨" glyph-name="dieresis" horiz-adv-x="819"/>
<glyph d="M88 740q0 104 27 201t76.5 181t118.5 153.5t152.5 118.5t179.5 76t201 27q104 0 201 -27t181 -76t153 -118.5t118 -153.5t76 -180.5t27 -201.5q0 -103 -27 -200t-76 -180.5t-118 -152.5t-153 -118t-181 -76t-201 -27t-200.5 27t-180 76t-152.5 118t-118.5 152.5 t-76.5 180t-27 200.5zM226 740q0 -133 48 -248.5t130.5 -201t195.5 -135t243 -49.5q87 0 167 23t149 63.5t125.5 98t96.5 128t62 151.5t22 170t-22 171t-62 153.5t-96.5 129t-125.5 99t-149 64t-167 22.5t-166 -22.5t-147.5 -64t-124.5 -99t-96 -129t-61.5 -153.5 t-21.5 -171zM396 743q0 104 36 191.5t99.5 150.5t149 98t185.5 35q114 0 196 -38.5t137 -98.5l-66 -91q-6 -8 -17 -16t-27 -8q-17 0 -33 10t-38 22.5t-54.5 22.5t-84.5 10q-61 0 -109 -20t-81.5 -57.5t-50.5 -90.5t-17 -120q0 -70 17.5 -123t49 -89t75 -55t95.5 -19 q50 0 82.5 8t54.5 19.5t39.5 22.5t40.5 17q20 0 36 -17l84 -89q-57 -73 -144.5 -111.5t-205.5 -38.5q-102 0 -185 36.5t-141.5 100.5t-90.5 150.5t-32 187.5z" unicode="©" glyph-name="copyright" horiz-adv-x="1687"/>
<glyph d="M92 129zM92 535v32l262 406l83 -39q33 -14 38 -41.5t-12 -57.5l-141 -241q-14 -27 -33 -43q16 -14 33 -43l141 -242q17 -31 12 -57.5t-38 -40.5l-83 -39zM429 535v32l262 406l83 -39q33 -14 38 -41.5t-12 -57.5l-141 -241q-14 -27 -33 -43q16 -14 33 -43l141 -242 q17 -31 12 -57.5t-38 -40.5l-83 -39z" unicode="«" glyph-name="guillemotleft" horiz-adv-x="932"/>
<glyph d="M117 513v211h530v-211h-530z" unicode="­" glyph-name="uni00AD" horiz-adv-x="763"/>
<glyph d="M88 740q0 104 27 201t76.5 181t118.5 153.5t152.5 118.5t179.5 76t201 27q104 0 201 -27t181 -76t153 -118.5t118 -153.5t76 -180.5t27 -201.5q0 -103 -27 -200t-76 -180.5t-118 -152.5t-153 -118t-181 -76t-201 -27t-200.5 27t-180 76t-152.5 118t-118.5 152.5 t-76.5 180t-27 200.5zM226 740q0 -133 48 -248.5t130.5 -201t195.5 -135t243 -49.5q87 0 167 23t149 63.5t125.5 98t96.5 128t62 151.5t22 170t-22 171t-62 153.5t-96.5 129t-125.5 99t-149 64t-167 22.5t-166 -22.5t-147.5 -64t-124.5 -99t-96 -129t-61.5 -153.5 t-21.5 -171zM509 284v918h330q191 0 280 -68.5t89 -196.5q0 -91 -47 -159t-146 -100q23 -13 38.5 -33t29.5 -47l186 -314h-210q-46 0 -65 33l-147 270q-10 14 -23 21.5t-39 7.5h-56v-332h-220zM729 773h90q53 0 86.5 9t52.5 26t26 43t7 58t-6 56t-23 40t-46.5 23.5 t-76.5 7.5h-110v-263z" unicode="®" glyph-name="registered" horiz-adv-x="1687"/>
<glyph d="M275 1194l146 249q15 27 35.5 40.5t61.5 13.5h246l-253 -267q-19 -20 -37 -28t-47 -8h-152z" unicode="´" glyph-name="acute" horiz-adv-x="819"/>
<glyph d="M234 -342l24 79q6 23 30 23q14 0 31 -7.5t50 -7.5q34 0 50.5 13t16.5 31q0 30 -37 42.5t-113 24.5l61 180h141l-27 -98q96 -23 135 -61.5t39 -91.5q0 -35 -18 -62.5t-51.5 -47t-79.5 -30t-101 -10.5q-42 0 -78.5 6t-72.5 17z" unicode="¸" glyph-name="cedilla" horiz-adv-x="819"/>
<glyph d="M115 129zM120.5 209q-5.5 27 11.5 57l142 242q8 13 16 24t17 19q-9 8 -16.5 18.5t-16.5 24.5l-142 241q-17 31 -11.5 58t38.5 41l83 39l262 -406v-32l-262 -406l-83 39q-33 14 -38.5 41zM457.5 209q-5.5 27 11.5 57l142 242q8 13 16 24t17 19q-9 8 -16.5 18.5t-16.5 24.5 l-142 241q-17 31 -11.5 58t38.5 41l83 39l262 -406v-32l-262 -406l-83 39q-33 14 -38.5 41z" unicode="»" glyph-name="guillemotright" horiz-adv-x="932"/>
<glyph d="M165 0v1481h934v-219h-658v-411h518v-212h-518v-419h658v-220h-934zM165 0zM214 1906h265q20 0 35 -1t27 -6t22 -13t22 -22l223 -278h-184q-30 0 -46.5 3.5t-37.5 21.5z" unicode="Ѐ" glyph-name="uni0400" horiz-adv-x="1177"/>
<glyph d="M165 0v1481h934v-219h-658v-411h518v-212h-518v-419h658v-220h-934zM165 0zM285 1707q0 28 11.5 53t29.5 44t42.5 30t50.5 11q29 0 54.5 -11t44.5 -30t30.5 -44t11.5 -53t-11.5 -52.5t-30.5 -43t-44.5 -28.5t-54.5 -10q-27 0 -51 10t-42 28.5t-29.5 43t-11.5 52.5z M736 1707q0 28 10.5 53t29 44t43.5 30t54 11q28 0 53 -11t44 -30t29.5 -44t10.5 -53t-10.5 -52.5t-29.5 -43t-44 -28.5t-53 -10q-29 0 -54 10t-43.5 28.5t-29 43t-10.5 52.5z" unicode="Ё" glyph-name="afii10023" horiz-adv-x="1177"/>
<glyph d="M28 1263v218h1094v-218h-428v-395h278q144 0 247 -31.5t168 -86.5t95.5 -129t30.5 -159q0 -104 -36 -189.5t-105.5 -146t-170.5 -93.5t-230 -33h-88v215h88q77 0 128.5 17t83 46.5t45 69.5t13.5 86q0 50 -13.5 91t-44.5 69.5t-82.5 43.5t-128.5 15h-278v-653h-275v1263 h-391z" unicode="Ђ" glyph-name="afii10051" horiz-adv-x="1540"/>
<glyph d="M165 0v1481h913v-212h-637v-1269h-276zM165 0zM461 1586l214 278q10 14 20.5 22.5t22.5 13t27 5.5t35 1h282l-332 -293q-20 -18 -38.5 -22.5t-47.5 -4.5h-183z" unicode="Ѓ" glyph-name="afii10052" horiz-adv-x="1108"/>
<glyph d="M79 740q0 167 53 306t150 239t231 156t297 56q162 0 287.5 -53t213.5 -139l-92 -128q-8 -12 -21 -21.5t-36 -9.5q-15 0 -31.5 8.5t-36 21.5t-45 28.5t-59.5 28t-78.5 21.5t-102.5 9q-87 0 -162 -27.5t-132 -79.5t-95 -128.5t-52 -173.5h683v-205h-685q12 -103 51 -183.5 t98 -136t134.5 -84t160.5 -28.5q56 0 101.5 6t84 19.5t73 34.5t68.5 52q10 9 21.5 14.5t23.5 5.5q23 0 40 -17l108 -118q-90 -112 -221.5 -171t-315.5 -59q-165 0 -296.5 56t-225 156.5t-143 239.5t-49.5 304z" unicode="Є" glyph-name="afii10053" horiz-adv-x="1369"/>
<glyph d="M47 178l81 132q10 14 26.5 24t34.5 10q26 0 55.5 -21t70.5 -46.5t96 -46.5t132 -21q118 0 182.5 56t64.5 160q0 58 -29.5 95t-77.5 62t-109.5 42.5t-125 38t-125 49t-109.5 75t-77 115.5t-29 170q0 81 32 158t93.5 136t151.5 95t207 36q131 0 241.5 -41t188.5 -115 l-69 -130q-12 -22 -26 -31.5t-34 -9.5q-22 0 -47 16t-59.5 35.5t-81.5 35.5t-110 16q-57 0 -100 -14t-72.5 -38.5t-43.5 -59t-14 -75.5q0 -52 29 -86.5t77 -59.5t109.5 -44t126 -41t126 -51.5t109.5 -74t77.5 -109t29.5 -156.5q0 -100 -34.5 -188t-100.5 -153t-161.5 -102 t-217.5 -37q-71 0 -139.5 13.5t-131.5 39t-118.5 61.5t-98.5 80z" unicode="Ѕ" glyph-name="afii10054" horiz-adv-x="1123"/>
<glyph d="M165 0v1481h276v-1481h-276z" unicode="І" glyph-name="afii10055" horiz-adv-x="607"/>
<glyph d="M-55 1707q0 28 11.5 53t29.5 44t42.5 30t50.5 11q29 0 54.5 -11t44.5 -30t30.5 -44t11.5 -53t-11.5 -52.5t-30.5 -43t-44.5 -28.5t-54.5 -10q-27 0 -51 10t-42 28.5t-29.5 43t-11.5 52.5zM0 0zM165 0v1481h276v-1481h-276zM396 1707q0 28 10.5 53t29 44t43.5 30t54 11 q28 0 53 -11t44 -30t29.5 -44t10.5 -53t-10.5 -52.5t-29.5 -43t-44 -28.5t-53 -10q-29 0 -54 10t-43.5 28.5t-29 43t-10.5 52.5z" unicode="Ї" glyph-name="afii10056" horiz-adv-x="607"/>
<glyph d="M23 11q3 41 7 82t7 82q3 23 18 36.5t42 13.5q17 0 45.5 -7t71.5 -7q58 0 103 17t75.5 53.5t46 95.5t15.5 143v961h275v-955q0 -125 -30.5 -225t-91.5 -171t-152 -108.5t-212 -37.5q-55 0 -108.5 6.5t-111.5 20.5z" unicode="Ј" glyph-name="afii10057" horiz-adv-x="879"/>
<glyph d="M-4 37v172h79q27 0 54 6t54 26t53 58t50 102t45 157t38 224t30 303.5t19 395.5h941v-613h240q144 0 247.5 -31.5t169 -86.5t95.5 -129t30 -159q0 -104 -36.5 -189.5t-105.5 -146t-169.5 -93.5t-230.5 -33h-518v1269h-404q-14 -279 -40.5 -482t-63 -346t-83 -232 t-101.5 -139t-118.5 -67.5t-133.5 -17.5q-74 0 -107.5 13t-33.5 39zM1359 215h240q77 0 129 17t83 46.5t45 69.5t14 86q0 50 -13.5 91t-45 69.5t-83.5 43.5t-129 15h-240v-438z" unicode="Љ" glyph-name="afii10058" horiz-adv-x="2184"/>
<glyph d="M165 0v1481h276v-637h696v637h276v-613h242q144 0 247 -31.5t168 -86.5t95.5 -129t30.5 -159q0 -104 -36 -189.5t-105.5 -146t-170.5 -93.5t-230 -33h-517v647h-696v-647h-276zM1413 215h241q77 0 128.5 17t83 46.5t45 69.5t13.5 86q0 50 -13.5 91t-44.5 69.5t-82.5 43.5 t-128.5 15h-242v-438z" unicode="Њ" glyph-name="afii10059" horiz-adv-x="2239"/>
<glyph d="M28 1263v218h1094v-218h-428v-403q118 29 221.5 43.5t191 8.5t156.5 -33t118 -81.5t74.5 -137.5t25.5 -200v-461h-277v462q0 85 -20.5 141.5t-76 83.5t-155.5 21.5t-258 -42.5v-665h-275v1263h-391z" unicode="Ћ" glyph-name="afii10060" horiz-adv-x="1551"/>
<glyph d="M165 0v1481h275v-621h140q42 0 72.5 14.5t57.5 53.5l324 479q20 33 48 53.5t67 20.5h235l-402 -594q-26 -39 -60 -64.5t-74 -40.5q61 -17 103.5 -54.5t81.5 -102.5l388 -625h-250q-39 0 -65 20.5t-48 60.5l-316 498q-12 22 -26 35.5t-29.5 22t-35.5 11.5t-46 3h-165v-651 h-275zM165 0zM578 1586l214 278q10 14 20.5 22.5t22.5 13t27 5.5t35 1h282l-332 -293q-20 -18 -38.5 -22.5t-47.5 -4.5h-183z" unicode="Ќ" glyph-name="afii10061" horiz-adv-x="1425"/>
<glyph d="M165 0v1481h276v-928q0 -52 -3 -110.5t-11 -123.5q20 57 44.5 106.5t47.5 87.5l565 883q9 15 22 30.5t28.5 27t33.5 19.5t38 8h207v-1481h-276v928q0 52 2.5 109t10.5 121q-20 -56 -44 -104.5t-46 -85.5l-566 -883q-9 -15 -22 -30.5t-28.5 -27.5t-34 -19.5t-37.5 -7.5 h-207zM165 0zM369 1906h265q20 0 35 -1t27 -6t22 -13t22 -22l223 -278h-184q-30 0 -46.5 3.5t-37.5 21.5z" unicode="Ѝ" glyph-name="uni040D" horiz-adv-x="1577"/>
<glyph d="M-14 1481h258q36 0 57.5 -17.5t35.5 -44.5l288 -542q47 -87 74 -180q13 46 31 90t39 90l251 542q11 23 33.5 42.5t57.5 19.5h228l-598 -1275q-32 -67 -67.5 -110t-77 -67.5t-89 -34t-101.5 -9.5q-74 0 -108 13t-34 39v172h80q23 0 46.5 4t46.5 16.5t44.5 35t39.5 59.5 l59 117zM355 1782q0 27 13 49t40 22h149q0 -47 6 -77.5t21.5 -48.5t40.5 -25t64 -7q38 0 63.5 7t41 25t21.5 48.5t6 77.5h150q27 0 39.5 -22.5t12.5 -48.5q0 -52 -23.5 -92t-67.5 -67t-105.5 -40.5t-137.5 -13.5t-137.5 13.5t-105.5 40.5t-67.5 67t-23.5 92z" unicode="Ў" glyph-name="afii10062" horiz-adv-x="1319"/>
<glyph d="M165 0v1481h276v-1269h643v1269h278v-1481h-473v-273q0 -36 -24 -57.5t-63 -21.5h-165v352h-472z" unicode="Џ" glyph-name="afii10145" horiz-adv-x="1526"/>
<glyph d="M-14 0l581 1481h282l582 -1481h-213q-36 0 -58.5 18t-34.5 44l-110 303h-614l-110 -303q-8 -24 -31.5 -43t-59.5 -19h-214zM472 559h472l-180 493q-13 33 -27.5 77.5t-28.5 96.5q-14 -52 -28 -97.5t-28 -78.5z" unicode="А" glyph-name="afii10017" horiz-adv-x="1416"/>
<glyph d="M165 0v1481h1004v-213h-729v-400h242q144 0 247 -31.5t168 -86.5t96 -129t31 -159q0 -104 -36.5 -189.5t-106 -146t-170.5 -93.5t-230 -33h-516zM440 215h241q77 0 128.5 17t83.5 46.5t45 69.5t13 86q0 50 -13 91t-45 69.5t-83 43.5t-128 15h-242v-438z" unicode="Б" glyph-name="afii10018" horiz-adv-x="1289"/>
<glyph d="M165 0v1481h510q145 0 248.5 -28t169.5 -79t97 -123.5t31 -164.5q0 -52 -15.5 -99.5t-48 -89t-82 -75.5t-118.5 -57q305 -69 306 -330q0 -94 -36 -174t-104.5 -137.5t-169 -90.5t-229.5 -33h-559zM440 215h279q77 0 129 18.5t83.5 49t45 71.5t13.5 87q0 48 -15.5 86.5 t-48 66t-84 41.5t-124.5 14h-278v-434zM440 840h219q141 0 213.5 51t72.5 163q0 116 -65.5 165t-204.5 49h-235v-428z" unicode="В" glyph-name="afii10019" horiz-adv-x="1348"/>
<glyph d="M165 0v1481h913v-212h-637v-1269h-276z" unicode="Г" glyph-name="afii10020" horiz-adv-x="1108"/>
<glyph d="M14 212h161q29 15 57.5 49t55 95.5t50.5 155t43.5 229.5t33.5 318.5t21 421.5h941v-1269h231v-485q0 -36 -24 -57.5t-63 -21.5h-166v352h-1088v-273q0 -36 -24 -57.5t-63 -21.5h-166v564zM479 212h622v1057h-405q-12 -218 -33 -387t-48.5 -297t-62 -219.5t-73.5 -153.5z " unicode="Д" glyph-name="afii10021" horiz-adv-x="1654"/>
<glyph d="M165 0v1481h934v-219h-658v-411h518v-212h-518v-419h658v-220h-934z" unicode="Е" glyph-name="afii10022" horiz-adv-x="1177"/>
<glyph d="M2 0l387 628q36 62 78.5 99t96.5 55q-46 17 -77.5 48.5t-61.5 78.5l-382 572h218q42 0 77.5 -20.5t56.5 -57.5l303 -469q28 -45 61 -59.5t75 -14.5h130v621h259v-621h131q42 0 74 14.5t61 59.5l302 469q22 37 57 57.5t78 20.5h217l-382 -572q-30 -47 -62 -78t-77 -49 q54 -18 97 -55t79 -99l386 -628h-183q-60 0 -103 26t-68 69l-303 474q-28 45 -61.5 63.5t-86.5 18.5h-156v-651h-259v651h-157q-51 0 -85.5 -18.5t-61.5 -63.5l-303 -474q-26 -43 -68.5 -69t-102.5 -26h-184z" unicode="Ж" glyph-name="afii10024" horiz-adv-x="2187"/>
<glyph d="M24 180l80 132q11 14 27 24t36 10q27 0 58.5 -21t76.5 -46.5t107 -46.5t149 -21q138 0 214 59.5t76 182.5q0 50 -20.5 90t-58.5 67.5t-91.5 42.5t-119.5 15h-209l-1 221h191q128 0 200 50.5t72 146.5q0 85 -68 136t-197 51q-75 0 -128.5 -16.5t-93 -35.5t-67 -35.5 t-48.5 -16.5q-20 0 -34.5 10.5t-27.5 30.5l-67 131q86 74 204 115t263 41q120 0 216.5 -28.5t164 -80.5t104 -123t36.5 -156q0 -104 -48 -189t-143 -138q51 -25 93.5 -58t72.5 -73.5t47 -87.5t17 -99q0 -100 -37.5 -187.5t-108.5 -152t-174.5 -101.5t-236.5 -37 q-78 0 -152 13.5t-142 39.5t-127 61.5t-105 79.5z" unicode="З" glyph-name="afii10025" horiz-adv-x="1190"/>
<glyph d="M165 0v1481h276v-928q0 -52 -3 -110.5t-11 -123.5q20 57 44.5 106.5t47.5 87.5l565 883q9 15 22 30.5t28.5 27t33.5 19.5t38 8h207v-1481h-276v928q0 52 2.5 109t10.5 121q-20 -56 -44 -104.5t-46 -85.5l-566 -883q-9 -15 -22 -30.5t-28.5 -27.5t-34 -19.5t-37.5 -7.5 h-207z" unicode="И" glyph-name="afii10026" horiz-adv-x="1577"/>
<glyph d="M165 0v1481h276v-928q0 -52 -3 -110.5t-11 -123.5q20 57 44.5 106.5t47.5 87.5l565 883q9 15 22 30.5t28.5 27t33.5 19.5t38 8h207v-1481h-276v928q0 52 2.5 109t10.5 121q-20 -56 -44 -104.5t-46 -85.5l-566 -883q-9 -15 -22 -30.5t-28.5 -27.5t-34 -19.5t-37.5 -7.5 h-207zM165 0zM468 1782q0 27 12.5 49t39.5 22h150q0 -47 6 -77.5t21.5 -48.5t40.5 -25t64 -7q38 0 63.5 7t40.5 25t21.5 48.5t6.5 77.5h149q27 0 39.5 -22.5t12.5 -48.5q0 -52 -23.5 -92t-67.5 -67t-105.5 -40.5t-136.5 -13.5q-76 0 -137.5 13.5t-105.5 40.5t-67.5 67 t-23.5 92z" unicode="Й" glyph-name="afii10027" horiz-adv-x="1577"/>
<glyph d="M165 0v1481h275v-621h140q42 0 72.5 14.5t57.5 53.5l324 479q20 33 48 53.5t67 20.5h235l-402 -594q-26 -39 -60 -64.5t-74 -40.5q61 -17 103.5 -54.5t81.5 -102.5l388 -625h-250q-39 0 -65 20.5t-48 60.5l-316 498q-12 22 -26 35.5t-29.5 22t-35.5 11.5t-46 3h-165v-651 h-275z" unicode="К" glyph-name="afii10028" horiz-adv-x="1425"/>
<glyph d="M-4 37v172h79q27 0 54 6t54 26t53 58t50 102t45 157t38 224t30 303.5t19 395.5h941v-1481h-278v1269h-404q-14 -279 -40.5 -482t-63 -346t-83 -232t-101.5 -139t-118.5 -67.5t-133.5 -17.5q-74 0 -107.5 13t-33.5 39z" unicode="Л" glyph-name="afii10029" horiz-adv-x="1523"/>
<glyph d="M165 0v1481h208q18 0 31.5 -1t24 -5.5t19.5 -13.5t17 -24l443 -823q17 -33 32 -68t30 -71q14 38 29.5 73.5t32.5 67.5l437 821q8 15 17.5 24t20.5 13.5t24 5.5t32 1h207v-1481h-242v956q0 27 1.5 59t4.5 64l-448 -839q-32 -60 -97 -61h-39q-66 0 -97 61l-453 842 q3 -34 5.5 -66t2.5 -60v-956h-243z" unicode="М" glyph-name="afii10030" horiz-adv-x="1935"/>
<glyph d="M165 0v1481h276v-637h696v637h276v-1481h-276v647h-696v-647h-276z" unicode="Н" glyph-name="afii10031" horiz-adv-x="1577"/>
<glyph d="M77 740q0 163 54 302t153 240t237 158t306 57q113 0 212.5 -26t182.5 -73.5t149 -116t112 -152t70 -182t24 -207.5q0 -163 -54 -301.5t-152 -240t-236.5 -158t-307.5 -56.5q-168 0 -306 56.5t-237 158t-153 240.5t-54 301zM358 740q0 -122 33 -218.5t94 -163.5 t147.5 -103t194.5 -36q109 0 195.5 36t147 103t93 163.5t32.5 218.5t-32.5 219t-93 164.5t-147 103.5t-195.5 36t-195 -36t-147 -103.5t-94 -164.5t-33 -219z" unicode="О" glyph-name="afii10032" horiz-adv-x="1654"/>
<glyph d="M165 0v1481h1197v-1481h-278v1269h-643v-1269h-276z" unicode="П" glyph-name="afii10033" horiz-adv-x="1526"/>
<glyph d="M165 0v1481h481q148 0 257 -35t179.5 -97.5t105 -149.5t34.5 -190q0 -108 -36 -197.5t-107.5 -154t-179.5 -100.5t-253 -36h-206v-521h-275zM440 736h206q76 0 132.5 19t93.5 54.5t55.5 86t18.5 113.5q0 59 -18.5 107t-55 82t-93 52t-133.5 18h-206v-532z" unicode="Р" glyph-name="afii10034" horiz-adv-x="1267"/>
<glyph d="M79 740q0 167 53 306t150 239t231 156t297 56q162 0 287.5 -53t213.5 -139l-92 -128q-8 -12 -21 -21.5t-36 -9.5q-15 0 -31.5 8.5t-36 21.5t-45 28.5t-59.5 28t-78.5 21.5t-102.5 9q-99 0 -181.5 -35.5t-142 -102.5t-92.5 -164t-33 -221q0 -125 35.5 -222t96 -163.5 t142.5 -102t176 -35.5q56 0 101.5 6t84 19.5t73 34.5t68.5 52q10 9 21.5 14.5t23.5 5.5q23 0 40 -17l108 -118q-90 -112 -221.5 -171t-315.5 -59q-165 0 -296.5 56t-225 156.5t-143 239.5t-49.5 304z" unicode="С" glyph-name="afii10035" horiz-adv-x="1354"/>
<glyph d="M31 1254v227h1168v-227h-446v-1254h-276v1254h-446z" unicode="Т" glyph-name="afii10036" horiz-adv-x="1228"/>
<glyph d="M-14 1481h258q36 0 57.5 -17.5t35.5 -44.5l288 -542q47 -87 74 -180q13 46 31 90t39 90l251 542q11 23 33.5 42.5t57.5 19.5h228l-598 -1275q-32 -67 -67.5 -110t-77 -67.5t-89 -34t-101.5 -9.5q-74 0 -108 13t-34 39v172h80q23 0 46.5 4t46.5 16.5t44.5 35t39.5 59.5 l59 117z" unicode="У" glyph-name="afii10037" horiz-adv-x="1319"/>
<glyph d="M62 774q0 121 47.5 227.5t131.5 187t199.5 128.5t252.5 52v174h261v-174q137 -4 253 -52t200 -128.5t131 -187t47 -227.5q0 -122 -47 -229t-131 -188t-199.5 -129t-253.5 -52v-176h-261v176q-137 4 -252.5 53t-199.5 129t-131.5 187t-47.5 229zM338 774q0 -80 25.5 -149 t72.5 -120.5t112 -82.5t145 -33v768q-80 -2 -145 -32.5t-112 -82.5t-72.5 -121t-25.5 -147zM954 389q79 2 144.5 33t112.5 82.5t73.5 120.5t26.5 149q0 78 -26.5 147t-73.5 121t-112.5 82.5t-144.5 32.5v-768z" unicode="Ф" glyph-name="afii10038" horiz-adv-x="1647"/>
<glyph d="M3 0l492 762l-472 719h274q29 0 41.5 -8t23.5 -25l336 -543q5 12 11.5 25t14.5 26l309 487q11 19 24.5 28.5t34.5 9.5h263l-476 -708l489 -773h-274q-29 0 -46 14.5t-27 32.5l-343 567q-7 -23 -20 -43l-328 -524q-12 -17 -28 -32t-42 -15h-257z" unicode="Х" glyph-name="afii10039" horiz-adv-x="1373"/>
<glyph d="M165 0v1481h276v-1269h643v1269h278v-1269h212v-485q0 -36 -24 -57.5t-63 -21.5h-166v352h-1156z" unicode="Ц" glyph-name="afii10040" horiz-adv-x="1627"/>
<glyph d="M80 992v489h277v-489q0 -86 30 -143t98 -84t180 -21t277 44v693h278v-1481h-278v593q-120 -30 -230 -44t-205.5 -9t-174.5 31.5t-135 81t-86.5 137.5t-30.5 202z" unicode="Ч" glyph-name="afii10041" horiz-adv-x="1384"/>
<glyph d="M165 0v1481h276v-1269h531v1269h276v-1269h533v1269h276v-1481h-1892z" unicode="Ш" glyph-name="afii10042" horiz-adv-x="2222"/>
<glyph d="M165 0v1481h276v-1269h531v1269h276v-1269h533v1269h276v-1269h212v-485q0 -36 -24 -57.5t-63 -21.5h-166v352h-1851z" unicode="Щ" glyph-name="afii10043" horiz-adv-x="2322"/>
<glyph d="M30 1262v219h693v-613h242q144 0 247 -31.5t168 -86.5t95.5 -129t30.5 -159q0 -104 -36 -189.5t-106 -146t-170.5 -93.5t-229.5 -33h-517v1262h-417zM723 215h241q77 0 128.5 17t83 46.5t45 69.5t13.5 86q0 50 -13.5 91t-45 69.5t-83 43.5t-127.5 15h-242v-438z" unicode="Ъ" glyph-name="afii10044" horiz-adv-x="1549"/>
<glyph d="M165 0v1481h275v-613h242q144 0 247 -31.5t168 -86.5t96 -129t31 -159q0 -104 -36.5 -189.5t-106 -146t-170.5 -93.5t-230 -33h-516zM165 0zM440 215h241q77 0 128.5 17t83.5 46.5t45 69.5t13 86q0 50 -13 91t-45 69.5t-83 43.5t-128 15h-242v-438zM1440 0v1481h276 v-1481h-276z" unicode="Ы" glyph-name="afii10045" horiz-adv-x="1882"/>
<glyph d="M165 0v1481h275v-613h242q144 0 247 -31.5t168 -86.5t96 -129t31 -159q0 -104 -36.5 -189.5t-106 -146t-170.5 -93.5t-230 -33h-516zM440 215h241q77 0 128.5 17t83.5 46.5t45 69.5t13 86q0 50 -13 91t-45 69.5t-83 43.5t-128 15h-242v-438z" unicode="Ь" glyph-name="afii10046" horiz-adv-x="1265"/>
<glyph d="M38 214l109 118q16 17 39 17t46 -20q34 -31 68.5 -52t73 -34.5t84 -19.5t101.5 -6q84 0 159.5 28.5t134.5 84t98.5 136t52.5 183.5h-687v205h683q-14 97 -52 173.5t-95 128.5t-131.5 79.5t-161.5 27.5q-88 0 -145.5 -18.5t-95.5 -40t-64 -40t-48 -18.5q-23 0 -35.5 9 t-21.5 22l-92 128q87 86 212.5 139t287.5 53q163 0 297.5 -56t231.5 -156t150 -239t53 -306q0 -165 -50 -304t-142.5 -239.5t-225 -156.5t-295.5 -56q-183 0 -316 59t-223 171z" unicode="Э" glyph-name="afii10047" horiz-adv-x="1368"/>
<glyph d="M165 0v1481h276v-637h268q15 142 70 262.5t145 207t211 135t269 48.5q161 0 290.5 -57t220.5 -158t140 -240t49 -302t-49 -301.5t-140 -239.5t-220.5 -157.5t-290.5 -56.5q-147 0 -268 47.5t-210.5 133.5t-145 204.5t-70.5 261.5h-269v-632h-276zM985 740 q0 -122 28.5 -219.5t82.5 -166t132 -105.5t176 -37t176 37t131.5 105.5t82.5 166t29 219.5t-29 220t-82.5 167t-131.5 106t-176 37t-176 -37t-132 -106t-82.5 -167t-28.5 -220z" unicode="Ю" glyph-name="afii10048" horiz-adv-x="2184"/>
<glyph d="M-14 0l340 520q61 98 156 140q-82 22 -142.5 59t-100.5 86.5t-59.5 110.5t-19.5 131q0 95 36 175t105.5 137t170 89.5t229.5 32.5h525v-1481h-276v612h-151q-25 0 -48 -4.5t-44 -16t-41.5 -31.5t-39.5 -52l-261 -413q-26 -43 -69 -69t-102 -26h-208zM431 1049 q0 -50 13.5 -91.5t45 -70t83.5 -44.5t128 -16h249v440h-249q-77 0 -128.5 -17t-82.5 -46.5t-45 -69t-14 -85.5z" unicode="Я" glyph-name="afii10049" horiz-adv-x="1390"/>
<glyph d="M50 268q0 59 31.5 117t104 105t193.5 77.5t301 34.5v62q0 105 -45 155.5t-130 50.5q-61 0 -102 -14t-71.5 -32t-55.5 -32.5t-56 -14.5q-27 0 -45 14t-30 32l-45 81q181 166 437 166q92 0 164.5 -30t122.5 -84t76.5 -128.5t26.5 -163.5v-664h-115q-36 0 -55.5 11t-30.5 43 l-23 75q-40 -36 -77.5 -63t-78.5 -45.5t-87.5 -27.5t-103.5 -9q-67 0 -123 17.5t-97 53.5t-63.5 89.5t-22.5 123.5zM292 282q0 -67 39.5 -95.5t102.5 -28.5q78 0 135 28t111 85v178q-111 -5 -185 -19t-119 -35.5t-64.5 -50.5t-19.5 -62z" unicode="а" glyph-name="afii10065" horiz-adv-x="1039"/>
<glyph d="M96 681q0 161 30 299t97.5 242t177 167.5t270.5 75.5l373 29l14 -131q4 -42 -12.5 -71t-58.5 -31l-295 -20q-96 -6 -164 -38t-112.5 -84.5t-67.5 -125.5t-27 -163q52 81 145.5 132t219.5 51q104 0 188 -37t143 -104.5t90.5 -162.5t31.5 -209q0 -119 -37.5 -214.5 t-105.5 -162.5t-164.5 -102.5t-213.5 -35.5q-114 0 -209.5 36.5t-165 119.5t-108.5 215.5t-39 324.5zM359 511q0 -167 64 -254.5t195 -87.5t196 84t65 246q0 161 -63 244.5t-192 83.5t-197 -79t-68 -237z" unicode="б" glyph-name="afii10066" horiz-adv-x="1210"/>
<glyph d="M125 0v1051h414q99 0 171 -19.5t119.5 -53.5t70 -80.5t22.5 -100.5q0 -34 -9 -71t-31.5 -70t-60.5 -61t-96 -43q52 -11 95.5 -31t74.5 -50.5t47.5 -71t16.5 -90.5q0 -80 -33 -138t-89 -96t-129 -56.5t-153 -18.5h-430zM366 173h188q80 0 126.5 39t46.5 106q0 29 -7.5 54 t-27 43.5t-53 29t-84.5 10.5h-189v-282zM366 610h165q37 0 68 11t53.5 31t34.5 47t12 60q0 24 -8 46.5t-27.5 40.5t-51.5 29t-81 11h-165v-276z" unicode="в" glyph-name="afii10067" horiz-adv-x="1029"/>
<glyph d="M125 0v1051h712v-188h-459v-863h-253z" unicode="г" glyph-name="afii10068" horiz-adv-x="861"/>
<glyph d="M18 180h40q35 1 68 12.5t63 44t56.5 91.5t48.5 155.5t38.5 235.5t26.5 332h712v-864h193v-463q0 -35 -20 -55.5t-52 -20.5h-158v352h-786v-281q0 -27 -17 -49t-53 -22h-160v532zM409 180h416v677h-259q-10 -132 -25.5 -238t-36 -189t-44.5 -144.5t-51 -105.5z" unicode="д" glyph-name="afii10069" horiz-adv-x="1297"/>
<glyph d="M68 548q0 108 34.5 202.5t99.5 164.5t158.5 111t211.5 41q99 0 183.5 -31.5t145 -92.5t94.5 -149.5t34 -202.5q0 -57 -12 -77t-47 -20h-651q6 -81 29 -140t59.5 -97.5t87.5 -57.5t112 -19t106 14.5t78 32t58 31.5t49 14q32 0 47 -23l73 -92q-42 -49 -94.5 -82.5 t-109 -53.5t-115.5 -28t-114 -8q-110 0 -204 36t-164 107.5t-109.5 176.5t-39.5 243zM325 646h477q0 49 -14 92.5t-41.5 76.5t-70 52t-98.5 19q-111 0 -173.5 -62.5t-79.5 -177.5z" unicode="е" glyph-name="afii10070" horiz-adv-x="1093"/>
<glyph d="M16 0l246 433q26 46 58.5 76.5t83.5 45.5q-38 14 -64.5 39.5t-50.5 65.5l-246 391h200q35 0 64 -18t45 -49l178 -302q19 -33 45.5 -49t69.5 -16h70v434h244v-434h65q43 0 71 16t48 49l178 302q16 31 45.5 49t65.5 18h198l-246 -391q-25 -41 -51 -66t-64 -39 q51 -15 83.5 -45.5t58.5 -76.5l247 -433h-175q-68 0 -102.5 20.5t-55.5 66.5l-156 291q-19 38 -51.5 56.5t-75.5 18.5h-83v-453h-244v453h-84q-42 0 -75 -18.5t-52 -56.5l-156 -291q-20 -46 -55 -66.5t-103 -20.5h-174z" unicode="ж" glyph-name="afii10072" horiz-adv-x="1673"/>
<glyph d="M37 157l73 92q15 24 46 23q24 0 45 -14.5t49.5 -32.5t67 -33t97.5 -15q95 0 144 43t49 108q0 63 -50.5 99t-164.5 36h-119v165h119q99 0 152.5 34.5t53.5 92.5q0 52 -46.5 85.5t-137.5 33.5q-54 0 -92 -11t-65.5 -24t-45.5 -24t-35 -11t-29.5 6.5t-26.5 29.5l-58 97 q59 57 147.5 93.5t211.5 36.5q97 0 173 -23t127.5 -62.5t78.5 -90t27 -106.5q0 -31 -8.5 -63t-29 -62t-53 -56.5t-81.5 -45.5q87 -32 140 -95t53 -157q0 -77 -35.5 -136t-93.5 -100.5t-133.5 -63t-155.5 -21.5q-45 0 -96.5 8t-104 28t-102.5 53.5t-91 82.5z" unicode="з" glyph-name="afii10073" horiz-adv-x="922"/>
<glyph d="M125 -1v1051h253v-614q0 -24 -2.5 -52t-6.5 -56q23 50 45 83q1 2 19.5 27.5t47.5 66.5t66 92.5t75 105.5q89 126 202 285q14 23 38 43t53 20h154v-1051h-253v613q0 24 2 51.5t7 56.5q-11 -24 -22 -45t-23 -37q-2 -2 -20.5 -28t-47.5 -67t-66 -93t-75 -105 q-89 -126 -201 -285q-14 -22 -37.5 -42t-52.5 -20h-155z" unicode="и" glyph-name="afii10074" horiz-adv-x="1193"/>
<glyph d="M125 0zM125 -1v1051h253v-614q0 -24 -2.5 -52t-6.5 -56q23 50 45 83q1 2 19.5 27.5t47.5 66.5t66 92.5t75 105.5q89 126 202 285q14 23 38 43t53 20h154v-1051h-253v613q0 24 2 51.5t7 56.5q-11 -24 -22 -45t-23 -37q-2 -2 -20.5 -28t-47.5 -67t-66 -93t-75 -105 q-89 -126 -201 -285q-14 -22 -37.5 -42t-52.5 -20h-155zM278 1410q0 27 12.5 49t39.5 22h150q0 -46 6 -78t21.5 -51t40.5 -27t64 -8q38 0 63.5 8t40.5 27t21.5 51t6.5 78h149q27 0 39.5 -22t12.5 -49q0 -52 -23.5 -94.5t-67.5 -72t-105.5 -45t-136.5 -15.5 q-76 0 -137.5 15.5t-105.5 45t-67.5 72t-23.5 94.5z" unicode="й" glyph-name="afii10075" horiz-adv-x="1193"/>
<glyph d="M125 0v1051h253v-434h82q43 0 69 16t44 49l180 302q18 30 50 48.5t67 18.5h199l-245 -391q-26 -41 -52.5 -66t-63.5 -39q51 -15 83.5 -45.5t59.5 -76.5l246 -433h-175q-67 0 -104 22.5t-62 64.5l-155 291q-20 38 -52.5 56.5t-75.5 18.5h-95v-453h-253z" unicode="к" glyph-name="afii10076" horiz-adv-x="1112"/>
<glyph d="M3 22v157h60q34 0 68 10.5t65.5 42t60.5 90.5t53 155.5t42.5 237t28.5 336.5h719v-1051h-253v857h-258q-12 -194 -38 -333.5t-61 -237t-78.5 -156t-93 -91.5t-101.5 -43.5t-105 -10.5q-56 0 -82.5 9.5t-26.5 27.5z" unicode="л" glyph-name="afii10077" horiz-adv-x="1224"/>
<glyph d="M125 0v1053h209q27 0 53 -11.5t43 -45.5l248 -442q15 -31 30 -65t27 -69q12 36 26 69.5t31 64.5l245 442q18 35 44 46t53 11h208v-1053h-228v586q0 36 3.5 81t10.5 84l-308 -568q-23 -44 -71 -44h-27q-49 0 -72 44l-313 571q6 -39 11 -85.5t5 -82.5v-586h-228z" unicode="м" glyph-name="afii10078" horiz-adv-x="1467"/>
<glyph d="M125 0v1051h253v-399h409v399h253v-1051h-253v465h-409v-465h-253z" unicode="н" glyph-name="afii10079" horiz-adv-x="1166"/>
<glyph d="M69 527q0 124 37 224.5t105.5 170t164.5 107.5t214 38q117 0 212.5 -38t163.5 -107.5t105 -170t37 -224.5q0 -125 -37 -225t-105 -171t-163.5 -108.5t-212.5 -37.5q-118 0 -214 37.5t-164.5 108.5t-105.5 171t-37 225zM329 525q0 -169 64 -257.5t197 -88.5q131 0 194 88 t63 258t-63 259t-194 89q-133 0 -197 -89.5t-64 -258.5z" unicode="о" glyph-name="afii10080" horiz-adv-x="1176"/>
<glyph d="M125 0v1051h915v-1051h-253v863h-409v-863h-253z" unicode="п" glyph-name="afii10081" horiz-adv-x="1166"/>
<glyph d="M125 -343v1394h155q49 0 64 -46l21 -98q63 73 145.5 118t192.5 45q86 0 157.5 -36t123 -104t80 -167.5t28.5 -228.5q0 -118 -32 -218.5t-91 -174t-142.5 -115t-186.5 -41.5q-89 0 -151 27t-111 75v-430h-253zM378 272q43 -53 93.5 -74t110.5 -21q57 0 103 21.5t78.5 65.5 t49.5 111t17 159t-14.5 156t-42.5 104t-67.5 58t-89.5 18q-79 0 -134.5 -33t-103.5 -94v-471z" unicode="р" glyph-name="afii10082" horiz-adv-x="1162"/>
<glyph d="M69 527q0 116 33 215t97.5 171t160 113t219.5 41q118 0 206 -38t159 -108l-66 -93q-11 -14 -22 -22t-32 -8q-19 0 -37.5 11.5t-44 26.5t-61 26.5t-87.5 11.5q-67 0 -117 -24t-83.5 -69t-49.5 -109t-16 -145q0 -84 18 -149.5t51.5 -110t81.5 -67.5t109 -23q60 0 97.5 15 t63 33t44.5 32.5t43 14.5q31 0 46 -23l72 -92q-42 -49 -91 -82.5t-101.5 -53.5t-108.5 -28t-111 -8q-97 0 -183.5 36t-151 106t-101.5 170.5t-37 229.5z" unicode="с" glyph-name="afii10083" horiz-adv-x="987"/>
<glyph d="M25 863v188h1001v-188h-375v-863h-253v863h-373z" unicode="т" glyph-name="afii10084" horiz-adv-x="1050"/>
<glyph d="M6 1051h222q30 0 47 -14.5t25 -32.5l223 -545q20 -56 34 -112q8 29 18 57t21 56l211 544q8 20 27 33.5t43 13.5h202l-572 -1340q-11 -27 -29 -40.5t-55 -13.5h-189l197 421z" unicode="у" glyph-name="afii10085" horiz-adv-x="1080"/>
<glyph d="M66 527q0 118 40.5 214.5t115 166t178.5 110t230 47.5v416h237v-416q126 -7 230 -47.5t178.5 -110t115.5 -166t41 -214.5q0 -120 -41 -216.5t-115.5 -166t-178.5 -110t-230 -47.5v-339h-237v339q-126 7 -230 47.5t-178.5 110t-115 166.5t-40.5 216zM318 525 q0 -79 21.5 -141.5t63 -108t100.5 -71.5t135 -32v707q-76 -6 -135 -32.5t-100.5 -71.5t-63 -108t-21.5 -142zM859 172q75 6 134.5 32t101 71.5t63 108t21.5 141.5t-21.5 142t-63 108t-101 71t-134.5 33v-707z" unicode="ф" glyph-name="afii10086" horiz-adv-x="1497"/>
<glyph d="M6 0l360 542l-346 509h244q28 0 41 -8t24 -25l220 -351q5 17 12.5 34.5t19.5 34.5l177 277q23 38 58 38h233l-347 -498l361 -553h-244q-28 0 -44.5 14.5t-28.5 32.5l-223 366q-9 -37 -25 -62l-197 -304q-11 -17 -27.5 -32t-41.5 -15h-226z" unicode="х" glyph-name="afii10087" horiz-adv-x="1069"/>
<glyph d="M125 0v1051h253v-864h409v864h253v-864h194v-463q0 -35 -20.5 -55.5t-52.5 -20.5h-157v352h-879z" unicode="ц" glyph-name="afii10088" horiz-adv-x="1267"/>
<glyph d="M71 701v350h253v-311q0 -65 21 -104t66.5 -57t117 -15t172.5 25v462h253v-1051h-253v413q-136 -33 -251 -37.5t-199.5 27.5t-132 104.5t-47.5 193.5z" unicode="ч" glyph-name="afii10089" horiz-adv-x="1079"/>
<glyph d="M125 0v1051h253v-864h347v864h253v-864h347v864h253v-1051h-1453z" unicode="ш" glyph-name="afii10090" horiz-adv-x="1702"/>
<glyph d="M125 0v1051h253v-864h347v864h253v-864h347v864h253v-864h192v-463q0 -35 -19.5 -55.5t-51.5 -20.5h-158v352h-1416z" unicode="щ" glyph-name="afii10091" horiz-adv-x="1805"/>
<glyph d="M26 860v191h562v-389h186q110 0 185.5 -27t122.5 -72t68 -104t21 -123q0 -74 -26 -136t-76.5 -106.5t-124 -69t-167.5 -24.5h-430v860h-321zM588 181h188q86 0 128.5 43t42.5 111q0 29 -9.5 55.5t-30 47t-53.5 32t-79 11.5h-187v-300z" unicode="ъ" glyph-name="afii10092" horiz-adv-x="1215"/>
<glyph d="M125 0v1051h241v-389h186q110 0 185.5 -27t122.5 -72t68 -104t21 -123q0 -74 -26 -136t-76.5 -106.5t-124 -69t-167.5 -24.5h-430zM366 181h188q86 0 128.5 43t42.5 111q0 29 -9.5 55.5t-30 47t-53.5 32t-79 11.5h-187v-300zM1141 0v1051h253v-1051h-253z" unicode="ы" glyph-name="afii10093" horiz-adv-x="1518"/>
<glyph d="M125 0v1051h241v-389h186q110 0 185.5 -27t122.5 -72t68 -104t21 -123q0 -74 -26 -136t-76.5 -106.5t-124 -69t-167.5 -24.5h-430zM366 181h188q86 0 128.5 43t42.5 111q0 29 -9.5 55.5t-30 47t-53.5 32t-79 11.5h-187v-300z" unicode="ь" glyph-name="afii10094" horiz-adv-x="993"/>
<glyph d="M43 157l69 85q16 23 47 22q15 0 28.5 -6.5t28 -16t31.5 -21t39.5 -21t52.5 -16t71 -6.5q105 0 175 70t88 204h-446v172h444q-19 119 -87 185t-181 66q-52 0 -87.5 -10.5t-62 -23.5t-45.5 -23.5t-38 -10.5q-20 0 -31 8t-22 23l-64 84q71 71 159.5 108.5t206.5 37.5 q124 0 219 -41t160 -113t98.5 -171t33.5 -215q0 -129 -37.5 -229.5t-102 -170.5t-150.5 -106t-183 -36q-55 0 -111.5 8t-109.5 28t-102 53.5t-91 82.5z" unicode="э" glyph-name="afii10095" horiz-adv-x="997"/>
<glyph d="M125 0v1051h253v-428h209q12 103 51.5 185.5t102 140t147 88t186.5 30.5q114 0 206 -38t157.5 -107.5t101.5 -170t36 -224.5q0 -125 -37 -225t-103.5 -171t-158.5 -108.5t-202 -37.5q-106 0 -191.5 31.5t-147.5 91t-100.5 144.5t-48.5 191h-208v-443h-253zM835 525 q0 -170 57.5 -258t181.5 -88q123 0 181.5 88t58.5 258t-58.5 259t-181.5 89t-181 -89.5t-58 -258.5z" unicode="ю" glyph-name="afii10096" horiz-adv-x="1642"/>
<glyph d="M0 0l265 371q42 74 117 100q-74 13 -125 41.5t-83 65.5t-46 80t-14 85q0 58 23 113.5t73 98.5t129 69.5t189 26.5h385v-1051h-240v422h-44q-31 0 -51 -5.5t-34 -15.5t-23.5 -24.5t-19.5 -31.5l-168 -258q-12 -22 -26 -38t-32 -27t-42 -16.5t-58 -5.5h-175zM368 732 q0 -73 48.5 -113.5t130.5 -40.5h126v308h-137q-48 0 -80 -14t-52 -36t-28 -49.5t-8 -54.5z" unicode="я" glyph-name="afii10097" horiz-adv-x="1039"/>
<glyph d="M68 0zM68 548q0 108 34.5 202.5t99.5 164.5t158.5 111t211.5 41q99 0 183.5 -31.5t145 -92.5t94.5 -149.5t34 -202.5q0 -57 -12 -77t-47 -20h-651q6 -81 29 -140t59.5 -97.5t87.5 -57.5t112 -19t106 14.5t78 32t58 31.5t49 14q32 0 47 -23l73 -92q-42 -49 -94.5 -82.5 t-109 -53.5t-115.5 -28t-114 -8q-110 0 -204 36t-164 107.5t-109.5 176.5t-39.5 243zM251 1497h236q42 0 62.5 -14t35.5 -40l146 -249h-144q-29 0 -47 7.5t-36 28.5zM325 646h477q0 49 -14 92.5t-41.5 76.5t-70 52t-98.5 19q-111 0 -173.5 -62.5t-79.5 -177.5z" unicode="ѐ" glyph-name="uni0450" horiz-adv-x="1093"/>
<glyph d="M68 0zM68 548q0 108 34.5 202.5t99.5 164.5t158.5 111t211.5 41q99 0 183.5 -31.5t145 -92.5t94.5 -149.5t34 -202.5q0 -57 -12 -77t-47 -20h-651q6 -81 29 -140t59.5 -97.5t87.5 -57.5t112 -19t106 14.5t78 32t58 31.5t49 14q32 0 47 -23l73 -92q-42 -49 -94.5 -82.5 t-109 -53.5t-115.5 -28t-114 -8q-110 0 -204 36t-164 107.5t-109.5 176.5t-39.5 243zM230 1323q0 30 11.5 56t30.5 45.5t44 30.5t53 11q30 0 56 -11t46 -30.5t31 -45.5t11 -56q0 -29 -11 -54t-31 -43.5t-46.5 -29t-55.5 -10.5q-28 0 -53 10.5t-44 29t-30.5 43.5t-11.5 54z M325 646h477q0 49 -14 92.5t-41.5 76.5t-70 52t-98.5 19q-111 0 -173.5 -62.5t-79.5 -177.5zM644 1323q0 30 11.5 56t30.5 45.5t44.5 30.5t53.5 11q30 0 56 -11t45 -30.5t30.5 -45.5t11.5 -56q0 -29 -11.5 -54t-30.5 -43.5t-45 -29t-56 -10.5q-29 0 -54 10.5t-44 29 t-30.5 43.5t-11.5 54z" unicode="ё" glyph-name="afii10071" horiz-adv-x="1093"/>
<glyph d="M-43 1106v190h168v226h253v-226h324v-190h-324v-262q61 58 135 94t173 36q191 0 283 -122t92 -356q0 -108 -17 -215.5t-48 -213t-75.5 -206.5t-101.5 -195l-204 77q47 90 83 178t60.5 180t37 189.5t12.5 205.5q0 76 -14.5 129t-40.5 86.5t-63 49t-81 15.5 q-66 0 -123.5 -29.5t-107.5 -79.5v-667h-253v1106h-168z" unicode="ђ" glyph-name="afii10099" horiz-adv-x="1149"/>
<glyph d="M125 0v1051h712v-188h-459v-863h-253zM125 0zM314 1194l146 249q15 27 35.5 40.5t61.5 13.5h246l-253 -267q-19 -20 -37 -28t-47 -8h-152z" unicode="ѓ" glyph-name="afii10100" horiz-adv-x="861"/>
<glyph d="M69 527q0 116 33 215t97.5 171t160 113t219.5 41q118 0 206 -38t159 -108l-63 -84q-11 -14 -22 -22.5t-31 -8.5q-19 0 -38.5 10.5t-45.5 23.5t-62 23.5t-88 10.5q-114 0 -181.5 -66.5t-85.5 -184.5h443v-172h-446q17 -133 87.5 -203.5t176.5 -70.5q40 0 70 6.5t52.5 16 t40 21t32 21t27.5 16t30 6.5q30 0 46 -22l68 -85q-42 -49 -91 -82.5t-101.5 -53.5t-108.5 -28t-111 -8q-97 0 -183.5 36t-151 106t-101.5 170.5t-37 229.5z" unicode="є" glyph-name="afii10101" horiz-adv-x="997"/>
<glyph d="M50 113l59 96q11 17 26.5 26.5t38.5 9.5q24 0 45 -13.5t48.5 -29t65 -28.5t94.5 -13q45 0 77.5 10.5t53.5 28t30.5 40.5t9.5 48q0 37 -22 60.5t-58.5 41t-83 31t-95 30t-95 38.5t-83 56t-58.5 83t-22 118q0 65 25.5 123.5t75 102t124 69.5t171.5 26q109 0 198 -36 t148 -94l-57 -91q-10 -16 -21.5 -23t-28.5 -7q-18 0 -39.5 10.5t-49 23t-63 23t-83.5 10.5q-75 0 -117 -32t-42 -83q0 -34 22 -57t58 -40.5t82 -31t94 -30t94 -37.5t82.5 -53.5t58.5 -77.5t22 -108q0 -76 -27.5 -140t-80.5 -110.5t-131.5 -72.5t-180.5 -26q-54 0 -106 9.5 t-99.5 27t-88 41t-71.5 51.5z" unicode="ѕ" glyph-name="afii10102" horiz-adv-x="900"/>
<glyph d="M98 1357q0 34 13 63.5t34.5 51t50.5 34.5t62 13q34 0 63.5 -13t51.5 -34.5t35.5 -51t13.5 -63.5q0 -33 -13.5 -61.5t-35.5 -50t-51.5 -34.5t-63.5 -13q-33 0 -62 13t-50.5 34.5t-34.5 50t-13 61.5zM133 0v1051h254v-1051h-254z" unicode="і" glyph-name="afii10103" horiz-adv-x="520"/>
<glyph d="M-48 1323q0 30 11.5 56t31 45.5t44.5 30.5t52 11q29 0 55 -11t46 -30.5t31.5 -45.5t11.5 -56q0 -29 -11.5 -54t-31.5 -43.5t-46 -29t-55 -10.5q-28 0 -52.5 10.5t-44 29t-31 43.5t-11.5 54zM0 0zM133 0v1051h253v-1051h-253zM300 1323q0 30 11.5 56t30.5 45.5t44.5 30.5 t54.5 11q30 0 56 -11t44.5 -30.5t30 -45.5t11.5 -56q0 -29 -11.5 -54t-30 -43.5t-45 -29t-55.5 -10.5t-54.5 10.5t-44.5 29t-30.5 43.5t-11.5 54z" unicode="ї" glyph-name="afii10104" horiz-adv-x="520"/>
<glyph d="M-78 -349l9 136q3 20 16.5 26t51.5 6t64 7.5t41.5 24.5t22 44.5t6.5 68.5v1087h254v-1087q0 -69 -18 -129t-57.5 -105.5t-103.5 -72t-156 -26.5q-36 0 -66.5 5t-63.5 15zM98 1357q0 34 13 63.5t34.5 51t50 34.5t61.5 13q34 0 64 -13t52 -34.5t35.5 -51t13.5 -63.5 q0 -33 -13.5 -61.5t-35.5 -50t-52 -34.5t-64 -13q-33 0 -61.5 13t-50 34.5t-34.5 50t-13 61.5z" unicode="ј" glyph-name="afii10105" horiz-adv-x="520"/>
<glyph d="M3 22v157h60q34 0 68 10.5t65.5 42t60.5 90.5t53 155.5t42.5 237t28.5 336.5h719v-389h185q111 0 186.5 -27t122.5 -72t68 -104t21 -123q0 -74 -26.5 -136t-77 -106.5t-124 -69t-167.5 -24.5h-441v857h-258q-12 -194 -38 -333.5t-61 -237t-78.5 -156t-93 -91.5 t-101.5 -43.5t-105 -10.5q-56 0 -82.5 9.5t-26.5 27.5zM1100 181h188q86 0 128 43t42 111q0 29 -9 55.5t-30 47t-54 32t-79 11.5h-186v-300z" unicode="љ" glyph-name="afii10106" horiz-adv-x="1726"/>
<glyph d="M125 0v1051h253v-399h409v399h253v-389h187q110 0 185.5 -27t122.5 -72t68 -104t21 -123q0 -74 -26 -136t-77 -106.5t-124 -69t-167 -24.5h-443v465h-409v-465h-253zM1040 181h189q86 0 128.5 43t42.5 111q0 29 -10 55.5t-30.5 47t-53 32t-78.5 11.5h-188v-300z" unicode="њ" glyph-name="afii10107" horiz-adv-x="1668"/>
<glyph d="M-23 1165v157h148v200h253v-200h288v-157h-288v-260q61 58 135 94t173 36q86 0 152 -29t110.5 -82t67.5 -126t23 -161v-637h-253v637q0 96 -44 149t-133 53q-66 0 -123.5 -30t-107.5 -81v-728h-253v1165h-148z" unicode="ћ" glyph-name="afii10108" horiz-adv-x="1155"/>
<glyph d="M125 0v1051h253v-434h82q43 0 69 16t44 49l180 302q18 30 50 48.5t67 18.5h199l-245 -391q-26 -41 -52.5 -66t-63.5 -39q51 -15 83.5 -45.5t59.5 -76.5l246 -433h-175q-67 0 -104 22.5t-62 64.5l-155 291q-20 38 -52.5 56.5t-75.5 18.5h-95v-453h-253zM125 0zM434 1194 l146 249q15 27 35.5 40.5t61.5 13.5h246l-253 -267q-19 -20 -37 -28t-47 -8h-152z" unicode="ќ" glyph-name="afii10109" horiz-adv-x="1112"/>
<glyph d="M125 0zM125 -1v1051h253v-614q0 -24 -2.5 -52t-6.5 -56q23 50 45 83q1 2 19.5 27.5t47.5 66.5t66 92.5t75 105.5q89 126 202 285q14 23 38 43t53 20h154v-1051h-253v613q0 24 2 51.5t7 56.5q-11 -24 -22 -45t-23 -37q-2 -2 -20.5 -28t-47.5 -67t-66 -93t-75 -105 q-89 -126 -201 -285q-14 -22 -37.5 -42t-52.5 -20h-155zM284 1497h236q42 0 62.5 -14t35.5 -40l146 -249h-144q-29 0 -47 7.5t-36 28.5z" unicode="ѝ" glyph-name="uni045D" horiz-adv-x="1193"/>
<glyph d="M6 0zM6 1051h222q30 0 47 -14.5t25 -32.5l223 -545q20 -56 34 -112q8 29 18 57t21 56l211 544q8 20 27 33.5t43 13.5h202l-572 -1340q-11 -27 -29 -40.5t-55 -13.5h-189l197 421zM233 1410q0 27 12.5 49t39.5 22h150q0 -46 6 -78t21.5 -51t40.5 -27t64 -8q38 0 63.5 8 t40.5 27t21.5 51t6.5 78h149q27 0 39.5 -22t12.5 -49q0 -52 -23.5 -94.5t-67.5 -72t-105.5 -45t-136.5 -15.5q-76 0 -137.5 15.5t-105.5 45t-67.5 72t-23.5 94.5z" unicode="ў" glyph-name="afii10110" horiz-adv-x="1080"/>
<glyph d="M125 0v1051h253v-864h409v864h253v-1051h-343v-276q0 -35 -20 -55.5t-51 -20.5h-158v352h-343z" unicode="џ" glyph-name="afii10193" horiz-adv-x="1166"/>
<glyph d="M87 753q0 154 29.5 289.5t94 236t167 159t247.5 58.5q119 0 202.5 -37.5t144.5 -95.5l-58 -136q-14 -23 -26 -29.5t-30 -6.5q-16 0 -33.5 11t-40.5 24t-55 24.5t-76 11.5q-138 0 -215 -130t-77 -394q0 -253 80.5 -387t251.5 -134q81 0 148 29.5t123 87.5v467h277v-468 q55 -57 122 -86.5t147 -29.5q171 0 252 134t81 387q0 264 -76.5 394t-215.5 130q-45 0 -76 -11.5t-54 -24.5t-40.5 -24t-33.5 -11q-17 0 -29.5 6.5t-27.5 29.5l-57 136q60 58 143.5 95.5t203.5 37.5q144 0 246 -58.5t166.5 -159t94.5 -236.5t30 -289q0 -178 -37.5 -321 t-111.5 -242.5t-182.5 -152.5t-250.5 -53q-132 0 -238.5 44.5t-194.5 128.5q-88 -83 -194.5 -128t-237.5 -45q-142 0 -251.5 53t-183 152.5t-111 242t-37.5 321.5z" unicode="Ѡ" glyph-name="uni0460" horiz-adv-x="2204"/>
<glyph d="M103 605v446h172q39 0 55.5 -22.5t16.5 -50.5v-345q0 -127 45 -227.5t122 -174.5q35 36 65 81t52.5 96.5t36 108t13.5 116.5v418h172q39 0 55.5 -22.5t16.5 -50.5v-336q0 -118 44 -223.5t123 -186.5q35 36 67.5 82.5t57 105.5t39.5 131.5t15 160.5q0 62 -7 107t-14.5 78 t-14 56t-6.5 41q0 20 13 38.5t39 18.5h192q20 -91 30 -172t10 -163q0 -118 -20 -218.5t-59 -188t-95 -163.5t-128 -146h-148q-20 0 -32 7t-27 25q-55 59 -109 138.5t-93 172.5q-38 -92 -91 -172t-109 -139q-15 -17 -24.5 -24.5t-30.5 -7.5h-153q-61 59 -114.5 129.5 t-92.5 147.5t-61.5 160t-22.5 168z" unicode="ѡ" glyph-name="uni0461" horiz-adv-x="1605"/>
<glyph d="M46 1073v202h357v206h276v-206h435v-202h-435v-205h242q144 0 247 -31.5t168 -86.5t95.5 -129t30.5 -159q0 -104 -36 -189.5t-106 -146t-170.5 -93.5t-229.5 -33h-517v1073h-357zM679 215h241q77 0 128.5 17t83 46.5t45 69.5t13.5 86q0 50 -13.5 91t-45 69.5t-83 43.5 t-127.5 15h-242v-438z" unicode="Ѣ" glyph-name="afii10146" horiz-adv-x="1505"/>
<glyph d="M28 858v192h257v274h240v-274h321v-192h-321v-196h207q110 0 185.5 -27t122.5 -72t68 -104t21 -123q0 -74 -26.5 -136t-77 -106.5t-124 -69t-167.5 -24.5h-449v858h-257zM525 181h209q86 0 128.5 43t42.5 111q0 29 -9.5 55.5t-30 47t-54 32t-79.5 11.5h-207v-300z" unicode="ѣ" glyph-name="afii10194" horiz-adv-x="1165"/>
<glyph d="M165 0v1481h276v-627h279q16 143 74 262t149 203.5t211.5 131t263.5 46.5q156 0 277 -53t205 -139l-93 -128q-8 -12 -20.5 -21.5t-35.5 -9.5t-47 18.5t-60 40t-90.5 40t-137.5 18.5q-82 0 -152 -27.5t-124 -79.5t-89 -128.5t-49 -173.5h620v-205h-622q11 -103 48 -183.5 t93 -136t126.5 -84t150.5 -28.5q52 0 94.5 6t79 19.5t68.5 34.5t64 52q10 9 22 14.5t24 5.5q23 0 39 -17l110 -118q-87 -112 -214.5 -171t-303.5 -59q-147 0 -267.5 48.5t-208.5 136.5t-141.5 210.5t-65.5 269.5h-277v-649h-276z" unicode="Ѥ" glyph-name="uni0464" horiz-adv-x="1956"/>
<glyph d="M125 0v1051h245v-429h164q14 98 56 179t107 138.5t149.5 90t184.5 32.5q115 0 202.5 -39.5t144.5 -101.5l-82 -114q-7 -11 -17.5 -18.5t-31.5 -7.5q-18 0 -34.5 11.5t-38.5 25t-56 25.5t-88 12q-94 0 -159.5 -60.5t-86.5 -172.5h400v-181h-402q10 -60 34 -105.5 t57.5 -77.5t75 -47.5t87.5 -15.5q31 0 56 3t46.5 10t41.5 20t41 31q18 16 40 16q8 0 16.5 -3t15.5 -11l98 -104q-123 -168 -371 -168q-104 0 -189.5 33.5t-147.5 93.5t-100.5 143t-50.5 182h-162v-441h-245z" unicode="ѥ" glyph-name="uni0465" horiz-adv-x="1431"/>
<glyph d="M-22 0l630 1481h265l630 -1481h-221q-36 0 -58.5 18t-33.5 44l-207 526h-114v-588h-261v588h-109l-207 -526q-9 -24 -32.5 -43t-58.5 -19h-223zM575 782h331l-105 270q-14 36 -30 84.5t-31 105.5q-14 -58 -29.5 -107.5t-29.5 -84.5z" unicode="Ѧ" glyph-name="uni0466" horiz-adv-x="1481"/>
<glyph d="M-6 0l483 1051h234l483 -1051h-197q-31 0 -50.5 15.5t-28.5 38.5l-137 310h-74v-364h-230v364h-71l-136 -310q-8 -20 -28.5 -37t-51.5 -17h-196zM480 535h227l-63 144q-12 30 -25.5 72.5t-26.5 91.5q-11 -49 -24.5 -92t-24.5 -73z" unicode="ѧ" glyph-name="uni0467" horiz-adv-x="1186"/>
<glyph d="M165 0v1481h276v-699h493l297 699h265l630 -1481h-221q-36 0 -58.5 18t-34.5 44l-206 526h-114v-588h-261v588h-110l-207 -526q-9 -24 -32.5 -43t-58.5 -19h-222l250 588h-410v-588h-276zM1198 782h331l-106 270q-14 36 -30 84.5t-30 105.5q-14 -57 -29.5 -107t-29.5 -85 z" unicode="Ѩ" glyph-name="uni0468" horiz-adv-x="2104"/>
<glyph d="M125 0v1051h245v-516h354l238 516h234l482 -1051h-196q-32 0 -51.5 15.5t-28.5 38.5l-135 310h-75v-364h-229v364h-73l-134 -310q-8 -20 -29 -37t-52 -17h-197l167 364h-275v-364h-245zM965 535h227l-63 144q-12 30 -25.5 72.5t-26.5 91.5q-12 -49 -25.5 -92t-24.5 -73z " unicode="ѩ" glyph-name="uni0469" horiz-adv-x="1671"/>
<glyph d="M11 0l192 498q28 72 62.5 130t80 101.5t104 70.5t134.5 39l-514 641h1606l-514 -640q77 -11 136 -38.5t105 -71t81 -102t62 -130.5l193 -498h-223q-35 0 -58 19.5t-34 42.5l-138 413q-17 52 -36.5 86.5t-46.5 54.5t-65 27.5t-94 7.5h-32l-1 -1h-10v-650h-261v650h-4l-1 1 h-29q-55 0 -93.5 -7.5t-65.5 -27.5t-46.5 -54.5t-36.5 -86.5l-139 -413q-9 -24 -33 -43t-59 -19h-222zM510 1286l207 -259q30 -38 54.5 -68.5t44.5 -60t34 -58t23 -61.5q9 33 23 61.5t33.5 58t44.5 60t55 68.5l206 259h-725z" unicode="Ѫ" glyph-name="uni046A" horiz-adv-x="1747"/>
<glyph d="M9 0l143 334q23 53 48.5 97.5t58 78.5t73.5 57t94 35l-379 449h193h6h876h6h194l-379 -449q53 -11 94.5 -34t74.5 -57t59 -78.5t50 -98.5l142 -334h-197q-30 0 -50.5 17t-30.5 37l-93 260q-14 40 -29.5 66t-36.5 39.5t-49.5 18.5t-68.5 5l-1 -1h-10v-442h-230v442h-6 l-1 1q-39 0 -66.5 -5.5t-48.5 -19.5t-36.5 -39t-28.5 -65l-93 -260q-9 -20 -30 -37t-51 -17h-197zM447 880l102 -111q26 -33 47 -59.5t38 -51t29.5 -49.5t20.5 -54q8 29 20.5 54t29.5 49.5t38.5 51t47.5 59.5l101 111h-474z" unicode="ѫ" glyph-name="uni046B" horiz-adv-x="1370"/>
<glyph d="M165 0v1481h276v-635h770l-509 634h1607l-514 -640q77 -11 136 -38.5t105 -71t80.5 -102t62.5 -130.5l193 -498h-223q-35 0 -58.5 19.5t-32.5 42.5l-139 413q-17 52 -36.5 86.5t-47 54.5t-65 27.5t-93.5 7.5h-32l-1 -1h-10v-650h-261v650h-4l-1 1h-38q-48 0 -83.5 -7.5 t-63 -27.5t-48.5 -54t-39 -87l-142 -413q-9 -24 -32.5 -43t-58.5 -19h-222l192 497q19 49 59 88t94 66h-545v-651h-276zM1143 1286l207 -259q30 -38 54 -68.5t44 -60t34.5 -58t23.5 -61.5q9 33 23 61.5t33.5 58t44.5 60t55 68.5l206 259h-725z" unicode="Ѭ" glyph-name="uni046C" horiz-adv-x="2379"/>
<glyph d="M125 0v1051h245v-437h538l-368 437h1275l-380 -449q53 -11 94.5 -34t74.5 -57t59.5 -78.5t49.5 -98.5l142 -334h-197q-30 0 -51 17t-29 37l-94 260q-14 40 -29.5 66t-36.5 39.5t-50 18.5t-69 5l-1 -1h-9v-442h-229v442h-6l-1 1h-1q-36 0 -63 -5t-48.5 -18.5t-38 -39 t-31.5 -66.5l-97 -260q-8 -20 -28.5 -37t-50.5 -17h-196l142 334q13 36 42 62.5t68 46.5h-381v-443h-245zM940 880l101 -111q26 -33 47.5 -59.5t38.5 -51t29 -49.5t21 -54q8 29 20 54t29 49.5t38.5 51t48.5 59.5l100 111h-473z" unicode="ѭ" glyph-name="uni046D" horiz-adv-x="1861"/>
<glyph d="M22 -34q0 137 87.5 212t245.5 75q63 0 115.5 -8.5t104.5 -8.5q58 0 103 15.5t74.5 44.5t45 68t15.5 87q0 55 -20.5 96t-58.5 68t-91.5 40t-119.5 13h-210v221h191q128 0 199.5 50.5t71.5 146.5q0 85 -68 136t-196 51q-75 0 -128.5 -16.5t-93 -35.5t-66.5 -35.5t-49 -16.5 q-20 0 -34.5 10.5t-26.5 30.5l-68 131q85 74 204 115t263 41q120 0 216 -28.5t164.5 -80.5t104.5 -123t36 -156q0 -102 -46 -186t-138 -137q49 -24 90.5 -56t70.5 -74.5t45.5 -94t16.5 -112.5q0 -84 -31 -163t-95.5 -140.5t-163 -99t-232.5 -37.5q-34 0 -60.5 2t-47.5 5 t-39 5.5t-34 2.5q-46 0 -67.5 -17.5t-21.5 -49.5q0 -19 8.5 -33.5t29 -24.5t55 -15t85.5 -5q68 0 134.5 5t117.5 5q75 0 124 -16t78.5 -46t42 -71t12.5 -90q0 -13 -1.5 -26t-7.5 -23.5t-17.5 -17.5t-32.5 -7h-71q-2 52 -33 72.5t-103 20.5q-25 0 -44 -1.5t-41 -4t-49.5 -4 t-67.5 -1.5q-246 0 -361.5 71.5t-115.5 220.5z" unicode="Ѯ" glyph-name="uni046E" horiz-adv-x="1159"/>
<glyph d="M20 -60q0 52 17 96.5t50.5 76.5t83 50.5t115.5 18.5q31 0 65 -3.5t62 -3.5q44 0 77.5 12t56.5 31.5t35 45t12 53.5q0 71 -51 108.5t-164 37.5h-119v165h119q99 0 152 34.5t53 92.5q0 52 -46 85.5t-138 33.5q-55 0 -93 -11t-64.5 -24t-45.5 -24t-35 -11q-17 0 -29.5 6.5 t-27.5 29.5l-57 97q51 49 120.5 82t162.5 44l-214 260h144q28 0 46.5 -6.5t32.5 -27.5l79 -98q7 -10 14.5 -22t16.5 -25q7 13 14 25t15 22l69 89q20 27 52.5 40t71.5 13q27 0 47 -4.5t41 -11.5v-116h-19q-27 0 -43.5 -13.5t-29.5 -28.5l-103 -111q60 -15 107 -42.5t78 -62.5 t47.5 -75t16.5 -83q0 -31 -8.5 -63t-29 -62t-53.5 -56t-80 -45q96 -36 144 -102t48 -143q0 -70 -27 -128.5t-78 -102t-125 -68t-167 -24.5q-43 0 -81.5 4t-62.5 4q-34 0 -53.5 -13.5t-19.5 -43.5q0 -39 32 -56.5t89 -17.5q22 0 50.5 1.5t59 3.5t61 3.5t55.5 1.5 q75 0 124 -16.5t78.5 -46t41.5 -70.5t12 -90q0 -13 -1.5 -26t-7 -23t-17 -17t-31.5 -7h-73q-2 51 -32 71t-103 20q-49 0 -98.5 -5t-96.5 -5q-73 0 -135.5 18t-108.5 53.5t-73 86.5t-27 119z" unicode="ѯ" glyph-name="uni046F" horiz-adv-x="908"/>
<glyph d="M88 949v532h184q44 0 68.5 -27t24.5 -65v-440q0 -87 17.5 -153.5t58.5 -113.5t107.5 -73.5t164.5 -33.5v906h276v-906q98 6 165.5 33t109 73.5t59 113.5t17.5 154v440q0 39 24.5 65.5t68.5 26.5h184v-532q0 -131 -40 -237t-119.5 -182.5t-196.5 -122t-272 -53.5v-354 h-276v354q-155 8 -271.5 54t-195 122.5t-118.5 182.5t-40 236z" unicode="Ѱ" glyph-name="uni0470" horiz-adv-x="1705"/>
<glyph d="M110 511v540h175q15 0 29.5 -9.5t25 -23.5t16.5 -30.5t6 -32.5v-444q0 -142 84 -221t238 -101v1292h253v-1294q77 8 138.5 31.5t104.5 67t66 110t23 163.5q0 80 -7.5 137.5t-16.5 102.5t-17.5 85t-12.5 85q0 23 6 38.5t16 25t23 14t25 4.5h182q12 -65 22.5 -126 t17 -120.5t11 -120t4.5 -125.5q0 -152 -46 -256t-125.5 -170t-186 -99.5t-227.5 -43.5v-333h-253v331q-150 11 -258.5 51.5t-178.5 107.5t-103.5 158.5t-33.5 205.5z" unicode="ѱ" glyph-name="uni0471" horiz-adv-x="1617"/>
<glyph d="M77 740q0 163 54 302t153 240t237 158t306 57q113 0 212.5 -26t182.5 -73.5t149 -116t112 -152t70 -182t24 -207.5q0 -163 -54 -301.5t-152 -240t-236.5 -158t-307.5 -56.5q-168 0 -306 56.5t-237 158t-153 240.5t-54 301zM364 649q11 -101 48.5 -181t96.5 -135 t139.5 -84.5t178.5 -29.5q97 0 177.5 29.5t140 84.5t97 135t48.5 181h-926zM366 854h921q-14 96 -52 172t-97 128.5t-137.5 80.5t-173.5 28t-174 -28t-137.5 -80.5t-97 -128.5t-52.5 -172z" unicode="Ѳ" glyph-name="afii10147" horiz-adv-x="1654"/>
<glyph d="M69 527q0 124 37 224.5t105.5 170t164.5 107.5t214 38q117 0 212.5 -38t163.5 -107.5t105 -170t37 -224.5q0 -125 -37 -225t-105 -171t-163.5 -108.5t-212.5 -37.5q-118 0 -214 37.5t-164.5 108.5t-105.5 171t-37 225zM317 451q14 -139 84 -209.5t189 -70.5q116 0 185 70 t83 210h-541zM318 615h538q-17 131 -85.5 198.5t-180.5 67.5q-115 0 -184.5 -67.5t-87.5 -198.5z" unicode="ѳ" glyph-name="afii10195" horiz-adv-x="1176"/>
<glyph d="M-15 1481h221q36 0 58.5 -17.5t33.5 -45.5l349 -903q17 -44 33 -96.5t31 -111.5q24 118 58 208l246 750q37 115 112 170.5t199 55.5q36 0 59 -3t36 -9t18 -16.5t5 -23.5v-171h-56q-92 0 -132 -107l-425 -1161h-248z" unicode="Ѵ" glyph-name="afii10148" horiz-adv-x="1460"/>
<glyph d="M6 1051h210q28 0 47 -13.5t26 -33.5l203 -562q17 -51 28.5 -99t22.5 -97q20 96 50 196l136 415q19 65 45.5 104.5t58 63t70 31.5t82.5 8q34 0 55.5 -4t33.5 -10t17 -12t5 -11v-138h-31q-43 0 -72.5 -18t-44.5 -58l-295 -813h-229z" unicode="ѵ" glyph-name="afii10196" horiz-adv-x="1126"/>
<glyph d="M-15 1481h221q36 0 58.5 -17.5t33.5 -45.5l349 -903q17 -44 33 -96.5t31 -111.5q24 118 58 208l246 750q37 115 112 170.5t199 55.5q36 0 59 -3t36 -9t18 -16.5t5 -23.5v-171h-56q-92 0 -132 -107l-425 -1161h-248zM0 0zM172 1868h188q42 0 69 -15t47 -39l187 -228h-136 q-29 0 -49.5 9.5t-41.5 27.5zM578 1868h164q41 0 67 -14.5t43 -39.5l141 -228h-120q-29 0 -46 10t-38 27z" unicode="Ѷ" glyph-name="uni0476" horiz-adv-x="1460"/>
<glyph d="M6 0zM6 1051h210q28 0 47 -13.5t26 -33.5l203 -562q17 -51 28.5 -99t22.5 -97q20 96 50 196l136 415q19 65 45.5 104.5t58 63t70 31.5t82.5 8q34 0 55.5 -4t33.5 -10t17 -12t5 -11v-138h-31q-43 0 -72.5 -18t-44.5 -58l-295 -813h-229zM42 1497h182q20 0 35 -3.5 t25.5 -10.5t19 -17t18.5 -23l181 -249h-120q-29 0 -46.5 7.5t-36.5 28.5zM399 1497h164q42 0 62.5 -14t35.5 -40l130 -249h-104q-30 0 -48.5 7.5t-35.5 28.5z" unicode="ѷ" glyph-name="uni0477" horiz-adv-x="1126"/>
<glyph d="M78 0zM78 740q0 163 54 302t153 240t237 158t306 57q113 0 212.5 -26t182.5 -73.5t149 -116t112 -152t70 -182t24 -207.5q0 -163 -54 -301.5t-152 -240t-236.5 -158t-307.5 -56.5q-168 0 -306 56.5t-237 158t-153 240.5t-54 301zM359 740q0 -122 33 -218.5t94 -163.5 t147.5 -103t194.5 -36q109 0 195.5 36t147 103t93 163.5t32.5 218.5t-32.5 219t-93 164.5t-147 103.5t-195.5 36t-195 -36t-147 -103.5t-94 -164.5t-33 -219zM1652 1051h222q30 0 47 -14.5t25 -32.5l223 -545q20 -56 34 -112q8 29 18 57t21 56l211 544q8 20 27 33.5t43 13.5 h202l-572 -1340q-11 -27 -29 -40.5t-55 -13.5h-189l197 421z" unicode="Ѹ" glyph-name="uni0478" horiz-adv-x="2720"/>
<glyph d="M69 0zM69 527q0 124 37 224.5t105.5 170t164.5 107.5t214 38q117 0 212.5 -38t163.5 -107.5t105 -170t37 -224.5q0 -125 -37 -225t-105 -171t-163.5 -108.5t-212.5 -37.5q-118 0 -214 37.5t-164.5 108.5t-105.5 171t-37 225zM329 525q0 -169 64 -257.5t197 -88.5 q131 0 194 88t63 258t-63 259t-194 89q-133 0 -197 -89.5t-64 -258.5zM1185 1051h222q30 0 47 -14.5t25 -32.5l223 -545q20 -56 34 -112q8 29 18 57t21 56l211 544q8 20 27 33.5t43 13.5h202l-572 -1340q-11 -27 -29 -40.5t-55 -13.5h-189l197 421z" unicode="ѹ" glyph-name="uni0479" horiz-adv-x="2258"/>
<glyph d="M77 740q0 148 45 277.5t128.5 227.5t200.5 162t262 83q27 43 71.5 68.5t101.5 25.5q55 0 100.5 -26t72.5 -69q142 -20 258.5 -84t198.5 -162t127 -226t45 -276q0 -147 -45 -275.5t-127 -227t-198 -163t-258 -83.5q-27 -43 -73 -68.5t-101 -25.5q-56 0 -101.5 25t-71.5 68 q-144 18 -261.5 81.5t-201 162.5t-128.5 227t-45 278zM358 740q0 -108 26 -195.5t73.5 -152.5t116 -107t154.5 -58q27 34 68 54t90 20q48 0 88 -20t68 -53q85 16 153 58.5t114.5 108t71.5 153t25 193.5q0 105 -25 192.5t-71.5 153t-114.5 107.5t-152 58q-28 -34 -68.5 -53 t-88.5 -19q-50 0 -91 20t-69 53q-86 -15 -154 -57t-115.5 -107.5t-73 -154t-25.5 -194.5z" unicode="Ѻ" glyph-name="uni047A" horiz-adv-x="1764"/>
<glyph d="M68 527q0 111 29.5 202t84 159t132 111.5t173.5 59.5q26 48 73 76.5t108 28.5q58 0 105 -28.5t74 -76.5q96 -15 174.5 -58.5t133 -112t84.5 -159.5t30 -202q0 -113 -30.5 -205t-85.5 -161t-134.5 -112.5t-177.5 -56.5q-27 -43 -72.5 -68.5t-100.5 -25.5 q-57 0 -102.5 25.5t-71.5 68.5q-98 14 -177 57.5t-134.5 112t-85 160.5t-29.5 205zM329 525q0 -134 39 -216.5t119 -112.5q26 48 73 76.5t108 28.5q58 0 105.5 -28.5t73.5 -76.5q82 30 121.5 112.5t39.5 216.5q0 135 -40.5 219t-123.5 114q-27 -45 -73 -71.5t-103 -26.5 q-58 0 -104.5 26t-73.5 71q-83 -30 -122 -114t-39 -218z" unicode="ѻ" glyph-name="uni047B" horiz-adv-x="1336"/>
<glyph d="M88 753q0 154 29.5 289.5t94 236t166.5 159t248 58.5q59 0 109 -9.5t92.5 -27.5t78.5 -42.5t66 -53.5l-58 -136q-14 -23 -25.5 -29.5t-29.5 -6.5q-16 0 -33.5 11t-40.5 24t-55 24.5t-76 11.5q-139 0 -215.5 -130t-76.5 -394q0 -253 80.5 -387t251.5 -134q111 0 184.5 56 t120.5 159h207q47 -103 121 -159t184 -56q171 0 252 134t81 387q0 264 -76.5 394t-216.5 130q-44 0 -75 -11.5t-54 -24.5t-40.5 -24t-33.5 -11q-17 0 -29.5 6.5t-27.5 29.5l-57 136q59 58 143 95.5t203 37.5q145 0 247 -58.5t166.5 -159t94.5 -236.5t30 -289 q0 -178 -37.5 -321t-111.5 -242.5t-182.5 -152.5t-250.5 -53q-132 0 -238.5 45t-194.5 128q-87 -84 -194 -128.5t-239 -44.5q-142 0 -251 53t-182.5 152.5t-111 242t-37.5 321.5zM749 1695q0 130 72 198.5t197 68.5q49 0 91.5 -10t82.5 -25.5t79.5 -33t82.5 -33t91.5 -25.5 t106.5 -10v-131q-102 0 -179 21t-137.5 46.5t-111 46.5t-98.5 21q-57 0 -90 -34t-33 -100h-154zM1016 1626q0 43 27.5 71t78.5 28q59 0 91 -38.5t32 -100.5q0 -40 -12.5 -74t-39 -59t-65.5 -38.5t-93 -12.5v40q0 12 9 19.5t33 12.5q33 8 49.5 22t18.5 46q-5 -2 -10.5 -2 h-10.5q-60 0 -84 26t-24 60z" unicode="Ѽ" glyph-name="uni047C" horiz-adv-x="2205"/>
<glyph d="M75 532q0 109 21 205.5t67.5 168.5t120 113.5t180.5 41.5q90 0 153 -27.5t107 -70.5l-50 -122q-12 -20 -23 -25.5t-26 -5.5q-13 0 -26 7t-28.5 15.5t-35 15.5t-46.5 7q-80 0 -126.5 -80t-46.5 -256q0 -77 10.5 -137t34 -101.5t61.5 -63.5t94 -22q72 0 117.5 36.5 t77.5 113.5h180q32 -77 77.5 -113.5t116.5 -36.5q56 0 94.5 22t62 63.5t33.5 101.5t10 137q0 176 -46.5 256t-126.5 80q-27 0 -46 -7t-34.5 -15.5t-29 -15.5t-26.5 -7q-15 0 -25.5 5t-23.5 26l-49 122q45 43 107.5 70.5t152.5 27.5q105 0 179.5 -41.5t120.5 -113.5 t67 -168.5t21 -205.5q0 -123 -25.5 -223t-78 -171t-131.5 -110t-184 -39q-93 0 -168 29t-138 86q-65 -57 -139.5 -86t-166.5 -29q-106 0 -185.5 39t-131.5 110t-77.5 171.5t-25.5 222.5zM447 1309q0 130 72.5 198.5t197.5 68.5q49 0 91.5 -10.5t82.5 -25.5t79.5 -32.5 t82.5 -33t91.5 -25.5t107.5 -10v-130q-102 0 -179 21t-138 46t-111 46t-99 21q-57 0 -89.5 -33.5t-32.5 -100.5h-156zM716 1240q0 43 27 71t78 28q60 0 91.5 -38.5t31.5 -100.5q0 -40 -12.5 -74t-39 -59t-65.5 -38.5t-92 -12.5v40q0 12 9 20t32 13q33 7 50 21t19 46 q-5 -2 -11 -2h-11q-30 0 -50 7t-33 19t-18.5 27.5t-5.5 32.5z" unicode="ѽ" glyph-name="uni047D" horiz-adv-x="1600"/>
<glyph d="M87 0zM87 753q0 154 29.5 289.5t94 236t167 159t247.5 58.5q119 0 202.5 -37.5t144.5 -95.5l-58 -136q-14 -23 -26 -29.5t-30 -6.5q-16 0 -33.5 11t-40.5 24t-55 24.5t-76 11.5q-138 0 -215 -130t-77 -394q0 -253 80.5 -387t251.5 -134q81 0 148 29.5t123 87.5v467h277 v-468q55 -57 122 -86.5t147 -29.5q171 0 252 134t81 387q0 264 -76.5 394t-215.5 130q-45 0 -76 -11.5t-54 -24.5t-40.5 -24t-33.5 -11q-17 0 -29.5 6.5t-27.5 29.5l-57 136q60 58 143.5 95.5t203.5 37.5q144 0 246 -58.5t166.5 -159t94.5 -236.5t30 -289q0 -178 -37.5 -321 t-111.5 -242.5t-182.5 -152.5t-250.5 -53q-132 0 -238.5 44.5t-194.5 128.5q-88 -83 -194.5 -128t-237.5 -45q-142 0 -251.5 53t-183 152.5t-111 242t-37.5 321.5zM646 1835h911q0 -14 -2 -24.5t-4 -22.5l-62 -207q-5 -15 -15.5 -22.5t-22 -7.5t-22 8t-14.5 22l-38 130h-200 l-40 -130q-5 -15 -15 -22.5t-21.5 -7.5t-21.5 8t-14 22l-38 130h-203l-40 -130q-5 -15 -15 -22.5t-21.5 -7.5t-22 8t-15.5 22l-58 206q-2 11 -4 22.5t-2 25.5z" unicode="Ѿ" glyph-name="uni047E" horiz-adv-x="2204"/>
<glyph d="M103 0zM103 605v446h172q39 0 55.5 -22.5t16.5 -50.5v-345q0 -127 45 -227.5t122 -174.5q35 36 65 81t52.5 96.5t36 108t13.5 116.5v418h172q39 0 55.5 -22.5t16.5 -50.5v-336q0 -118 44 -223.5t123 -186.5q35 36 67.5 82.5t57 105.5t39.5 131.5t15 160.5q0 62 -7 107 t-14.5 78t-14 56t-6.5 41q0 20 13 38.5t39 18.5h192q20 -91 30 -172t10 -163q0 -118 -20 -218.5t-59 -188t-95 -163.5t-128 -146h-148q-20 0 -32 7t-27 25q-55 59 -109 138.5t-93 172.5q-38 -92 -91 -172t-109 -139q-15 -17 -24.5 -24.5t-30.5 -7.5h-153 q-61 59 -114.5 129.5t-92.5 147.5t-61.5 160t-22.5 168zM347 1405h911q0 -14 -2 -24.5t-4 -22.5l-62 -207q-5 -15 -15.5 -22.5t-22 -7.5t-22 8t-14.5 22l-38 130h-200l-40 -130q-5 -15 -15 -22.5t-21.5 -7.5t-21.5 8t-14 22l-38 130h-203l-40 -130q-5 -15 -15 -22.5 t-21.5 -7.5t-22 8t-15.5 22l-58 206q-2 11 -4 22.5t-2 25.5z" unicode="ѿ" glyph-name="uni047F" horiz-adv-x="1605"/>
<glyph d="M79 740q0 167 53 306t150 239t231.5 156t297.5 56q162 0 287.5 -53t213.5 -139l-92 -128q-9 -12 -22 -21.5t-36 -9.5q-15 0 -31 8.5t-35.5 21.5t-45 28.5t-59.5 28t-79 21.5t-103 9q-98 0 -180.5 -35.5t-142 -102.5t-92.5 -164t-33 -221q0 -125 34.5 -222t94.5 -163.5 t142.5 -102t179.5 -35.5q58 0 92.5 5t56.5 12t38.5 12t38.5 5h78v-527q0 -35 -20 -55.5t-52 -20.5h-157v346q-27 -2 -52 -2.5t-42 -0.5q-164 0 -296 55t-225 154.5t-143 237t-50 302.5z" unicode="Ҁ" glyph-name="uni0480" horiz-adv-x="1302"/>
<glyph d="M69 527q0 116 33 215t97.5 171t160 113t219.5 41q118 0 206 -38t159 -108l-66 -93q-11 -14 -22 -22t-32 -8q-19 0 -37.5 11.5t-44 26.5t-61 26.5t-87.5 11.5q-67 0 -117 -24t-83.5 -69t-49.5 -109t-16 -145q0 -84 18 -149.5t51.5 -110t81.5 -67.5t109 -23q35 0 58.5 5 t39 11.5t25 11.5t16.5 5h96v-488q0 -35 -20 -55t-51 -20h-158v340q-13 -1 -26 -1.5t-26 -0.5q-97 0 -183.5 36t-151 106t-101.5 170.5t-37 229.5z" unicode="ҁ" glyph-name="uni0481" horiz-adv-x="956"/>
<glyph d="M33 721l124 183l375 -259l231 335l-375 258l125 183l376 -259l231 336l212 -139l-234 -341l369 -254l-124 -183l-371 255l-231 -334l371 -255l-125 -184l-372 256l-232 -336l-211 139l235 341z" unicode="҂" glyph-name="uni0482" horiz-adv-x="1500"/>
<glyph d="M-28 1243q0 37 11.5 63t31.5 43t46 24.5t57 7.5h516v100h67q29 0 55 -9t46 -26.5t32.5 -42.5t12.5 -58q0 -37 -11.5 -63.5t-31.5 -43t-46.5 -24.5t-56.5 -8h-516v-98h-67q-29 0 -55.5 8.5t-46.5 25.5t-32 42t-12 59z" unicode="҃" glyph-name="uni0483" horiz-adv-x="819"/>
<glyph d="M-2 1185v151q66 0 117.5 11.5t96 28.5t84 36.5t80.5 36t86 28t101 11.5q152 0 218 -77.5t66 -225.5h-179q0 44 -10.5 73t-28 46t-39.5 23.5t-46 6.5q-41 0 -76 -11t-69.5 -27.5t-72.5 -36t-85 -36t-106.5 -27.5t-136.5 -11z" unicode="҄" glyph-name="uni0484" horiz-adv-x="819"/>
<glyph d="M284 1372q0 74 38 114t112 40q61 0 94.5 -34t33.5 -86q0 -20 -6.5 -39.5t-22 -34t-40.5 -23.5t-62 -9h-12.5t-10.5 2q5 -33 24 -50.5t55 -25.5q29 -6 40.5 -15.5t11.5 -24.5v-49q-65 -1 -113 18t-79.5 51t-47 75t-15.5 91z" unicode="҅" glyph-name="uni0485" horiz-adv-x="819"/>
<glyph d="M284 1404q0 52 33 85.5t95 33.5q37 0 64.5 -13t47 -35t29 -52.5t9.5 -67.5q0 -48 -16 -89t-47 -70.5t-79 -45.5t-113 -16v50q0 15 11 24.5t40 15.5q39 8 58.5 25t22.5 53q-11 -3 -24 -4q-37 0 -62 9t-40.5 23.5t-22 33.5t-6.5 40z" unicode="҆" glyph-name="uni0486" horiz-adv-x="819"/>
<glyph d="M73 571q0 57 17.5 105.5t51.5 83t85 54t120 19.5t120 -19.5t85.5 -54t52 -82.5t17.5 -106h-178q0 53 -20 79.5t-77 26.5t-77 -26t-20 -80h-177zM270 112q0 57 17.5 105t52 82.5t85.5 54t119 19.5q69 0 120.5 -19.5t85.5 -54t51.5 -82.5t17.5 -105h-177q0 52 -20.5 78.5 t-77.5 26.5t-77 -26.5t-20 -78.5h-177zM270 1031q0 57 17.5 105.5t52 82.5t85.5 53.5t119 19.5q69 0 120.5 -19.5t85.5 -53.5t51.5 -82t17.5 -106h-177q0 53 -20.5 79.5t-77.5 26.5t-77 -26.5t-20 -79.5h-177zM885 -237q0 57 17.5 105.5t51.5 83t85 54t120 19.5t120.5 -19.5 t86 -54t51.5 -82.5t17 -106h-178q0 53 -19.5 79.5t-77.5 26.5q-57 0 -77 -26t-20 -80h-177zM885 1378q0 57 17.5 105.5t51.5 83.5t85 54t120 19t120.5 -19t86 -54t51.5 -83t17 -106h-178q0 53 -19.5 80t-77.5 27q-57 0 -77 -26.5t-20 -80.5h-177zM1500 112q0 57 17 105 t51.5 82.5t85.5 54t120 19.5t120.5 -19.5t85.5 -54t51.5 -82.5t17.5 -105h-177q0 52 -20.5 78.5t-77.5 26.5t-77 -26.5t-20 -78.5h-177zM1500 1031q0 57 17 105.5t51.5 82.5t85.5 53.5t120 19.5t120.5 -19.5t85.5 -53.5t51.5 -82t17.5 -106h-177q0 53 -20.5 79.5t-77.5 26.5 t-77 -26.5t-20 -79.5h-177zM1698 571q0 57 17 105.5t51 83t85 54t120 19.5t120.5 -19.5t86 -54t52 -82.5t17.5 -106h-177q0 53 -20.5 79.5t-78.5 26.5q-57 0 -76.5 -26t-19.5 -80h-177z" unicode="҈" glyph-name="uni0488" horiz-adv-x="2319"/>
<glyph d="M52 741l37 38q14 17 34 17q8 0 16.5 -5.5t16.5 -12.5l27.5 -25t37.5 -29.5t46 -27.5t54 -19q1 58 40.5 94.5t98.5 36.5q27 0 49.5 -10t39.5 -27t27 -41t10 -54q0 -36 -13 -62t-34.5 -43t-50 -25.5t-60.5 -8.5q-45 0 -94 13t-99 39t-97 64.5t-86 87.5zM305 11q-2 12 1 20 t11 16q5 5 15.5 7.5t20.5 2.5q15 0 37.5 1.5t47.5 6.5t52 14t52 24q-41 42 -39 95t44 96q18 18 41.5 27.5t48.5 9t49 -11t44 -30.5q25 -26 35 -53t7 -54.5t-17.5 -54t-36.5 -48.5q-32 -31 -76.5 -56.5t-98 -42.5t-113.5 -23t-123 1zM423 1352q-6 60 1 123l53 2 q12 1 20.5 -2.5t16.5 -11.5q5 -5 7.5 -14.5t2.5 -20.5q0 -15 1.5 -37t6 -47t13.5 -52t24 -52q43 41 96 38.5t96 -43.5q37 -38 37 -89t-42 -93q-26 -25 -53.5 -34.5t-55 -7t-54 16.5t-48.5 37q-31 32 -56.5 76.5t-42.5 97.5t-23 113zM974 -7q0 26 9.5 49t27 39.5t42 26.5 t54.5 10q35 0 61.5 -12.5t44 -34t26 -50t8.5 -60.5q0 -44 -13 -93.5t-39.5 -99t-64.5 -96.5t-89 -86l-39 36q-16 13 -16 35q0 7 5 16t14 16q10 11 24 27.5t29 38t27.5 46.5t18.5 54q-29 0 -53 10.5t-41 29t-26.5 43.5t-9.5 55zM1001 1354q0 44 14 93.5t40 98.5t64.5 96.5 t87.5 86.5l39 -36q10 -8 14 -16t4 -19q0 -7 -6 -16t-13 -16l-25 -27.5t-29.5 -38t-27.5 -46.5t-19 -54q29 0 53.5 -10.5t41.5 -29t27 -44t10 -54.5q0 -27 -10 -49.5t-27.5 -39t-42.5 -26.5t-54 -10q-36 0 -62 12.5t-43.5 34t-26.5 50t-9 60.5zM1451.5 169q0.5 25 11 49 t31.5 44q25 25 52.5 34.5t55 7t53.5 -17t49 -36.5q32 -32 57.5 -76.5t42 -97.5t22.5 -113t-1 -123l-53 -2q-12 -1 -20 2t-16 12q-5 5 -8.5 14.5t-2.5 19.5q-1 15 -2 37.5t-5.5 48t-13.5 52t-25 51.5q-20 -20 -45 -29.5t-50 -9t-50.5 12t-45.5 31.5q-18 18 -27.5 41t-9 48z M1477.5 1133.5q2.5 27.5 16.5 53.5t37 49q32 31 76.5 56.5t98 42.5t113.5 23t124 -1l1 -53q3 -23 -13 -36q-5 -5 -15 -8t-21 -3q-15 -1 -37 -2t-47 -5.5t-52 -13.5t-52 -25q20 -20 30 -44.5t9.5 -49.5t-11.5 -49.5t-33 -46.5q-18 -18 -41.5 -27.5t-48 -9t-48.5 11t-45 30.5 q-25 26 -34.5 53t-7 54.5zM1663 639q0 35 13 61.5t34.5 43.5t50 25.5t60.5 8.5q44 0 93.5 -13t99 -39.5t97 -64.5t85.5 -88l-35 -37q-14 -17 -35 -17q-8 0 -17 5t-16 13q-11 9 -27.5 23.5t-37.5 29.5t-46 28t-54 19q0 -29 -10.5 -53t-29.5 -41t-44 -26.5t-55 -9.5 q-27 0 -50 9.5t-40 27t-26.5 41.5t-9.5 54z" unicode="҉" glyph-name="uni0489" horiz-adv-x="2240"/>
<glyph d="M165 0v1481h276v-928q0 -52 -3 -110.5t-11 -123.5q20 57 44.5 106.5t47.5 87.5l565 883q9 15 22 30.5t28.5 27t33.5 19.5t38 8h207v-1269h207l-162 -564h-269l113 352h-165v928q0 52 2.5 109t10.5 121q-20 -56 -44 -104.5t-46 -85.5l-566 -883q-9 -15 -22 -30.5 t-28.5 -27.5t-34 -19.5t-37.5 -7.5h-207zM468 1782q0 27 13 49t39 22h150q0 -47 6 -77.5t21.5 -48.5t40.5 -25t64 -7q38 0 63.5 7t41 25t21.5 48.5t6 77.5h149q27 0 40 -22.5t13 -48.5q0 -52 -23.5 -92t-68 -67t-105.5 -40.5t-137 -13.5t-137.5 13.5t-105.5 40.5t-67.5 67 t-23.5 92z" unicode="Ҋ" glyph-name="uni048A" horiz-adv-x="1652"/>
<glyph d="M125 -1v1051h253v-614q0 -24 -2.5 -52t-6.5 -56q23 50 45 83q1 2 19.5 27.5t47.5 66.5t66 92.5t75 105.5q89 126 202 285q14 23 38 43t53 20h154v-864h200l-156 -539h-236l112 352h-173v613q0 24 2 51.5t7 56.5q-11 -24 -22 -45t-23 -37q-2 -2 -20.5 -28t-47.5 -67 t-66 -93t-75 -105q-89 -126 -201 -285q-14 -22 -37.5 -42t-52.5 -20h-155zM278 1410q0 27 12.5 49t39.5 22h149q0 -46 6.5 -78t21.5 -51t40 -27t64 -8q38 0 63.5 8t41 27t21.5 51t6 78h150q27 0 39.5 -22t12.5 -49q0 -52 -23.5 -94.5t-67.5 -72t-105.5 -45t-137.5 -15.5 t-137 15.5t-105 45t-67.5 72t-23.5 94.5z" unicode="ҋ" glyph-name="uni048B" horiz-adv-x="1281"/>
<glyph d="M37 1079v204h242v198h275v-198h352v-204h-352v-211h242q144 0 247 -31.5t168 -86.5t95.5 -129t30.5 -159q0 -104 -36 -189.5t-106 -146t-170.5 -93.5t-229.5 -33h-516v1079h-242zM554 215h241q77 0 128.5 17t83 46.5t45 69.5t13.5 86q0 50 -13.5 91t-45 69.5t-83 43.5 t-127.5 15h-242v-438z" unicode="Ҍ" glyph-name="uni048C" horiz-adv-x="1379"/>
<glyph d="M41 774v179h175v121h240v-121h218v-179h-218v-112h186q111 0 186.5 -27t122.5 -72t68 -104t21 -123q0 -74 -26.5 -136t-77 -106.5t-124 -69t-167.5 -24.5h-429v774h-175zM456 181h188q86 0 128.5 43t42.5 111q0 29 -9.5 55.5t-30 47t-53.5 32t-79 11.5h-187v-300z" unicode="ҍ" glyph-name="uni048D" horiz-adv-x="1083"/>
<glyph d="M165 0v1481h481q148 0 257 -35t179.5 -97.5t105 -149.5t34.5 -190q0 -139 -59 -246t-177 -169l87 -135l-165 -105l-115 178q-34 -5 -71 -8t-76 -3h-206v-521h-275zM440 736h206h16l-94 145l165 104l122 -189q46 36 68.5 89.5t22.5 123.5q0 59 -18.5 107t-55 82t-93 52 t-133.5 18h-206v-532z" unicode="Ҏ" glyph-name="uni048E" horiz-adv-x="1267"/>
<glyph d="M125 -343v1394h155q49 0 64 -46l21 -98q63 73 145.5 118t192.5 45q86 0 157.5 -36t123 -104t80 -167.5t28.5 -228.5q0 -151 -51.5 -271.5t-144.5 -192.5l102 -158l-164 -105l-119 184q-36 -6 -75 -6q-89 0 -151 27t-111 75v-430h-253zM378 272q43 -53 93.5 -74t110.5 -21 h12l-100 157l164 104l109 -169q31 45 47 110t16 155q0 92 -14.5 156t-42.5 104t-67 58t-90 18q-79 0 -134.5 -33t-103.5 -94v-471z" unicode="ҏ" glyph-name="uni048F" horiz-adv-x="1162"/>
<glyph d="M165 0v1481h700v328h213v-540h-637v-1269h-276z" unicode="Ґ" glyph-name="afii10050" horiz-adv-x="1108"/>
<glyph d="M125 0v1051h482v253h230v-441h-459v-863h-253z" unicode="ґ" glyph-name="afii10098" horiz-adv-x="861"/>
<glyph d="M36 656v205h242v620h913v-212h-637v-408h352v-205h-352v-656h-276v656h-242z" unicode="Ғ" glyph-name="uni0492" horiz-adv-x="1223"/>
<glyph d="M41 435v179h175v437h712v-188h-459v-249h207v-179h-207v-435h-253v435h-175z" unicode="ғ" glyph-name="uni0493" horiz-adv-x="954"/>
<glyph d="M165 0v1481h913v-212h-637v-449q60 29 124.5 44.5t140.5 15.5q109 0 208 -30.5t174 -100.5t119.5 -183t44.5 -279q0 -153 -40.5 -275t-114 -206.5t-176 -129.5t-226.5 -45q-55 0 -109 7t-112 21l15 165q2 22 17 35.5t44 13.5q17 0 45.5 -7t71.5 -7q74 0 133.5 23.5 t102.5 74t66.5 129t23.5 188.5q0 118 -25 196.5t-70.5 125t-108 66t-137.5 19.5q-74 0 -122.5 -18t-88.5 -41v-622h-276z" unicode="Ҕ" glyph-name="uni0494" horiz-adv-x="1301"/>
<glyph d="M125 0v1051h712v-188h-459v-317q46 34 99.5 52t120.5 18q92 0 162 -33t117.5 -93.5t71.5 -145.5t24 -188q0 -120 -32.5 -217.5t-88 -166t-132.5 -105.5t-166 -37q-42 0 -82 5t-84 16q1 19 3 33.5t3.5 28.5t3 28.5t3.5 34.5t16 33t39 13q12 0 30 -3.5t41 -3.5 q42 0 77.5 15.5t60.5 54t39.5 101.5t14.5 158q0 84 -14 139.5t-40 87t-63.5 44.5t-83.5 13q-48 0 -79.5 -13.5t-60.5 -33.5v-381h-253z" unicode="ҕ" glyph-name="uni0495" horiz-adv-x="1020"/>
<glyph d="M1 0l387 628q36 62 78.5 99t96.5 55q-46 17 -77.5 48.5t-61.5 78.5l-382 572h218q42 0 77.5 -20.5t56.5 -57.5l303 -469q28 -45 61 -59.5t75 -14.5h130v621h259v-621h131q42 0 74 14.5t61 59.5l302 469q22 37 57 57.5t78 20.5h217l-382 -572q-30 -47 -62 -78t-77 -49 q54 -18 97 -55t79 -99l255 -416h229v-485q0 -36 -24 -57.5t-63 -21.5h-165v352h-29q-60 0 -103 26t-68 69l-303 474q-28 45 -61.5 63.5t-86.5 18.5h-156v-651h-259v651h-157q-51 0 -85.5 -18.5t-61.5 -63.5l-303 -474q-26 -43 -68.5 -69t-102.5 -26h-184z" unicode="Җ" glyph-name="uni0496" horiz-adv-x="2283"/>
<glyph d="M16 0l246 433q26 46 58.5 76.5t83.5 45.5q-38 14 -64.5 39.5t-50.5 65.5l-246 391h200q35 0 64 -18t45 -49l178 -302q19 -33 45.5 -49t69.5 -16h70v434h244v-434h65q43 0 71 16t48 49l178 302q16 31 45.5 49t65.5 18h198l-246 -391q-25 -41 -51 -66t-64 -39 q51 -15 83.5 -45.5t58.5 -76.5l139 -246h201v-463q0 -35 -20 -55.5t-52 -20.5h-157v352h-39q-68 0 -102.5 20.5t-55.5 66.5l-156 291q-19 38 -51.5 56.5t-75.5 18.5h-83v-453h-244v453h-84q-42 0 -75 -18.5t-52 -56.5l-156 -291q-20 -46 -55 -66.5t-103 -20.5h-174z" unicode="җ" glyph-name="uni0497" horiz-adv-x="1769"/>
<glyph d="M24 180l80 132q11 14 27 24t36 10q27 0 58.5 -21t76.5 -46.5t107 -46.5t149 -21q138 0 214 59.5t76 182.5q0 50 -20.5 90t-58.5 67.5t-91.5 42.5t-119.5 15h-209l-1 221h191q128 0 200 50.5t72 146.5q0 85 -68 136t-197 51q-75 0 -128.5 -16.5t-93 -35.5t-67 -35.5 t-48.5 -16.5q-20 0 -34.5 10.5t-27.5 30.5l-67 131q86 74 204 115t263 41q120 0 216.5 -28.5t164 -80.5t104 -123t36.5 -156q0 -104 -48 -189t-143 -138q51 -25 93.5 -58t72.5 -73.5t47 -87.5t17 -99q0 -89 -29 -167.5t-85.5 -140.5t-138.5 -104t-187 -57q52 -27 80.5 -68 t28.5 -89q0 -42 -15 -77t-43 -61t-68.5 -40.5t-90.5 -14.5q-57 0 -108 14.5t-83 37.5l38 93q6 16 24 16q5 0 10.5 -2t13.5 -5t20 -5t32 -2q46 0 69 28.5t23 68.5q0 30 -10 56t-43 41q-77 0 -150.5 14t-141 40t-125.5 61.5t-104 78.5z" unicode="Ҙ" glyph-name="uni0498" horiz-adv-x="1190"/>
<glyph d="M37 157l73 92q15 24 46 23q24 0 45 -14.5t49.5 -32.5t67 -33t97.5 -15q95 0 144 43t49 108q0 63 -50.5 99t-164.5 36h-119v165h119q99 0 152.5 34.5t53.5 92.5q0 52 -46.5 85.5t-137.5 33.5q-54 0 -92 -11t-65.5 -24t-45.5 -24t-35 -11t-29.5 6.5t-26.5 29.5l-58 97 q59 57 147.5 93.5t211.5 36.5q97 0 173 -23t127.5 -62.5t78.5 -90t27 -106.5q0 -31 -8.5 -63t-29 -62t-53 -56.5t-81.5 -45.5q87 -32 140 -95t53 -157q0 -61 -23 -111.5t-63 -89.5t-93.5 -66t-113.5 -40q57 -27 88 -69.5t31 -91.5q0 -42 -15 -77t-43 -61t-68.5 -40.5 t-90.5 -14.5q-57 0 -108 14.5t-84 37.5l38 93q7 16 25 16q5 0 10.5 -2t13 -5t20 -5t31.5 -2q46 0 69.5 28.5t23.5 68.5q0 29 -10.5 55t-41.5 41h-14q-45 0 -96.5 8t-104 28t-102.5 53.5t-91 82.5z" unicode="ҙ" glyph-name="uni0499" horiz-adv-x="922"/>
<glyph d="M165 0v1481h275v-621h140q42 0 72.5 14.5t57.5 53.5l324 479q20 33 48 53.5t67 20.5h235l-402 -594q-26 -39 -60 -64.5t-74 -40.5q61 -17 103.5 -54.5t81.5 -102.5l256 -413h208v-485q0 -36 -24.5 -57.5t-62.5 -21.5h-166v352h-73q-39 0 -65 20.5t-48 60.5l-316 498 q-12 22 -26 35.5t-29.5 22t-35.5 11.5t-46 3h-165v-651h-275z" unicode="Қ" glyph-name="uni049A" horiz-adv-x="1503"/>
<glyph d="M125 0v1051h253v-434h82q43 0 69 16t44 49l180 302q18 30 50 48.5t67 18.5h199l-245 -391q-26 -41 -52.5 -66t-63.5 -39q51 -15 83.5 -45.5t59.5 -76.5l139 -246h200v-463q0 -35 -20.5 -55.5t-52.5 -20.5h-158v352h-37q-67 0 -104 22.5t-62 64.5l-155 291 q-20 38 -52.5 56.5t-75.5 18.5h-95v-453h-253z" unicode="қ" glyph-name="uni049B" horiz-adv-x="1207"/>
<glyph d="M165 0v1481h275v-621h112v293h194v-290q27 5 48 20t39 45l283 479q17 33 46.5 53.5t68.5 20.5h227l-368 -594q-24 -39 -55 -64t-69 -40q61 -16 104 -53.5t78 -104.5l348 -625h-250q-77 0 -114 81l-274 498q-20 38 -46.5 53.5t-65.5 17.5v-257h-194v258h-112v-651h-275z " unicode="Ҝ" glyph-name="uni049C" horiz-adv-x="1517"/>
<glyph d="M125 0v1051h253v-434h77v232h170v-224q40 13 61 57l139 302q6 16 19 28.5t29 20.5t34.5 13t35.5 5h200l-207 -391q-22 -42 -48 -67t-64 -38q51 -14 83.5 -44.5t55.5 -77.5l206 -433h-174q-68 0 -109.5 19.5t-56.5 67.5l-116 291q-11 30 -35 46.5t-53 24.5v-258h-170v262 h-77v-453h-253z" unicode="ҝ" glyph-name="uni049D" horiz-adv-x="1204"/>
<glyph d="M37 1079v204h242v198h275v-198h265v-204h-265v-219h139q42 0 73 14.5t57 53.5l325 479q20 33 48 53.5t67 20.5h235l-402 -594q-26 -39 -60.5 -64.5t-73.5 -40.5q61 -17 103.5 -54.5t81.5 -102.5l388 -625h-250q-39 0 -65 20.5t-49 60.5l-315 498q-12 22 -26 35.5t-30 22 t-36 11.5t-45 3h-165v-651h-275v1079h-242z" unicode="Ҟ" glyph-name="uni049E" horiz-adv-x="1539"/>
<glyph d="M41 774v179h175v98h253v-98h174v-179h-174v-157h81q43 0 69 16t46 49l178 302q19 30 51 48.5t67 18.5h199l-246 -391q-26 -41 -52 -66t-64 -39q51 -15 83.5 -45.5t59.5 -76.5l246 -433h-174q-34 0 -59.5 5.5t-45 17t-34.5 27.5t-27 37l-156 291q-19 38 -52 56.5t-75 18.5 h-95v-453h-253v774h-175z" unicode="ҟ" glyph-name="uni049F" horiz-adv-x="1203"/>
<glyph d="M30 1262v219h693v-621h139q42 0 73 14.5t57 53.5l325 479q20 33 48 53.5t67 20.5h235l-402 -594q-26 -39 -60 -64.5t-75 -40.5q61 -17 104 -54.5t82 -102.5l389 -625h-251q-39 0 -65 20.5t-49 60.5l-315 498q-12 22 -26 35.5t-30 22t-36 11.5t-45 3h-165v-651h-276v1262 h-417z" unicode="Ҡ" glyph-name="uni04A0" horiz-adv-x="1708"/>
<glyph d="M26 860v191h575v-434h81q43 0 69 16t45 49l179 302q18 30 50 48.5t68 18.5h198l-244 -391q-26 -41 -52.5 -66t-64.5 -39q51 -15 84 -45.5t59 -76.5l246 -433h-175q-67 0 -103.5 22.5t-62.5 64.5l-155 291q-20 38 -52.5 56.5t-75.5 18.5h-94v-453h-254v860h-321z" unicode="ҡ" glyph-name="uni04A1" horiz-adv-x="1335"/>
<glyph d="M165 0v1481h276v-637h696v637h276v-1269h212v-485q0 -36 -24 -57.5t-63 -21.5h-165v352h-236v647h-696v-647h-276z" unicode="Ң" glyph-name="uni04A2" horiz-adv-x="1678"/>
<glyph d="M125 0v1051h253v-399h409v399h253v-864h194v-463q0 -35 -20.5 -55.5t-52.5 -20.5h-157v352h-217v465h-409v-465h-253z" unicode="ң" glyph-name="uni04A3" horiz-adv-x="1267"/>
<glyph d="M165 0v1481h276v-637h696v637h912v-212h-636v-1269h-276v647h-696v-647h-276z" unicode="Ҥ" glyph-name="uni04A4" horiz-adv-x="2079"/>
<glyph d="M125 0v1051h253v-399h409v399h712v-188h-459v-863h-253v465h-409v-465h-253z" unicode="ҥ" glyph-name="uni04A5" horiz-adv-x="1524"/>
<glyph d="M165 0v1481h1197v-660q60 29 124 44t139 15q109 0 208 -30.5t174.5 -100.5t120 -183t44.5 -279q0 -153 -40.5 -275t-114 -206.5t-176 -129.5t-226.5 -45q-55 0 -108.5 7t-111.5 21q3 40 6.5 81.5t7.5 82.5q3 22 17.5 35.5t42.5 13.5q17 0 45.5 -6.5t71.5 -6.5 q74 0 134 23.5t103 74t66.5 129t23.5 188.5q0 118 -25 196.5t-70.5 125t-108 66t-137.5 19.5q-73 0 -122 -18t-88 -40v-623h-278v1269h-643v-1269h-276z" unicode="Ҧ" glyph-name="uni04A6" horiz-adv-x="2220"/>
<glyph d="M125 0v1051h915v-504q46 34 100 51.5t121 17.5q92 0 162 -33t117 -93.5t71 -145.5t24 -188q0 -120 -32 -217.5t-88 -166t-132.5 -105.5t-165.5 -37q-43 0 -83 5t-84 16q2 19 3.5 33.5t3.5 28.5t3.5 28.5t3.5 34.5t16 33t38 13q12 0 29.5 -3.5t41.5 -3.5q42 0 77.5 15.5 t61 54t39.5 101.5t14 158q0 84 -14 139.5t-40.5 87t-63 44.5t-82.5 13q-48 0 -80 -13.5t-61 -33.5v-381h-253v863h-409v-863h-253z" unicode="ҧ" glyph-name="uni04A7" horiz-adv-x="1676"/>
<glyph d="M79 740q0 167 50.5 306t148 238.5t239 155.5t324.5 56q34 0 63 -2.5t57.5 -7t57.5 -12t61 -16.5l-14 -103q-3 -20 -10 -40t-18 -34.5t-25 -23.5t-29 -9q-16 0 -32.5 2t-36.5 5t-45.5 5.5t-60.5 2.5q-99 0 -181.5 -35.5t-142 -102.5t-92.5 -164t-33 -221q0 -125 33 -222 t93.5 -163.5t144.5 -102t187 -35.5q19 0 38.5 1.5t36.5 3.5q-67 82 -107 197.5t-40 270.5q0 109 24.5 195t72 145t118 90t162.5 31q99 0 171.5 -36.5t119 -99t68.5 -147.5t22 -181q0 -146 -49 -267t-136 -212q28 -5 52 -6.5t43 -1.5q56 0 92.5 6.5t67.5 6.5q32 0 56 -22 t29 -64l15 -103q-61 -18 -132.5 -27.5t-140.5 -9.5t-144.5 15.5t-149.5 51.5q-74 -35 -155 -52.5t-167 -17.5q-159 0 -288.5 56t-223 156.5t-144 239.5t-50.5 304zM990 684q0 -70 9.5 -126.5t25.5 -102t38 -81t49 -62.5q75 65 112 159.5t37 209.5q0 46 -6.5 93.5t-21.5 86 t-41.5 62.5t-66.5 24q-59 0 -97 -64t-38 -199z" unicode="Ҩ" glyph-name="uni04A8" horiz-adv-x="1693"/>
<glyph d="M68 527q0 116 33 215t98 171t160.5 113t219.5 41q41 0 81 -6t79 -21l-14 -103q-3 -20 -9 -33t-16 -20t-22.5 -10t-28.5 -3q-11 1 -26 2t-29 1q-67 0 -117 -24t-83.5 -69t-49.5 -109t-16 -145q0 -84 20.5 -151t59 -113.5t95.5 -71t130 -24.5h19q-61 70 -94.5 158.5 t-33.5 193.5q0 80 23.5 142.5t66.5 105t103.5 64.5t133.5 22q74 0 136 -25t106.5 -69t69 -105t24.5 -132q-1 -98 -44.5 -188t-118.5 -162q14 -2 29 -3.5t31 -1.5q27 0 41.5 3t29.5 4q40 0 59.5 -15.5t25.5 -55.5l13 -98q-31 -9 -73 -14.5t-89 -5.5q-74 0 -140 14t-125 41 q-60 -27 -125.5 -41t-133.5 -14q-102 0 -193 36t-159.5 106t-107.5 170.5t-39 229.5zM762 515q0 -77 25 -143.5t72 -114.5q45 46 68 110t23 138q0 71 -24.5 110t-70.5 39t-69.5 -37t-23.5 -102z" unicode="ҩ" glyph-name="uni04A9" horiz-adv-x="1286"/>
<glyph d="M79 740q0 167 53 306t150 239t231 156t297 56q162 0 287.5 -53t213.5 -139l-92 -128q-8 -12 -21 -21.5t-36 -9.5q-15 0 -31.5 8.5t-36 21.5t-45 28.5t-59.5 28t-78.5 21.5t-102.5 9q-99 0 -181.5 -35.5t-142 -102.5t-92.5 -164t-33 -221q0 -125 35.5 -222t96 -163.5 t142.5 -102t176 -35.5q56 0 101.5 6t84 19.5t73 34.5t68.5 52q10 9 21 14.5t24 5.5q23 0 40 -17l108 -118q-79 -99 -190.5 -156.5t-261.5 -69.5q46 -27 71 -66t25 -84q0 -42 -15 -77t-43 -61t-68.5 -40.5t-90.5 -14.5q-57 0 -108 14.5t-84 37.5l38 93q7 16 25 16 q5 0 10.5 -2t13 -5t20 -5t31.5 -2q46 0 69.5 28.5t23.5 68.5q0 30 -10.5 56t-42.5 41q-154 8 -276.5 67.5t-209 159t-132.5 234.5t-46 293z" unicode="Ҫ" glyph-name="uni04AA" horiz-adv-x="1354"/>
<glyph d="M69 527q0 116 33 215t97.5 171t160 113t219.5 41q118 0 206 -38t159 -108l-66 -93q-11 -14 -22 -22t-32 -8q-19 0 -37.5 11.5t-44 26.5t-61 26.5t-87.5 11.5q-67 0 -117 -24t-83.5 -69t-49.5 -109t-16 -145q0 -84 18 -149.5t51.5 -110t81.5 -67.5t109 -23q60 0 97.5 15 t63 33t44.5 32.5t43 14.5q31 0 46 -23l72 -92q-60 -71 -132.5 -109t-151.5 -52q55 -27 84 -68t29 -90q0 -42 -14.5 -77t-43 -61t-69 -40.5t-90.5 -14.5q-57 0 -107.5 14.5t-83.5 37.5l38 93q6 16 24 16q5 0 11 -2t13.5 -5t20 -5t31.5 -2q46 0 69 28.5t23 68.5q0 29 -10 55 t-41 41h-12q-97 0 -183.5 36t-151 106t-101.5 170.5t-37 229.5z" unicode="ҫ" glyph-name="uni04AB" horiz-adv-x="987"/>
<glyph d="M31 1254v227h1168v-227h-446v-1042h212v-485q0 -36 -24.5 -57.5t-62.5 -21.5h-166v352h-235v1254h-446z" unicode="Ҭ" glyph-name="uni04AC" horiz-adv-x="1236"/>
<glyph d="M25 863v188h1001v-188h-375v-676h194v-463q0 -35 -20.5 -55.5t-51.5 -20.5h-159v352h-216v863h-373z" unicode="ҭ" glyph-name="uni04AD" horiz-adv-x="1060"/>
<glyph d="M-16 1481h242q36 0 57 -17.5t35 -44.5l271 -494q24 -45 41.5 -84t32.5 -77q13 39 30.5 78t39.5 83l269 494q11 23 34 42.5t58 19.5h243l-539 -906v-575h-276v575z" unicode="Ү" glyph-name="uni04AE" horiz-adv-x="1320"/>
<glyph d="M6 1051h210q28 0 46.5 -14t26.5 -33l203 -516q16 -46 27.5 -89.5t21.5 -88.5q9 45 21.5 88.5t30.5 89.5l208 516q8 20 26 33.5t43 13.5h200l-405 -978v-416h-253v419z" unicode="ү" glyph-name="uni04AF" horiz-adv-x="1076"/>
<glyph d="M1 1481h243q36 0 56.5 -17.5t36.5 -44.5l270 -447q24 -40 42 -73t32 -64q12 32 29.5 65t41.5 72l268 447q13 22 34.5 42t56.5 20h245l-540 -829v-65h307v-204h-307v-383h-275v383h-308v204h308v65z" unicode="Ұ" glyph-name="uni04B0" horiz-adv-x="1356"/>
<glyph d="M10 1051h210q28 0 46.5 -14t26.5 -33l203 -516q16 -46 28 -89.5t21 -88.5q9 45 22 88.5t30 89.5l208 516q8 20 26 33.5t43 13.5h200l-405 -978v-62h212v-179h-212v-175h-253v175h-212v179h212v65z" unicode="ұ" glyph-name="uni04B1" horiz-adv-x="1084"/>
<glyph d="M2 0l492 762l-472 719h274q29 0 41.5 -8t23.5 -25l336 -543q5 12 11.5 25t14.5 26l309 487q11 19 24.5 28.5t34.5 9.5h263l-476 -708l355 -561h176v-485q0 -36 -24 -57.5t-63 -21.5h-166v352h-63q-29 0 -46 14.5t-27 32.5l-343 567q-7 -23 -20 -43l-328 -524 q-12 -17 -28 -32t-42 -15h-257z" unicode="Ҳ" glyph-name="uni04B2" horiz-adv-x="1429"/>
<glyph d="M4 0l360 542l-346 509h244q28 0 41 -8t24 -25l220 -351q5 17 12.5 34.5t19.5 34.5l177 277q23 38 58 38h233l-347 -498l239 -367v1h193v-463q0 -35 -20.5 -55.5t-51.5 -20.5h-158v352h-85q-28 0 -44.5 14.5t-28.5 32.5l-223 366q-9 -37 -25 -62l-197 -304 q-11 -17 -27.5 -32t-41.5 -15h-226z" unicode="ҳ" glyph-name="uni04B3" horiz-adv-x="1150"/>
<glyph d="M30 1262v219h1113v-219h-418v-1050h642v1269h278v-1269h212v-485q0 -36 -24.5 -57.5t-63.5 -21.5h-165v352h-1157v1262h-417z" unicode="Ҵ" glyph-name="uni04B4" horiz-adv-x="1909"/>
<glyph d="M26 860v191h824v-191h-249v-673h409v864h253v-864h193v-463q0 -35 -20.5 -55.5t-52.5 -20.5h-157v352h-879v860h-321z" unicode="ҵ" glyph-name="uni04B5" horiz-adv-x="1489"/>
<glyph d="M80 992v489h277v-489q0 -86 30 -143t98 -84t180 -21t277 44v693h278v-1269h212v-485q0 -36 -24.5 -57.5t-62.5 -21.5h-166v352h-237v593q-120 -30 -230 -44t-205.5 -9t-174.5 31.5t-135 81t-86.5 137.5t-30.5 202z" unicode="Ҷ" glyph-name="uni04B6" horiz-adv-x="1484"/>
<glyph d="M71 701v350h253v-311q0 -65 21 -104t66.5 -57t117 -15t172.5 25v462h253v-864h193v-463q0 -35 -20 -55.5t-52 -20.5h-157v352h-217v413q-136 -33 -251 -37.5t-199.5 27.5t-132 104.5t-47.5 193.5z" unicode="ҷ" glyph-name="uni04B7" horiz-adv-x="1181"/>
<glyph d="M80 992v489h277v-489q0 -110 49.5 -172t165.5 -75v315h195v-306q39 6 82.5 14.5t92.5 19.5v693h278v-1481h-278v593q-46 -11 -89 -20t-86 -16v-256h-195v238q-110 -2 -200 20.5t-155 75.5t-101 141t-36 216z" unicode="Ҹ" glyph-name="uni04B8" horiz-adv-x="1384"/>
<glyph d="M69 701v350h253v-311q0 -73 26.5 -113t85.5 -55v277h169v-278q23 3 46.5 8t49.5 10v462h253v-1051h-253v413q-25 -6 -48.5 -11t-47.5 -10v-201h-169v184q-83 -1 -150 16.5t-115 56.5t-74 101.5t-26 151.5z" unicode="ҹ" glyph-name="uni04B9" horiz-adv-x="1078"/>
<glyph d="M165 0v1481h276v-594q119 30 226 44.5t197.5 9.5t164 -32t124.5 -81t79 -138t28 -202v-488h-277v489q0 85 -23.5 142t-84 83.5t-165.5 21t-269 -44.5v-691h-276z" unicode="Һ" glyph-name="uni04BA" horiz-adv-x="1333"/>
<glyph d="M125 0v1051h253v-414q135 33 250.5 37.5t200 -27.5t133 -104.5t48.5 -193.5v-349h-253v310q0 65 -21.5 104.5t-67 56.5t-117.5 14t-173 -23v-462h-253z" unicode="һ" glyph-name="uni04BB" horiz-adv-x="1071"/>
<glyph d="M10 971q0 45 10 86.5t31 91.5l147 -28q31 -6 42.5 -24.5t11.5 -32.5q0 -15 -6 -37t-6 -50q0 -51 31.5 -70t86.5 -19h4q17 130 73.5 242.5t146.5 195t211 129.5t271 47q139 0 256.5 -44.5t202.5 -130t132.5 -210t47.5 -282.5q0 -41 -3.5 -67.5t-13 -41.5t-25 -21t-39.5 -6 h-981q8 -120 43.5 -209t95.5 -147.5t143.5 -88.5t188.5 -30q88 0 153 21t115 46.5t87 46.5t71 21q22 0 38 -8.5t28 -22.5l83 -103q-61 -71 -134.5 -117.5t-152 -74t-159.5 -38.5t-160 -11q-146 0 -273 46t-224 136.5t-156 224t-71 308.5h-4q-66 0 -127 11.5t-109 41.5 t-77.5 83t-29.5 136zM646 888h790q0 84 -25.5 155t-73.5 123t-117 80.5t-158 28.5q-90 0 -162 -27t-124 -78t-85 -122.5t-45 -159.5z" unicode="Ҽ" glyph-name="uni04BC" horiz-adv-x="1774"/>
<glyph d="M37 730q0 45 9.5 86.5t31.5 91.5l95 -19q30 -8 39.5 -24.5t9.5 -30.5q0 -15 -6 -37t-6 -52q0 -49 30 -73t98 -26q14 90 55 167t104.5 133t149.5 88.5t189 32.5q99 0 183 -31.5t144.5 -92.5t94.5 -149.5t34 -202.5q0 -57 -12 -77t-47 -20h-650q6 -81 28.5 -140t59.5 -97.5 t87.5 -57.5t111.5 -19t106 14.5t78 32t58.5 31.5t48.5 14q32 0 47 -23l73 -92q-42 -49 -94 -82.5t-109 -53.5t-116 -28t-114 -8q-104 0 -195 32.5t-159.5 96.5t-111 159.5t-50.5 220.5q-59 1 -112.5 9.5t-94 33t-64.5 70.5t-24 123zM588 646h477q0 49 -14 92.5t-41.5 76.5 t-70 52t-98.5 19q-111 0 -173.5 -62.5t-79.5 -177.5z" unicode="ҽ" glyph-name="uni04BD" horiz-adv-x="1356"/>
<glyph d="M10 971q0 45 10 86.5t31 91.5l147 -28q31 -6 42.5 -24.5t11.5 -32.5q0 -15 -6 -37t-6 -50q0 -51 31.5 -70t86.5 -19h4q17 130 73.5 242.5t146.5 195t211 129.5t271 47q139 0 256.5 -44.5t202.5 -130t132.5 -210t47.5 -282.5q0 -41 -3.5 -67.5t-13 -41.5t-25 -21t-39.5 -6 h-981q8 -120 43.5 -209t95.5 -147.5t143.5 -88.5t188.5 -30q88 0 153 21t115 46.5t87 46.5t71 21q22 0 38 -8.5t28 -22.5l83 -103q-49 -56 -105 -96.5t-116.5 -68t-123.5 -44.5t-127 -24v-335h-252v335q-125 17 -231 71t-186 143t-129 213t-60 280h-4q-66 0 -127 11.5 t-109 41.5t-77.5 83t-29.5 136zM646 888h790q0 84 -25.5 155t-73.5 123t-117 80.5t-158 28.5q-90 0 -162 -27t-124 -78t-85 -122.5t-45 -159.5z" unicode="Ҿ" glyph-name="uni04BE" horiz-adv-x="1774"/>
<glyph d="M37 730q0 45 9.5 86.5t31.5 91.5l95 -19q30 -8 39.5 -24.5t9.5 -30.5q0 -15 -6 -37t-6 -52q0 -49 30 -73t98 -26q14 90 55 167t104.5 133t149.5 88.5t189 32.5q99 0 183 -31.5t144.5 -92.5t94.5 -149.5t34 -202.5q0 -57 -12 -77t-47 -20h-650q6 -81 28.5 -140t59.5 -97.5 t87.5 -57.5t111.5 -19t106 14.5t78 32t58.5 31.5t48.5 14q32 0 47 -23l73 -92q-33 -37 -71 -65.5t-79 -48t-85 -32t-88 -18.5v-269q0 -35 -19.5 -55.5t-51.5 -20.5h-158v349q-82 16 -152 55.5t-122.5 102t-84 147.5t-38.5 192q-59 1 -112.5 9.5t-94 33t-64.5 70.5t-24 123z M588 646h477q0 49 -14 92.5t-41.5 76.5t-70 52t-98.5 19q-111 0 -173.5 -62.5t-79.5 -177.5z" unicode="ҿ" glyph-name="uni04BF" horiz-adv-x="1356"/>
<glyph d="M165 0v1481h276v-1481h-276z" unicode="Ӏ" glyph-name="uni04C0" horiz-adv-x="607"/>
<glyph d="M2 0l387 628q36 62 78.5 99t96.5 55q-46 17 -77.5 48.5t-61.5 78.5l-382 572h218q42 0 77.5 -20.5t56.5 -57.5l303 -469q28 -45 61 -59.5t75 -14.5h130v621h259v-621h131q42 0 74 14.5t61 59.5l302 469q22 37 57 57.5t78 20.5h217l-382 -572q-30 -47 -62 -78t-77 -49 q54 -18 97 -55t79 -99l386 -628h-183q-60 0 -103 26t-68 69l-303 474q-28 45 -61.5 63.5t-86.5 18.5h-156v-651h-259v651h-157q-51 0 -85.5 -18.5t-61.5 -63.5l-303 -474q-26 -43 -68.5 -69t-102.5 -26h-184zM2 0zM761 1782q0 27 12.5 49t39.5 22h150q0 -47 6 -77.5 t21.5 -48.5t40.5 -25t64 -7q38 0 63.5 7t40.5 25t21.5 48.5t6.5 77.5h149q27 0 39.5 -22.5t12.5 -48.5q0 -52 -23.5 -92t-67.5 -67t-105.5 -40.5t-136.5 -13.5q-76 0 -137.5 13.5t-105.5 40.5t-67.5 67t-23.5 92z" unicode="Ӂ" glyph-name="uni04C1" horiz-adv-x="2187"/>
<glyph d="M16 0l246 433q26 46 58.5 76.5t83.5 45.5q-38 14 -64.5 39.5t-50.5 65.5l-246 391h200q35 0 64 -18t45 -49l178 -302q19 -33 45.5 -49t69.5 -16h70v434h244v-434h65q43 0 71 16t48 49l178 302q16 31 45.5 49t65.5 18h198l-246 -391q-25 -41 -51 -66t-64 -39 q51 -15 83.5 -45.5t58.5 -76.5l247 -433h-175q-68 0 -102.5 20.5t-55.5 66.5l-156 291q-19 38 -51.5 56.5t-75.5 18.5h-83v-453h-244v453h-84q-42 0 -75 -18.5t-52 -56.5l-156 -291q-20 -46 -55 -66.5t-103 -20.5h-174zM16 0zM503 1410q0 27 12.5 49t39.5 22h150 q0 -46 6 -78t21.5 -51t40.5 -27t64 -8q38 0 63.5 8t40.5 27t21.5 51t6.5 78h149q27 0 39.5 -22t12.5 -49q0 -52 -23.5 -94.5t-67.5 -72t-105.5 -45t-136.5 -15.5q-76 0 -137.5 15.5t-105.5 45t-67.5 72t-23.5 94.5z" unicode="ӂ" glyph-name="uni04C2" horiz-adv-x="1673"/>
<glyph d="M165 0v1481h275v-621h140q42 0 72.5 14.5t57.5 53.5l324 479q20 33 48 53.5t67 20.5h235l-402 -594q-27 -40 -60 -66q92 -11 176.5 -44.5t149.5 -97.5t103.5 -164t38.5 -246q0 -147 -39 -264t-112 -198t-175.5 -124.5t-230.5 -43.5q-55 0 -109 6.5t-113 20.5l16 164 q2 22 16.5 35.5t43.5 13.5q17 0 45.5 -6.5t71.5 -6.5q74 0 133.5 22t102.5 69t66.5 121t23.5 177q0 124 -33 201.5t-88 121t-125.5 58.5t-145.5 15h-298v-651h-275z" unicode="Ӄ" glyph-name="uni04C3" horiz-adv-x="1475"/>
<glyph d="M125 0v1051h253v-434h82q43 0 69 16t44 49l180 302q18 30 50 48.5t67 18.5h199l-245 -391q-17 -30 -35.5 -50t-40.5 -35q157 -17 237 -125.5t80 -298.5q0 -117 -32.5 -213.5t-88.5 -164.5t-132.5 -105.5t-165.5 -37.5q-43 0 -83 5t-84 16q2 19 3.5 33.5t3.5 28.5t4 28.5 t4 34.5t15.5 33t38.5 13q12 0 29 -3.5t41 -3.5q42 0 77.5 18.5t61 59.5t40 106.5t14.5 159.5q0 84 -14.5 140.5t-40.5 90.5t-63 48.5t-83 14.5h-232v-453h-253z" unicode="ӄ" glyph-name="uni04C4" horiz-adv-x="1139"/>
<glyph d="M-4 37v172h79q27 0 54 6t54 26t53 58t50 102t45 157t38 224t30 303.5t19 395.5h941v-1269h221l-162 -564h-268l112 352h-181v1269h-404q-14 -279 -40.5 -482t-63 -346t-83 -232t-101.5 -139t-118.5 -67.5t-133.5 -17.5q-74 0 -107.5 13t-33.5 39z" unicode="Ӆ" glyph-name="uni04C5" horiz-adv-x="1605"/>
<glyph d="M3 22v157h60q34 0 68 10.5t65.5 42t60.5 90.5t53 155.5t42.5 237t28.5 336.5h719v-864h205l-156 -539h-237l113 352h-178v857h-258q-12 -194 -38 -333.5t-61 -237t-78.5 -156t-93 -91.5t-101.5 -43.5t-105 -10.5q-56 0 -82.5 9.5t-26.5 27.5z" unicode="ӆ" glyph-name="uni04C6" horiz-adv-x="1321"/>
<glyph d="M165 0v1481h276v-637h696v637h276v-1352q0 -116 -30.5 -208t-91.5 -156.5t-151.5 -99t-211.5 -34.5q-55 0 -109 7t-112 21l15 164q2 22 17 35.5t42 13.5q17 0 46 -6.5t72 -6.5q58 0 103 13t75 44t45 81.5t15 125.5v524h-696v-647h-276z" unicode="Ӈ" glyph-name="uni04C7" horiz-adv-x="1577"/>
<glyph d="M125 0v1051h253v-399h409v399h253l1 -1006q0 -113 -26.5 -191.5t-78 -128.5t-128 -72.5t-176.5 -22.5q-44 0 -80.5 4.5t-80.5 15.5q2 19 3.5 34t3.5 29t3.5 28.5t3.5 34.5t16 33t39 13q11 0 27 -4t49 -4q37 0 68.5 8.5t54.5 34t35.5 71.5t12.5 120v417h-409v-465h-253z " unicode="ӈ" glyph-name="uni04C8" horiz-adv-x="1165"/>
<glyph d="M165 0v1481h276v-637h696v637h276v-1269h222l-161 -564h-270l113 352h-180v647h-696v-647h-276z" unicode="Ӊ" glyph-name="uni04C9" horiz-adv-x="1660"/>
<glyph d="M125 0v1051h253v-399h409v399h253v-864h206l-155 -539h-237l112 352h-179v465h-409v-465h-253z" unicode="ӊ" glyph-name="uni04CA" horiz-adv-x="1262"/>
<glyph d="M80 992v489h277v-489q0 -86 30 -143t98 -84t180 -21t277 44v693h278v-1481h-237v-265q0 -35 -24 -56.5t-63 -21.5h-166v555h212v381q-120 -30 -230 -44t-205.5 -9t-174.5 31.5t-135 81t-86.5 137.5t-30.5 202z" unicode="Ӌ" glyph-name="uni04CB" horiz-adv-x="1384"/>
<glyph d="M69 701v350h253v-311q0 -65 21 -104t66.5 -57t117 -15t172.5 25v462h253v-1051h-216v-276q0 -35 -20 -55.5t-51 -20.5h-158v539h192v226q-135 -33 -250.5 -37.5t-200 27.5t-132 104.5t-47.5 193.5z" unicode="ӌ" glyph-name="uni04CC" horiz-adv-x="1077"/>
<glyph d="M165 0v1481h208q18 0 31.5 -1t24 -5.5t19.5 -13.5t17 -24l443 -823q17 -33 32 -68t30 -71q14 38 29.5 73.5t32.5 67.5l437 821q8 15 17.5 24t20.5 13.5t24 5.5t32 1h207v-1269h223l-163 -564h-268l112 352h-146v956q0 27 1.5 59t4.5 64l-448 -839q-32 -60 -97 -61h-39 q-66 0 -97 61l-453 842q3 -34 5.5 -66t2.5 -60v-956h-243z" unicode="Ӎ" glyph-name="uni04CD" horiz-adv-x="2017"/>
<glyph d="M125 0v1053h209q27 0 53 -11.5t43 -45.5l248 -442q15 -31 30 -65t27 -69q12 36 26 69.5t31 64.5l245 442q18 35 44 46t53 11h208v-866h204l-155 -539h-237l113 352h-153v586q0 36 3.5 81t10.5 84l-308 -568q-23 -44 -71 -44h-27q-49 0 -72 44l-313 571q6 -39 11 -85.5 t5 -82.5v-586h-228z" unicode="ӎ" glyph-name="uni04CE" horiz-adv-x="1563"/>
<glyph d="M165 0v1481h276v-1481h-276z" unicode="ӏ" glyph-name="uni04CF" horiz-adv-x="607"/>
<glyph d="M-14 0l582 1481h281l582 -1481h-213q-36 0 -58.5 18t-34.5 44l-110 303h-614l-110 -303q-8 -24 -31.5 -43t-58.5 -19h-215zM0 0zM374 1782q0 27 12.5 49t39.5 22h150q0 -47 6 -77.5t21.5 -48.5t40.5 -25t64 -7q38 0 63.5 7t40.5 25t21.5 48.5t6.5 77.5h149 q27 0 39.5 -22.5t12.5 -48.5q0 -52 -23.5 -92t-67.5 -67t-105.5 -40.5t-136.5 -13.5q-76 0 -137.5 13.5t-105.5 40.5t-67.5 67t-23.5 92zM472 559h472l-180 493q-13 33 -27.5 77.5t-28.5 96.5q-14 -52 -28 -97.5t-28 -78.5z" unicode="Ӑ" glyph-name="uni04D0" horiz-adv-x="1416"/>
<glyph d="M50 0zM50 268q0 59 31.5 117t104 105t193.5 77.5t301 34.5v62q0 105 -45 155.5t-130 50.5q-61 0 -102 -14t-71.5 -32t-55.5 -32.5t-56 -14.5q-27 0 -45 14t-30 32l-45 81q181 166 437 166q92 0 164.5 -30t122.5 -84t76.5 -128.5t26.5 -163.5v-664h-115q-36 0 -55.5 11 t-30.5 43l-23 75q-40 -36 -77.5 -63t-78.5 -45.5t-87.5 -27.5t-103.5 -9q-67 0 -123 17.5t-97 53.5t-63.5 89.5t-22.5 123.5zM179 1410q0 27 12.5 49t39.5 22h150q0 -46 6 -78t21.5 -51t40.5 -27t64 -8q38 0 63.5 8t40.5 27t21.5 51t6.5 78h149q27 0 39.5 -22t12.5 -49 q0 -52 -23.5 -94.5t-67.5 -72t-105.5 -45t-136.5 -15.5q-76 0 -137.5 15.5t-105.5 45t-67.5 72t-23.5 94.5zM292 282q0 -67 39.5 -95.5t102.5 -28.5q78 0 135 28t111 85v178q-111 -5 -185 -19t-119 -35.5t-64.5 -50.5t-19.5 -62z" unicode="ӑ" glyph-name="uni04D1" horiz-adv-x="1039"/>
<glyph d="M-14 0l582 1481h281l582 -1481h-213q-36 0 -58.5 18t-34.5 44l-110 303h-614l-110 -303q-8 -24 -31.5 -43t-58.5 -19h-215zM0 0zM345 1707q0 28 11.5 53t29.5 44t42.5 30t50.5 11q29 0 54.5 -11t44.5 -30t30.5 -44t11.5 -53t-11.5 -52.5t-30.5 -43t-44.5 -28.5t-54.5 -10 q-27 0 -51 10t-42 28.5t-29.5 43t-11.5 52.5zM472 559h472l-180 493q-13 33 -27.5 77.5t-28.5 96.5q-14 -52 -28 -97.5t-28 -78.5zM796 1707q0 28 10.5 53t29 44t43.5 30t54 11q28 0 53 -11t44 -30t29.5 -44t10.5 -53t-10.5 -52.5t-29.5 -43t-44 -28.5t-53 -10q-29 0 -54 10 t-43.5 28.5t-29 43t-10.5 52.5z" unicode="Ӓ" glyph-name="uni04D2" horiz-adv-x="1416"/>
<glyph d="M50 0zM50 268q0 59 31.5 117t104 105t193.5 77.5t301 34.5v62q0 105 -45 155.5t-130 50.5q-61 0 -102 -14t-71.5 -32t-55.5 -32.5t-56 -14.5q-27 0 -45 14t-30 32l-45 81q181 166 437 166q92 0 164.5 -30t122.5 -84t76.5 -128.5t26.5 -163.5v-664h-115q-36 0 -55.5 11 t-30.5 43l-23 75q-40 -36 -77.5 -63t-78.5 -45.5t-87.5 -27.5t-103.5 -9q-67 0 -123 17.5t-97 53.5t-63.5 89.5t-22.5 123.5zM164 1323q0 30 11.5 56t30.5 45.5t44 30.5t53 11q30 0 56 -11t46 -30.5t31 -45.5t11 -56q0 -29 -11 -54t-31 -43.5t-46.5 -29t-55.5 -10.5 q-28 0 -53 10.5t-44 29t-30.5 43.5t-11.5 54zM292 282q0 -67 39.5 -95.5t102.5 -28.5q78 0 135 28t111 85v178q-111 -5 -185 -19t-119 -35.5t-64.5 -50.5t-19.5 -62zM578 1323q0 30 11.5 56t30.5 45.5t44.5 30.5t53.5 11q30 0 56 -11t45 -30.5t30.5 -45.5t11.5 -56 q0 -29 -11.5 -54t-30.5 -43.5t-45 -29t-56 -10.5q-29 0 -54 10.5t-44 29t-30.5 43.5t-11.5 54z" unicode="ӓ" glyph-name="uni04D3" horiz-adv-x="1039"/>
<glyph d="M-24 0l753 1481h1099v-219h-711l50 -411h522v-212h-496l51 -419h584v-220h-816l-45 365h-533l-145 -304q-13 -28 -40 -44.5t-64 -16.5h-209zM528 559h415l-88 715q-16 -52 -34 -97t-36 -84z" unicode="Ӕ" glyph-name="uni04D4" horiz-adv-x="1906"/>
<glyph d="M52 282q0 39 13.5 79t43.5 77.5t78.5 71t118.5 58.5t163 41t213 19v36q0 105 -45 159.5t-130 54.5q-61 0 -101.5 -16t-71.5 -34.5t-56 -34.5t-56 -16q-27 0 -45 14t-30 32l-45 81q91 83 190 124.5t220 41.5q118 0 193.5 -45t115.5 -124q58 77 145 121.5t205 44.5 q89 0 166 -34.5t133.5 -99t88.5 -156.5t32 -207q0 -29 -2.5 -47.5t-8.5 -29.5t-17 -15.5t-28 -4.5h-613q14 -151 85 -222t183 -71q70 0 114 13.5t72.5 30t47.5 29.5t40 13q37 0 52 -23l68 -86q-42 -49 -92.5 -82.5t-105 -53.5t-110.5 -28t-110 -8q-112 0 -208.5 50 t-158.5 156q-31 -55 -76.5 -94.5t-100 -64.5t-116 -36.5t-123.5 -11.5q-76 0 -137.5 19.5t-104.5 56.5t-66 93t-23 129zM295 294q0 -71 39.5 -103.5t109.5 -32.5q50 0 94 15t75.5 47.5t50 83.5t18.5 122v47q-111 -5 -185 -21t-119 -39.5t-64 -54t-19 -64.5zM923 626h443 q0 50 -12.5 97t-38 83.5t-64 58t-90.5 21.5q-108 0 -166.5 -68t-71.5 -192z" unicode="ӕ" glyph-name="uni04D5" horiz-adv-x="1657"/>
<glyph d="M165 0v1481h934v-219h-658v-411h518v-212h-518v-419h658v-220h-934zM165 0zM314 1782q0 27 12.5 49t39.5 22h150q0 -47 6 -77.5t21.5 -48.5t40.5 -25t64 -7q38 0 63.5 7t40.5 25t21.5 48.5t6.5 77.5h149q27 0 39.5 -22.5t12.5 -48.5q0 -52 -23.5 -92t-67.5 -67 t-105.5 -40.5t-136.5 -13.5q-76 0 -137.5 13.5t-105.5 40.5t-67.5 67t-23.5 92z" unicode="Ӗ" glyph-name="uni04D6" horiz-adv-x="1177"/>
<glyph d="M68 0zM68 548q0 108 34.5 202.5t99.5 164.5t158.5 111t211.5 41q99 0 183.5 -31.5t145 -92.5t94.5 -149.5t34 -202.5q0 -57 -12 -77t-47 -20h-651q6 -81 29 -140t59.5 -97.5t87.5 -57.5t112 -19t106 14.5t78 32t58 31.5t49 14q32 0 47 -23l73 -92q-42 -49 -94.5 -82.5 t-109 -53.5t-115.5 -28t-114 -8q-110 0 -204 36t-164 107.5t-109.5 176.5t-39.5 243zM245 1410q0 27 12.5 49t39.5 22h150q0 -46 6 -78t21.5 -51t40.5 -27t64 -8q38 0 63.5 8t40.5 27t21.5 51t6.5 78h149q27 0 39.5 -22t12.5 -49q0 -52 -23.5 -94.5t-67.5 -72t-105.5 -45 t-136.5 -15.5q-76 0 -137.5 15.5t-105.5 45t-67.5 72t-23.5 94.5zM325 646h477q0 49 -14 92.5t-41.5 76.5t-70 52t-98.5 19q-111 0 -173.5 -62.5t-79.5 -177.5z" unicode="ӗ" glyph-name="uni04D7" horiz-adv-x="1093"/>
<glyph d="M73 652q0 40 3.5 66t12.5 41.5t24.5 21.5t40.5 6h980q-16 239 -138.5 357t-331.5 118q-89 0 -154.5 -21t-114.5 -47t-86.5 -47t-70.5 -21q-22 0 -38.5 9t-27.5 23l-84 104q62 71 135 116.5t151.5 73.5t159.5 39t160 11q154 0 286.5 -50.5t230.5 -150.5t153.5 -247.5 t55.5 -340.5q0 -151 -49 -284t-140.5 -232t-222.5 -156t-296 -57q-139 0 -256.5 44.5t-202.5 130t-132.5 210t-47.5 283.5zM339 599q0 -85 25 -156t73 -122.5t118 -80t159 -28.5q90 0 161.5 27t124 78t84.5 122t44 160h-789z" unicode="Ә" glyph-name="uni04D8" horiz-adv-x="1500"/>
<glyph d="M65 461q0 29 2.5 47.5t9 29.5t17.5 15.5t29 4.5h651q-11 161 -87.5 237t-200.5 76q-61 0 -106 -14t-78.5 -31.5t-59 -32t-47.5 -14.5q-31 0 -47 24l-72 92q42 49 93.5 82.5t108.5 53.5t116 28t114 8q110 0 204.5 -36.5t164 -107.5t109.5 -176t40 -242q0 -108 -35 -202.5 t-100.5 -165t-159 -111.5t-211.5 -41q-99 0 -182.5 31.5t-144.5 92.5t-94.5 149.5t-33.5 202.5zM292 406q0 -49 13.5 -93t41.5 -76.5t70 -51.5t99 -19q109 0 172 62.5t81 177.5h-477z" unicode="ә" glyph-name="afii10846" horiz-adv-x="1093"/>
<glyph d="M73 0zM73 652q0 40 3.5 66t12.5 41.5t24.5 21.5t40.5 6h980q-16 239 -138.5 357t-331.5 118q-89 0 -154.5 -21t-114.5 -47t-86.5 -47t-70.5 -21q-22 0 -38.5 9t-27.5 23l-84 104q62 71 135 116.5t151.5 73.5t159.5 39t160 11q154 0 286.5 -50.5t230.5 -150.5 t153.5 -247.5t55.5 -340.5q0 -151 -49 -284t-140.5 -232t-222.5 -156t-296 -57q-139 0 -256.5 44.5t-202.5 130t-132.5 210t-47.5 283.5zM339 599q0 -85 25 -156t73 -122.5t118 -80t159 -28.5q90 0 161.5 27t124 78t84.5 122t44 160h-789zM339 1707q0 28 11.5 53t29.5 44 t42.5 30t50.5 11q29 0 54.5 -11t44.5 -30t30.5 -44t11.5 -53t-11.5 -52.5t-30.5 -43t-44.5 -28.5t-54.5 -10q-27 0 -51 10t-42 28.5t-29.5 43t-11.5 52.5zM790 1707q0 28 10.5 53t29 44t43.5 30t54 11q28 0 53 -11t44 -30t29.5 -44t10.5 -53t-10.5 -52.5t-29.5 -43 t-44 -28.5t-53 -10q-29 0 -54 10t-43.5 28.5t-29 43t-10.5 52.5z" unicode="Ӛ" glyph-name="uni04DA" horiz-adv-x="1500"/>
<glyph d="M65 0zM65 461q0 29 2.5 47.5t9 29.5t17.5 15.5t29 4.5h651q-11 161 -87.5 237t-200.5 76q-61 0 -106 -14t-78.5 -31.5t-59 -32t-47.5 -14.5q-31 0 -47 24l-72 92q42 49 93.5 82.5t108.5 53.5t116 28t114 8q110 0 204.5 -36.5t164 -107.5t109.5 -176t40 -242 q0 -108 -35 -202.5t-100.5 -165t-159 -111.5t-211.5 -41q-99 0 -182.5 31.5t-144.5 92.5t-94.5 149.5t-33.5 202.5zM197 1323q0 30 11.5 56t30.5 45.5t44 30.5t53 11q30 0 56 -11t46 -30.5t31 -45.5t11 -56q0 -29 -11 -54t-31 -43.5t-46.5 -29t-55.5 -10.5q-28 0 -53 10.5 t-44 29t-30.5 43.5t-11.5 54zM292 406q0 -49 13.5 -93t41.5 -76.5t70 -51.5t99 -19q109 0 172 62.5t81 177.5h-477zM611 1323q0 30 11.5 56t30.5 45.5t44.5 30.5t53.5 11q30 0 56 -11t45 -30.5t30.5 -45.5t11.5 -56q0 -29 -11.5 -54t-30.5 -43.5t-45 -29t-56 -10.5 q-29 0 -54 10.5t-44 29t-30.5 43.5t-11.5 54z" unicode="ӛ" glyph-name="uni04DB" horiz-adv-x="1093"/>
<glyph d="M2 0l387 628q36 62 78.5 99t96.5 55q-46 17 -77.5 48.5t-61.5 78.5l-382 572h218q42 0 77.5 -20.5t56.5 -57.5l303 -469q28 -45 61 -59.5t75 -14.5h130v621h259v-621h131q42 0 74 14.5t61 59.5l302 469q22 37 57 57.5t78 20.5h217l-382 -572q-30 -47 -62 -78t-77 -49 q54 -18 97 -55t79 -99l386 -628h-183q-60 0 -103 26t-68 69l-303 474q-28 45 -61.5 63.5t-86.5 18.5h-156v-651h-259v651h-157q-51 0 -85.5 -18.5t-61.5 -63.5l-303 -474q-26 -43 -68.5 -69t-102.5 -26h-184zM2 0zM732 1707q0 28 11.5 53t29.5 44t42.5 30t50.5 11 q29 0 54.5 -11t44.5 -30t30.5 -44t11.5 -53t-11.5 -52.5t-30.5 -43t-44.5 -28.5t-54.5 -10q-27 0 -51 10t-42 28.5t-29.5 43t-11.5 52.5zM1183 1707q0 28 10.5 53t29 44t43.5 30t54 11q28 0 53 -11t44 -30t29.5 -44t10.5 -53t-10.5 -52.5t-29.5 -43t-44 -28.5t-53 -10 q-29 0 -54 10t-43.5 28.5t-29 43t-10.5 52.5z" unicode="Ӝ" glyph-name="uni04DC" horiz-adv-x="2187"/>
<glyph d="M16 0l246 433q26 46 58.5 76.5t83.5 45.5q-38 14 -64.5 39.5t-50.5 65.5l-246 391h200q35 0 64 -18t45 -49l178 -302q19 -33 45.5 -49t69.5 -16h70v434h244v-434h65q43 0 71 16t48 49l178 302q16 31 45.5 49t65.5 18h198l-246 -391q-25 -41 -51 -66t-64 -39 q51 -15 83.5 -45.5t58.5 -76.5l247 -433h-175q-68 0 -102.5 20.5t-55.5 66.5l-156 291q-19 38 -51.5 56.5t-75.5 18.5h-83v-453h-244v453h-84q-42 0 -75 -18.5t-52 -56.5l-156 -291q-20 -46 -55 -66.5t-103 -20.5h-174zM16 0zM488 1323q0 30 11.5 56t30.5 45.5t44 30.5 t53 11q30 0 56 -11t46 -30.5t31 -45.5t11 -56q0 -29 -11 -54t-31 -43.5t-46.5 -29t-55.5 -10.5q-28 0 -53 10.5t-44 29t-30.5 43.5t-11.5 54zM902 1323q0 30 11.5 56t30.5 45.5t44.5 30.5t53.5 11q30 0 56 -11t45 -30.5t30.5 -45.5t11.5 -56q0 -29 -11.5 -54t-30.5 -43.5 t-45 -29t-56 -10.5q-29 0 -54 10.5t-44 29t-30.5 43.5t-11.5 54z" unicode="ӝ" glyph-name="uni04DD" horiz-adv-x="1673"/>
<glyph d="M24 0zM24 180l80 132q11 14 27 24t36 10q27 0 58.5 -21t76.5 -46.5t107 -46.5t149 -21q138 0 214 59.5t76 182.5q0 50 -20.5 90t-58.5 67.5t-91.5 42.5t-119.5 15h-209l-1 221h191q128 0 200 50.5t72 146.5q0 85 -68 136t-197 51q-75 0 -128.5 -16.5t-93 -35.5t-67 -35.5 t-48.5 -16.5q-20 0 -34.5 10.5t-27.5 30.5l-67 131q86 74 204 115t263 41q120 0 216.5 -28.5t164 -80.5t104 -123t36.5 -156q0 -104 -48 -189t-143 -138q51 -25 93.5 -58t72.5 -73.5t47 -87.5t17 -99q0 -100 -37.5 -187.5t-108.5 -152t-174.5 -101.5t-236.5 -37 q-78 0 -152 13.5t-142 39.5t-127 61.5t-105 79.5zM209 1707q0 28 11.5 53t29.5 44t42.5 30t50.5 11q29 0 54.5 -11t44.5 -30t30.5 -44t11.5 -53t-11.5 -52.5t-30.5 -43t-44.5 -28.5t-54.5 -10q-27 0 -51 10t-42 28.5t-29.5 43t-11.5 52.5zM660 1707q0 28 10.5 53t29 44 t43.5 30t54 11q28 0 53 -11t44 -30t29.5 -44t10.5 -53t-10.5 -52.5t-29.5 -43t-44 -28.5t-53 -10q-29 0 -54 10t-43.5 28.5t-29 43t-10.5 52.5z" unicode="Ӟ" glyph-name="uni04DE" horiz-adv-x="1190"/>
<glyph d="M37 0zM37 157l73 92q15 24 46 23q24 0 45 -14.5t49.5 -32.5t67 -33t97.5 -15q95 0 144 43t49 108q0 63 -50.5 99t-164.5 36h-119v165h119q99 0 152.5 34.5t53.5 92.5q0 52 -46.5 85.5t-137.5 33.5q-54 0 -92 -11t-65.5 -24t-45.5 -24t-35 -11t-29.5 6.5t-26.5 29.5 l-58 97q59 57 147.5 93.5t211.5 36.5q97 0 173 -23t127.5 -62.5t78.5 -90t27 -106.5q0 -31 -8.5 -63t-29 -62t-53 -56.5t-81.5 -45.5q87 -32 140 -95t53 -157q0 -77 -35.5 -136t-93.5 -100.5t-133.5 -63t-155.5 -21.5q-45 0 -96.5 8t-104 28t-102.5 53.5t-91 82.5zM90 1323 q0 30 11.5 56t30.5 45.5t44 30.5t53 11q30 0 56 -11t46 -30.5t31 -45.5t11 -56q0 -29 -11 -54t-31 -43.5t-46.5 -29t-55.5 -10.5q-28 0 -53 10.5t-44 29t-30.5 43.5t-11.5 54zM504 1323q0 30 11.5 56t30.5 45.5t44.5 30.5t53.5 11q30 0 56 -11t45 -30.5t30.5 -45.5t11.5 -56 q0 -29 -11.5 -54t-30.5 -43.5t-45 -29t-56 -10.5q-29 0 -54 10.5t-44 29t-30.5 43.5t-11.5 54z" unicode="ӟ" glyph-name="uni04DF" horiz-adv-x="921"/>
<glyph d="M34 224l107 120q14 16 26 18.5t20 2.5q14 0 27 -5.5t38 -25.5q16 -16 40.5 -37t59.5 -38.5t81.5 -30t106.5 -12.5q78 0 136 23t97 62t58.5 90t19.5 108q0 50 -17.5 92t-56 72t-100 47t-150.5 17h-198v118q0 20 8 42.5t31 43.5l341 331h-622v219h1003v-102 q0 -23 -7.5 -47.5t-33.5 -51.5l-373 -357q121 -8 207.5 -43t141.5 -90t81.5 -126.5t26.5 -153.5q0 -125 -50 -222.5t-132.5 -164.5t-189 -102t-220.5 -35q-146 0 -278 58.5t-229 179.5z" unicode="Ӡ" glyph-name="uni04E0" horiz-adv-x="1211"/>
<glyph d="M-27 -232l58 96q22 36 64 36q25 0 46.5 -12t48.5 -26t64.5 -25.5t92.5 -11.5q127 0 199 68t72 196q0 54 -14 99t-45.5 77.5t-80.5 50.5t-118 18h-189v79q0 41 34 66l306 378h-473v194h775v-105q0 -34 -14.5 -61t-34.5 -47l-289 -341q100 -12 174 -45t122 -84t71.5 -117.5 t23.5 -145.5q0 -96 -33.5 -181t-99.5 -148t-163.5 -99.5t-226.5 -36.5q-66 0 -120 9.5t-99.5 26.5t-82.5 40.5t-68 51.5zM0 0z" unicode="ӡ" glyph-name="uni04E1" horiz-adv-x="926"/>
<glyph d="M165 0v1481h276v-928q0 -52 -3 -110.5t-11 -123.5q20 57 44.5 106.5t47.5 87.5l565 883q9 15 22 30.5t28.5 27t33.5 19.5t38 8h207v-1481h-276v928q0 52 2.5 109t10.5 121q-20 -56 -44 -104.5t-46 -85.5l-566 -883q-9 -15 -22 -30.5t-28.5 -27.5t-34 -19.5t-37.5 -7.5 h-207zM165 0zM494 1608v145h615v-145h-615z" unicode="Ӣ" glyph-name="uni04E2" horiz-adv-x="1577"/>
<glyph d="M125 0zM125 -1v1051h253v-614q0 -24 -2.5 -52t-6.5 -56q23 50 45 83q1 2 19.5 27.5t47.5 66.5t66 92.5t75 105.5q89 126 202 285q14 23 38 43t53 20h154v-1051h-253v613q0 24 2 51.5t7 56.5q-11 -24 -22 -45t-23 -37q-2 -2 -20.5 -28t-47.5 -67t-66 -93t-75 -105 q-89 -126 -201 -285q-14 -22 -37.5 -42t-52.5 -20h-155zM305 1243v162h613v-162h-613z" unicode="ӣ" glyph-name="uni04E3" horiz-adv-x="1193"/>
<glyph d="M165 0v1481h276v-928q0 -52 -3 -110.5t-11 -123.5q20 57 44.5 106.5t47.5 87.5l565 883q9 15 22 30.5t28.5 27t33.5 19.5t38 8h207v-1481h-276v928q0 52 2.5 109t10.5 121q-20 -56 -44 -104.5t-46 -85.5l-566 -883q-9 -15 -22 -30.5t-28.5 -27.5t-34 -19.5t-37.5 -7.5 h-207zM165 0zM439 1707q0 28 11.5 53t29.5 44t42.5 30t50.5 11q29 0 54.5 -11t44.5 -30t30.5 -44t11.5 -53t-11.5 -52.5t-30.5 -43t-44.5 -28.5t-54.5 -10q-27 0 -51 10t-42 28.5t-29.5 43t-11.5 52.5zM890 1707q0 28 10.5 53t29 44t43.5 30t54 11q28 0 53 -11t44 -30 t29.5 -44t10.5 -53t-10.5 -52.5t-29.5 -43t-44 -28.5t-53 -10q-29 0 -54 10t-43.5 28.5t-29 43t-10.5 52.5z" unicode="Ӥ" glyph-name="uni04E4" horiz-adv-x="1577"/>
<glyph d="M125 0zM125 -1v1051h253v-614q0 -24 -2.5 -52t-6.5 -56q23 50 45 83q1 2 19.5 27.5t47.5 66.5t66 92.5t75 105.5q89 126 202 285q14 23 38 43t53 20h154v-1051h-253v613q0 24 2 51.5t7 56.5q-11 -24 -22 -45t-23 -37q-2 -2 -20.5 -28t-47.5 -67t-66 -93t-75 -105 q-89 -126 -201 -285q-14 -22 -37.5 -42t-52.5 -20h-155zM263 1323q0 30 11.5 56t30.5 45.5t44 30.5t53 11q30 0 56 -11t46 -30.5t31 -45.5t11 -56q0 -29 -11 -54t-31 -43.5t-46.5 -29t-55.5 -10.5q-28 0 -53 10.5t-44 29t-30.5 43.5t-11.5 54zM677 1323q0 30 11.5 56 t30.5 45.5t44.5 30.5t53.5 11q30 0 56 -11t45 -30.5t30.5 -45.5t11.5 -56q0 -29 -11.5 -54t-30.5 -43.5t-45 -29t-56 -10.5q-29 0 -54 10.5t-44 29t-30.5 43.5t-11.5 54z" unicode="ӥ" glyph-name="uni04E5" horiz-adv-x="1193"/>
<glyph d="M77 0zM77 740q0 163 54 302t153 240t237 158t306 57q113 0 212.5 -26t182.5 -73.5t149 -116t112 -152t70 -182t24 -207.5q0 -163 -54 -301.5t-152 -240t-236.5 -158t-307.5 -56.5q-168 0 -306 56.5t-237 158t-153 240.5t-54 301zM358 740q0 -122 33 -218.5t94 -163.5 t147.5 -103t194.5 -36q109 0 195.5 36t147 103t93 163.5t32.5 218.5t-32.5 219t-93 164.5t-147 103.5t-195.5 36t-195 -36t-147 -103.5t-94 -164.5t-33 -219zM467 1707q0 28 11.5 53t29.5 44t42.5 30t50.5 11q29 0 54.5 -11t44.5 -30t30.5 -44t11.5 -53t-11.5 -52.5 t-30.5 -43t-44.5 -28.5t-54.5 -10q-27 0 -51 10t-42 28.5t-29.5 43t-11.5 52.5zM918 1707q0 28 10.5 53t29 44t43.5 30t54 11q28 0 53 -11t44 -30t29.5 -44t10.5 -53t-10.5 -52.5t-29.5 -43t-44 -28.5t-53 -10q-29 0 -54 10t-43.5 28.5t-29 43t-10.5 52.5z" unicode="Ӧ" glyph-name="uni04E6" horiz-adv-x="1654"/>
<glyph d="M69 0zM69 527q0 124 37 224.5t105.5 170t164.5 107.5t214 38q117 0 212.5 -38t163.5 -107.5t105 -170t37 -224.5q0 -125 -37 -225t-105 -171t-163.5 -108.5t-212.5 -37.5q-118 0 -214 37.5t-164.5 108.5t-105.5 171t-37 225zM241 1323q0 30 11.5 56t30.5 45.5t44 30.5 t53 11q30 0 56 -11t46 -30.5t31 -45.5t11 -56q0 -29 -11 -54t-31 -43.5t-46.5 -29t-55.5 -10.5q-28 0 -53 10.5t-44 29t-30.5 43.5t-11.5 54zM329 525q0 -169 64 -257.5t197 -88.5q131 0 194 88t63 258t-63 259t-194 89q-133 0 -197 -89.5t-64 -258.5zM655 1323 q0 30 11.5 56t30.5 45.5t44.5 30.5t53.5 11q30 0 56 -11t45 -30.5t30.5 -45.5t11.5 -56q0 -29 -11.5 -54t-30.5 -43.5t-45 -29t-56 -10.5q-29 0 -54 10.5t-44 29t-30.5 43.5t-11.5 54z" unicode="ӧ" glyph-name="uni04E7" horiz-adv-x="1176"/>
<glyph d="M77 740q0 163 54 302t153 240t237 158t306 57q113 0 212.5 -26t182.5 -73.5t149 -116t112 -152t70 -182t24 -207.5q0 -163 -54 -301.5t-152 -240t-236.5 -158t-307.5 -56.5q-168 0 -306 56.5t-237 158t-153 240.5t-54 301zM364 649q11 -101 48.5 -181t96.5 -135 t139.5 -84.5t178.5 -29.5q97 0 177.5 29.5t140 84.5t97 135t48.5 181h-926zM366 854h921q-14 96 -52 172t-97 128.5t-137.5 80.5t-173.5 28t-174 -28t-137.5 -80.5t-97 -128.5t-52.5 -172z" unicode="Ө" glyph-name="uni04E8" horiz-adv-x="1654"/>
<glyph d="M69 527q0 124 37 224.5t105.5 170t164.5 107.5t214 38q117 0 212.5 -38t163.5 -107.5t105 -170t37 -224.5q0 -125 -37 -225t-105 -171t-163.5 -108.5t-212.5 -37.5q-118 0 -214 37.5t-164.5 108.5t-105.5 171t-37 225zM331 467q10 -142 73.5 -215t185.5 -73 q119 0 181.5 73t73.5 215h-514zM332 600h511q-13 134 -75.5 203.5t-177.5 69.5q-118 0 -181.5 -69.5t-76.5 -203.5z" unicode="ө" glyph-name="uni04E9" horiz-adv-x="1176"/>
<glyph d="M77 0zM77 740q0 163 54 302t153 240t237 158t306 57q113 0 212.5 -26t182.5 -73.5t149 -116t112 -152t70 -182t24 -207.5q0 -163 -54 -301.5t-152 -240t-236.5 -158t-307.5 -56.5q-168 0 -306 56.5t-237 158t-153 240.5t-54 301zM364 649q11 -101 48.5 -181t96.5 -135 t139.5 -84.5t178.5 -29.5q97 0 177.5 29.5t140 84.5t97 135t48.5 181h-926zM366 854h921q-14 96 -52 172t-97 128.5t-137.5 80.5t-173.5 28t-174 -28t-137.5 -80.5t-97 -128.5t-52.5 -172zM470 1707q0 28 11.5 53t29.5 44t42.5 30t50.5 11q29 0 54.5 -11t44.5 -30t30.5 -44 t11.5 -53t-11.5 -52.5t-30.5 -43t-44.5 -28.5t-54.5 -10q-27 0 -51 10t-42 28.5t-29.5 43t-11.5 52.5zM921 1707q0 28 10.5 53t29 44t43.5 30t54 11q28 0 53 -11t44 -30t29.5 -44t10.5 -53t-10.5 -52.5t-29.5 -43t-44 -28.5t-53 -10q-29 0 -54 10t-43.5 28.5t-29 43 t-10.5 52.5z" unicode="Ӫ" glyph-name="uni04EA" horiz-adv-x="1654"/>
<glyph d="M69 0zM69 527q0 124 37 224.5t105.5 170t164.5 107.5t214 38q117 0 212.5 -38t163.5 -107.5t105 -170t37 -224.5q0 -125 -37 -225t-105 -171t-163.5 -108.5t-212.5 -37.5q-118 0 -214 37.5t-164.5 108.5t-105.5 171t-37 225zM241 1323q0 30 11.5 56t30.5 45.5t44 30.5 t53 11q30 0 56 -11t46 -30.5t31 -45.5t11 -56q0 -29 -11 -54t-31 -43.5t-46.5 -29t-55.5 -10.5q-28 0 -53 10.5t-44 29t-30.5 43.5t-11.5 54zM331 467q10 -142 73.5 -215t185.5 -73q119 0 181.5 73t73.5 215h-514zM332 600h511q-13 134 -75.5 203.5t-177.5 69.5 q-118 0 -181.5 -69.5t-76.5 -203.5zM655 1323q0 30 11.5 56t30.5 45.5t44.5 30.5t53.5 11q30 0 56 -11t45 -30.5t30.5 -45.5t11.5 -56q0 -29 -11.5 -54t-30.5 -43.5t-45 -29t-56 -10.5q-29 0 -54 10.5t-44 29t-30.5 43.5t-11.5 54z" unicode="ӫ" glyph-name="uni04EB" horiz-adv-x="1176"/>
<glyph d="M38 0zM38 214l109 118q16 17 39 17t46 -20q34 -31 68.5 -52t73 -34.5t84 -19.5t101.5 -6q84 0 159.5 28.5t134.5 84t98.5 136t52.5 183.5h-687v205h683q-14 97 -52 173.5t-95 128.5t-131.5 79.5t-161.5 27.5q-88 0 -145.5 -18.5t-95.5 -40t-64 -40t-48 -18.5 q-23 0 -35.5 9t-21.5 22l-92 128q87 86 212.5 139t287.5 53q163 0 297.5 -56t231.5 -156t150 -239t53 -306q0 -165 -50 -304t-142.5 -239.5t-225 -156.5t-295.5 -56q-183 0 -316 59t-223 171zM226 1707q0 28 11.5 53t29.5 44t42.5 30t50.5 11q29 0 54.5 -11t44.5 -30 t30.5 -44t11.5 -53t-11.5 -52.5t-30.5 -43t-44.5 -28.5t-54.5 -10q-27 0 -51 10t-42 28.5t-29.5 43t-11.5 52.5zM677 1707q0 28 10.5 53t29 44t43.5 30t54 11q28 0 53 -11t44 -30t29.5 -44t10.5 -53t-10.5 -52.5t-29.5 -43t-44 -28.5t-53 -10q-29 0 -54 10t-43.5 28.5 t-29 43t-10.5 52.5z" unicode="Ӭ" glyph-name="uni04EC" horiz-adv-x="1368"/>
<glyph d="M43 0zM43 157l69 85q16 23 47 22q15 0 28.5 -6.5t28 -16t31.5 -21t39.5 -21t52.5 -16t71 -6.5q105 0 175 70t88 204h-446v172h444q-19 119 -87 185t-181 66q-52 0 -87.5 -10.5t-62 -23.5t-45.5 -23.5t-38 -10.5q-20 0 -31 8t-22 23l-64 84q71 71 159.5 108.5t206.5 37.5 q124 0 219 -41t160 -113t98.5 -171t33.5 -215q0 -129 -37.5 -229.5t-102 -170.5t-150.5 -106t-183 -36q-55 0 -111.5 8t-109.5 28t-102 53.5t-91 82.5zM105 1323q0 30 11.5 56t30.5 45.5t44 30.5t53 11q30 0 56 -11t46 -30.5t31 -45.5t11 -56q0 -29 -11 -54t-31 -43.5 t-46.5 -29t-55.5 -10.5q-28 0 -53 10.5t-44 29t-30.5 43.5t-11.5 54zM519 1323q0 30 11.5 56t30.5 45.5t44.5 30.5t53.5 11q30 0 56 -11t45 -30.5t30.5 -45.5t11.5 -56q0 -29 -11.5 -54t-30.5 -43.5t-45 -29t-56 -10.5q-29 0 -54 10.5t-44 29t-30.5 43.5t-11.5 54z" unicode="ӭ" glyph-name="uni04ED" horiz-adv-x="997"/>
<glyph d="M-14 1481h258q36 0 57.5 -17.5t35.5 -44.5l288 -542q47 -87 74 -180q13 46 31 90t39 90l251 542q11 23 33.5 42.5t57.5 19.5h228l-598 -1275q-32 -67 -67.5 -110t-77 -67.5t-89 -34t-101.5 -9.5q-74 0 -108 13t-34 39v172h80q23 0 46.5 4t46.5 16.5t44.5 35t39.5 59.5 l59 117zM357 1608v145h615v-145h-615z" unicode="Ӯ" glyph-name="uni04EE" horiz-adv-x="1319"/>
<glyph d="M6 0zM6 1051h222q30 0 47 -14.5t25 -32.5l223 -545q20 -56 34 -112q8 29 18 57t21 56l211 544q8 20 27 33.5t43 13.5h202l-572 -1340q-11 -27 -29 -40.5t-55 -13.5h-189l197 421zM260 1243v162h613v-162h-613z" unicode="ӯ" glyph-name="uni04EF" horiz-adv-x="1080"/>
<glyph d="M-14 1481h258q36 0 57.5 -17.5t35.5 -44.5l288 -542q47 -87 74 -180q13 46 31 90t39 90l251 542q11 23 33.5 42.5t57.5 19.5h228l-598 -1275q-32 -67 -67.5 -110t-77 -67.5t-89 -34t-101.5 -9.5q-74 0 -108 13t-34 39v172h80q23 0 46.5 4t46.5 16.5t44.5 35t39.5 59.5 l59 117zM302 1707q0 28 11.5 53t29.5 44t42.5 30t50.5 11q29 0 54.5 -11t44.5 -30t30.5 -44t11.5 -53t-11.5 -52.5t-30.5 -43t-44.5 -28.5t-54.5 -10q-27 0 -51 10t-42 28.5t-29.5 43t-11.5 52.5zM753 1707q0 28 10.5 53t29 44t43.5 30t54 11q28 0 53 -11t44 -30t29.5 -44 t10.5 -53t-10.5 -52.5t-29.5 -43t-44 -28.5t-53 -10q-29 0 -54 10t-43.5 28.5t-29 43t-10.5 52.5z" unicode="Ӱ" glyph-name="uni04F0" horiz-adv-x="1319"/>
<glyph d="M6 0zM6 1051h222q30 0 47 -14.5t25 -32.5l223 -545q20 -56 34 -112q8 29 18 57t21 56l211 544q8 20 27 33.5t43 13.5h202l-572 -1340q-11 -27 -29 -40.5t-55 -13.5h-189l197 421zM218 1323q0 30 11.5 56t30.5 45.5t44 30.5t53 11q30 0 56 -11t46 -30.5t31 -45.5t11 -56 q0 -29 -11 -54t-31 -43.5t-46.5 -29t-55.5 -10.5q-28 0 -53 10.5t-44 29t-30.5 43.5t-11.5 54zM632 1323q0 30 11.5 56t30.5 45.5t44.5 30.5t53.5 11q30 0 56 -11t45 -30.5t30.5 -45.5t11.5 -56q0 -29 -11.5 -54t-30.5 -43.5t-45 -29t-56 -10.5q-29 0 -54 10.5t-44 29 t-30.5 43.5t-11.5 54z" unicode="ӱ" glyph-name="uni04F1" horiz-adv-x="1080"/>
<glyph d="M-14 1481h258q36 0 57.5 -17.5t35.5 -44.5l288 -542q47 -87 74 -180q13 46 31 90t39 90l251 542q11 23 33.5 42.5t57.5 19.5h228l-598 -1275q-32 -67 -67.5 -110t-77 -67.5t-89 -34t-101.5 -9.5q-74 0 -108 13t-34 39v172h80q23 0 46.5 4t46.5 16.5t44.5 35t39.5 59.5 l59 117zM391 1586l141 228q16 26 42 40t68 14h164l-211 -245q-20 -17 -37.5 -27t-46.5 -10h-120zM721 1586l187 228q20 25 47 39.5t69 14.5h188l-264 -245q-20 -18 -41 -27.5t-51 -9.5h-135z" unicode="Ӳ" glyph-name="uni04F2" horiz-adv-x="1319"/>
<glyph d="M6 0zM6 1051h222q30 0 47 -14.5t25 -32.5l223 -545q20 -56 34 -112q8 29 18 57t21 56l211 544q8 20 27 33.5t43 13.5h202l-572 -1340q-11 -27 -29 -40.5t-55 -13.5h-189l197 421zM311 1194l129 249q14 27 35 40.5t62 13.5h165l-204 -267q-16 -20 -35.5 -28t-48.5 -8h-103 zM598 1194l182 249q9 13 17.5 23t19.5 17t25 10.5t35 3.5h182l-258 -267q-18 -20 -36 -28t-48 -8h-119z" unicode="ӳ" glyph-name="uni04F3" horiz-adv-x="1080"/>
<glyph d="M80 0zM80 992v489h277v-489q0 -86 30 -143t98 -84t180 -21t277 44v693h278v-1481h-278v593q-120 -30 -230 -44t-205.5 -9t-174.5 31.5t-135 81t-86.5 137.5t-30.5 202zM296 1707q0 28 11.5 53t29.5 44t42.5 30t50.5 11q29 0 54.5 -11t44.5 -30t30.5 -44t11.5 -53 t-11.5 -52.5t-30.5 -43t-44.5 -28.5t-54.5 -10q-27 0 -51 10t-42 28.5t-29.5 43t-11.5 52.5zM747 1707q0 28 10.5 53t29 44t43.5 30t54 11q28 0 53 -11t44 -30t29.5 -44t10.5 -53t-10.5 -52.5t-29.5 -43t-44 -28.5t-53 -10q-29 0 -54 10t-43.5 28.5t-29 43t-10.5 52.5z" unicode="Ӵ" glyph-name="uni04F4" horiz-adv-x="1384"/>
<glyph d="M71 0zM71 701v350h253v-311q0 -65 21 -104t66.5 -57t117 -15t172.5 25v462h253v-1051h-253v413q-136 -33 -251 -37.5t-199.5 27.5t-132 104.5t-47.5 193.5zM173 1323q0 30 11.5 56t30.5 45.5t44 30.5t53 11q30 0 56 -11t46 -30.5t31 -45.5t11 -56q0 -29 -11 -54 t-31 -43.5t-46.5 -29t-55.5 -10.5q-28 0 -53 10.5t-44 29t-30.5 43.5t-11.5 54zM587 1323q0 30 11.5 56t30.5 45.5t44.5 30.5t53.5 11q30 0 56 -11t45 -30.5t30.5 -45.5t11.5 -56q0 -29 -11.5 -54t-30.5 -43.5t-45 -29t-56 -10.5q-29 0 -54 10.5t-44 29t-30.5 43.5t-11.5 54 z" unicode="ӵ" glyph-name="uni04F5" horiz-adv-x="1079"/>
<glyph d="M165 0v1481h913v-212h-637v-1057h212v-485q0 -36 -24 -57.5t-63 -21.5h-165v352h-236z" unicode="Ӷ" glyph-name="uni04F6" horiz-adv-x="1112"/>
<glyph d="M124 0v1051h712v-188h-459v-863h1v187h192v-465q0 -35 -20 -55t-51 -20h-158v353h-217z" unicode="ӷ" glyph-name="uni04F7" horiz-adv-x="865"/>
<glyph d="M165 0v1481h275v-613h242q144 0 247 -31.5t168 -86.5t96 -129t31 -159q0 -104 -36.5 -189.5t-106 -146t-170.5 -93.5t-230 -33h-516zM165 0zM440 215h241q77 0 128.5 17t83.5 46.5t45 69.5t13 86q0 50 -13 91t-45 69.5t-83 43.5t-128 15h-242v-438zM578 1707 q0 28 11.5 53t29.5 44t42.5 30t50.5 11q29 0 54.5 -11t44.5 -30t30.5 -44t11.5 -53t-11.5 -52.5t-30.5 -43t-44.5 -28.5t-54.5 -10q-27 0 -51 10t-42 28.5t-29.5 43t-11.5 52.5zM1029 1707q0 28 10.5 53t29 44t43.5 30t54 11q28 0 53 -11t44 -30t29.5 -44t10.5 -53 t-10.5 -52.5t-29.5 -43t-44 -28.5t-53 -10q-29 0 -54 10t-43.5 28.5t-29 43t-10.5 52.5zM1440 0v1481h276v-1481h-276z" unicode="Ӹ" glyph-name="uni04F8" horiz-adv-x="1882"/>
<glyph d="M125 0v1051h241v-389h186q110 0 185.5 -27t122.5 -72t68 -104t21 -123q0 -74 -26 -136t-76.5 -106.5t-124 -69t-167.5 -24.5h-430zM125 0zM366 181h188q86 0 128.5 43t42.5 111q0 29 -9.5 55.5t-30 47t-53.5 32t-79 11.5h-187v-300zM391 1323q0 30 11.5 56t30.5 45.5 t44 30.5t53 11q30 0 56 -11t46 -30.5t31 -45.5t11 -56q0 -29 -11 -54t-31 -43.5t-46.5 -29t-55.5 -10.5q-28 0 -53 10.5t-44 29t-30.5 43.5t-11.5 54zM805 1323q0 30 11.5 56t30.5 45.5t44.5 30.5t53.5 11q30 0 56 -11t45 -30.5t30.5 -45.5t11.5 -56q0 -29 -11.5 -54 t-30.5 -43.5t-45 -29t-56 -10.5q-29 0 -54 10.5t-44 29t-30.5 43.5t-11.5 54zM1141 0v1051h253v-1051h-253z" unicode="ӹ" glyph-name="uni04F9" horiz-adv-x="1518"/>
<glyph d="M35 656v205h243v620h913v-212h-637v-408h351v-205h-351v-444h212v-283q0 -66 -16.5 -120.5t-52 -94t-93.5 -61.5t-141 -22q-45 0 -86.5 10t-91.5 31l19 102q8 30 24.5 39t31.5 9t36.5 -6t50.5 -6q56 0 77.5 37t21.5 107v46h-268v656h-243z" unicode="Ӻ" glyph-name="uni04FA" horiz-adv-x="1224"/>
<glyph d="M41 435v179h175v437h712v-188h-459v-249h207v-179h-207v-248h194v-214q0 -65 -16.5 -126.5t-52.5 -109t-94 -77t-141 -29.5q-45 0 -86.5 10t-91.5 31l20 102q8 30 24.5 39t31.5 9q14 0 35.5 -6t51.5 -6q55 0 76.5 37t21.5 107v46h-226v435h-175z" unicode="ӻ" glyph-name="uni04FB" horiz-adv-x="955"/>
<glyph d="M2 0l492 762l-472 719h274q29 0 41.5 -8t23.5 -25l336 -543q5 12 11.5 25t14.5 26l309 487q11 19 24.5 28.5t34.5 9.5h263l-476 -708l356 -563h199v-237q0 -65 -16.5 -126.5t-52.5 -109t-94 -77t-141 -29.5q-45 0 -86.5 10t-90.5 31l20 102q8 30 24.5 39t30.5 9 q15 0 36.5 -6t51.5 -6q55 0 76 37t21 107v46h-119q-29 0 -46 14.5t-27 32.5l-343 567q-7 -23 -20 -43l-328 -524q-12 -17 -28 -32t-42 -15h-257z" unicode="Ӽ" glyph-name="uni04FC" horiz-adv-x="1446"/>
<glyph d="M5 0l360 541l-346 510h243q29 0 41.5 -8t23.5 -25l220 -351q5 17 12.5 34.5t19.5 34.5l178 277q23 38 58 38h232l-347 -498l239 -366h190v-214q0 -65 -16 -126.5t-52 -109t-94 -77t-141 -29.5q-45 0 -86.5 10t-91.5 31l20 102q8 30 24.5 39t30.5 9q15 0 36.5 -6t51.5 -6 q55 0 76.5 37t21.5 107v46h-91q-29 0 -45.5 14.5t-27.5 32.5l-223 366q-9 -37 -25 -62l-197 -304q-11 -17 -27.5 -32t-42.5 -15h-225z" unicode="ӽ" glyph-name="uni04FD" horiz-adv-x="1149"/>
<glyph d="M51 0l423 654h-335v204h340l-408 623h275q28 0 41 -8t24 -25l337 -545q5 13 11 26t14 27l308 487q23 38 59 38h263l-420 -623h346v-204h-327l415 -654h-275q-28 0 -45.5 14.5t-27.5 32.5l-343 567q-7 -23 -19 -43l-329 -524q-11 -17 -27.5 -32t-42.5 -15h-257z" unicode="Ӿ" glyph-name="uni04FE" horiz-adv-x="1469"/>
</font>
</defs>
</svg>
